G04 #@! TF.GenerationSoftware,KiCad,Pcbnew,5.0.2+dfsg1-1*
G04 #@! TF.CreationDate,2020-09-02T15:30:14-03:00*
G04 #@! TF.ProjectId,Quanser_Controller,5175616e-7365-4725-9f43-6f6e74726f6c,rev?*
G04 #@! TF.SameCoordinates,Original*
G04 #@! TF.FileFunction,Legend,Top*
G04 #@! TF.FilePolarity,Positive*
%FSLAX46Y46*%
G04 Gerber Fmt 4.6, Leading zero omitted, Abs format (unit mm)*
G04 Created by KiCad (PCBNEW 5.0.2+dfsg1-1) date qua 02 set 2020 15:30:14 -03*
%MOMM*%
%LPD*%
G01*
G04 APERTURE LIST*
%ADD10C,0.120000*%
%ADD11C,0.150000*%
G04 APERTURE END LIST*
D10*
G04 #@! TO.C,U1*
X106230000Y-70310000D02*
X126670000Y-70310000D01*
X106230000Y-75551000D02*
X108726000Y-75551000D01*
X110575000Y-75551000D02*
X112126000Y-75551000D01*
X113975000Y-75551000D02*
X115526000Y-75551000D01*
X117375000Y-75551000D02*
X118926000Y-75551000D01*
X120775000Y-75551000D02*
X122326000Y-75551000D01*
X124175000Y-75551000D02*
X126670000Y-75551000D01*
X106230000Y-70310000D02*
X106230000Y-75551000D01*
X126670000Y-70310000D02*
X126670000Y-75551000D01*
X106230000Y-72150000D02*
X126670000Y-72150000D01*
X114600000Y-70310000D02*
X114600000Y-72150000D01*
X118300000Y-70310000D02*
X118300000Y-72150000D01*
X107950000Y-75551000D02*
X107950000Y-78960000D01*
X111350000Y-75551000D02*
X111350000Y-78945000D01*
X114750000Y-75551000D02*
X114750000Y-78945000D01*
X118150000Y-75551000D02*
X118150000Y-78945000D01*
X121550000Y-75551000D02*
X121550000Y-78945000D01*
X124950000Y-75551000D02*
X124950000Y-78945000D01*
G04 #@! TO.C,J2*
X186630000Y-58360000D02*
X186630000Y-61020000D01*
X196850000Y-58360000D02*
X186630000Y-58360000D01*
X196850000Y-61020000D02*
X186630000Y-61020000D01*
X196850000Y-58360000D02*
X196850000Y-61020000D01*
X198120000Y-58360000D02*
X199450000Y-58360000D01*
X199450000Y-58360000D02*
X199450000Y-59690000D01*
G04 #@! TO.C,Crystal1*
X162110000Y-80700000D02*
X166810000Y-80700000D01*
X162110000Y-84400000D02*
X166810000Y-84400000D01*
X162110000Y-84400000D02*
G75*
G02X162110000Y-80700000I0J1850000D01*
G01*
X166810000Y-84400000D02*
G75*
G03X166810000Y-80700000I0J1850000D01*
G01*
G04 #@! TO.C,C1*
X141870000Y-87780000D02*
X145110000Y-87780000D01*
X141870000Y-90020000D02*
X145110000Y-90020000D01*
X141870000Y-87780000D02*
X141870000Y-87845000D01*
X141870000Y-89955000D02*
X141870000Y-90020000D01*
X145110000Y-87780000D02*
X145110000Y-87845000D01*
X145110000Y-89955000D02*
X145110000Y-90020000D01*
G04 #@! TO.C,C2*
X173090000Y-89955000D02*
X173090000Y-90020000D01*
X173090000Y-87780000D02*
X173090000Y-87845000D01*
X169850000Y-89955000D02*
X169850000Y-90020000D01*
X169850000Y-87780000D02*
X169850000Y-87845000D01*
X169850000Y-90020000D02*
X173090000Y-90020000D01*
X169850000Y-87780000D02*
X173090000Y-87780000D01*
G04 #@! TO.C,C3*
X98910000Y-73290000D02*
X98910000Y-76530000D01*
X96670000Y-73290000D02*
X96670000Y-76530000D01*
X98910000Y-73290000D02*
X98845000Y-73290000D01*
X96735000Y-73290000D02*
X96670000Y-73290000D01*
X98910000Y-76530000D02*
X98845000Y-76530000D01*
X96735000Y-76530000D02*
X96670000Y-76530000D01*
G04 #@! TO.C,C4*
X143295000Y-65710000D02*
X143360000Y-65710000D01*
X141120000Y-65710000D02*
X141185000Y-65710000D01*
X143295000Y-68950000D02*
X143360000Y-68950000D01*
X141120000Y-68950000D02*
X141185000Y-68950000D01*
X143360000Y-68950000D02*
X143360000Y-65710000D01*
X141120000Y-68950000D02*
X141120000Y-65710000D01*
G04 #@! TO.C,F1*
X159740000Y-53700000D02*
X156940000Y-53700000D01*
X152940000Y-53700000D02*
X150140000Y-53700000D01*
X152940000Y-76200000D02*
X150140000Y-76200000D01*
X150140000Y-76200000D02*
X150140000Y-53700000D01*
X159740000Y-76200000D02*
X159740000Y-53700000D01*
X159740000Y-76200000D02*
X156940000Y-76200000D01*
G04 #@! TO.C,J1*
X112850000Y-98850000D02*
X112850000Y-94730000D01*
X98790000Y-98850000D02*
X112850000Y-98850000D01*
X96730000Y-94730000D02*
X112850000Y-94730000D01*
X98790000Y-98850000D02*
X98790000Y-96790000D01*
X98790000Y-96790000D02*
X96730000Y-96790000D01*
X96730000Y-96790000D02*
X96730000Y-94730000D01*
X97790000Y-98850000D02*
X96730000Y-98850000D01*
X96730000Y-98850000D02*
X96730000Y-97790000D01*
G04 #@! TO.C,J3*
X201940000Y-81070000D02*
X201940000Y-78950000D01*
X183880000Y-81070000D02*
X201940000Y-81070000D01*
X183880000Y-78950000D02*
X201940000Y-78950000D01*
X183880000Y-81070000D02*
X183880000Y-78950000D01*
X182880000Y-81070000D02*
X181820000Y-81070000D01*
X181820000Y-81070000D02*
X181820000Y-80010000D01*
G04 #@! TO.C,J4*
X112850000Y-89960000D02*
X112850000Y-87840000D01*
X98790000Y-89960000D02*
X112850000Y-89960000D01*
X98790000Y-87840000D02*
X112850000Y-87840000D01*
X98790000Y-89960000D02*
X98790000Y-87840000D01*
X97790000Y-89960000D02*
X96730000Y-89960000D01*
X96730000Y-89960000D02*
X96730000Y-88900000D01*
G04 #@! TO.C,J5*
X181820000Y-54400000D02*
X181820000Y-53340000D01*
X182880000Y-54400000D02*
X181820000Y-54400000D01*
X183880000Y-54400000D02*
X183880000Y-52280000D01*
X183880000Y-52280000D02*
X197940000Y-52280000D01*
X183880000Y-54400000D02*
X197940000Y-54400000D01*
X197940000Y-54400000D02*
X197940000Y-52280000D01*
G04 #@! TO.C,J6*
X95140000Y-54660000D02*
X95140000Y-67260000D01*
X95140000Y-67260000D02*
X105490000Y-67260000D01*
X105490000Y-67260000D02*
X105490000Y-66310000D01*
X105490000Y-66310000D02*
X105990000Y-66560000D01*
X105990000Y-66560000D02*
X105990000Y-64660000D01*
X105990000Y-64660000D02*
X105990000Y-64610000D01*
X105990000Y-64610000D02*
X105490000Y-64860000D01*
X105490000Y-64860000D02*
X105490000Y-59460000D01*
X105490000Y-59460000D02*
X105990000Y-59760000D01*
X105990000Y-59760000D02*
X105990000Y-54660000D01*
X105990000Y-54660000D02*
X95140000Y-54660000D01*
G04 #@! TO.C,J7*
X128850000Y-54660000D02*
X118000000Y-54660000D01*
X128850000Y-59760000D02*
X128850000Y-54660000D01*
X128350000Y-59460000D02*
X128850000Y-59760000D01*
X128350000Y-64860000D02*
X128350000Y-59460000D01*
X128850000Y-64610000D02*
X128350000Y-64860000D01*
X128850000Y-64660000D02*
X128850000Y-64610000D01*
X128850000Y-66560000D02*
X128850000Y-64660000D01*
X128350000Y-66310000D02*
X128850000Y-66560000D01*
X128350000Y-67260000D02*
X128350000Y-66310000D01*
X118000000Y-67260000D02*
X128350000Y-67260000D01*
X118000000Y-54660000D02*
X118000000Y-67260000D01*
G04 #@! TO.C,Q1*
X140280000Y-81810000D02*
X140280000Y-78210000D01*
X140268478Y-81848478D02*
G75*
G02X135830000Y-80010000I-1838478J1838478D01*
G01*
X140268478Y-78171522D02*
G75*
G03X135830000Y-80010000I-1838478J-1838478D01*
G01*
G04 #@! TO.C,R1*
X153020000Y-95600000D02*
X156860000Y-95600000D01*
X153020000Y-97440000D02*
X156860000Y-97440000D01*
G04 #@! TO.C,R2*
X118730000Y-89820000D02*
X122570000Y-89820000D01*
X118730000Y-87980000D02*
X122570000Y-87980000D01*
G04 #@! TO.C,R3*
X96870000Y-84470000D02*
X96870000Y-80630000D01*
X98710000Y-84470000D02*
X98710000Y-80630000D01*
G04 #@! TO.C,R4*
X133000000Y-89520000D02*
X133000000Y-93360000D01*
X131160000Y-89520000D02*
X131160000Y-93360000D01*
G04 #@! TO.C,R5*
X136510000Y-56800000D02*
X140350000Y-56800000D01*
X136510000Y-54960000D02*
X140350000Y-54960000D01*
G04 #@! TO.C,U2*
X175200000Y-67200000D02*
X175200000Y-68850000D01*
X193100000Y-67200000D02*
X175200000Y-67200000D01*
X193100000Y-72500000D02*
X193100000Y-67200000D01*
X175200000Y-72500000D02*
X193100000Y-72500000D01*
X175200000Y-70850000D02*
X175200000Y-72500000D01*
X175200000Y-68850000D02*
G75*
G02X175200000Y-70850000I0J-1000000D01*
G01*
G04 #@! TO.C,U1*
D11*
X115688095Y-68762380D02*
X115688095Y-69571904D01*
X115735714Y-69667142D01*
X115783333Y-69714761D01*
X115878571Y-69762380D01*
X116069047Y-69762380D01*
X116164285Y-69714761D01*
X116211904Y-69667142D01*
X116259523Y-69571904D01*
X116259523Y-68762380D01*
X117259523Y-69762380D02*
X116688095Y-69762380D01*
X116973809Y-69762380D02*
X116973809Y-68762380D01*
X116878571Y-68905238D01*
X116783333Y-69000476D01*
X116688095Y-69048095D01*
G04 #@! TO.C,J2*
X199902380Y-60023333D02*
X200616666Y-60023333D01*
X200759523Y-60070952D01*
X200854761Y-60166190D01*
X200902380Y-60309047D01*
X200902380Y-60404285D01*
X199997619Y-59594761D02*
X199950000Y-59547142D01*
X199902380Y-59451904D01*
X199902380Y-59213809D01*
X199950000Y-59118571D01*
X199997619Y-59070952D01*
X200092857Y-59023333D01*
X200188095Y-59023333D01*
X200330952Y-59070952D01*
X200902380Y-59642380D01*
X200902380Y-59023333D01*
G04 #@! TO.C,Crystal1*
X162198095Y-80057142D02*
X162150476Y-80104761D01*
X162007619Y-80152380D01*
X161912380Y-80152380D01*
X161769523Y-80104761D01*
X161674285Y-80009523D01*
X161626666Y-79914285D01*
X161579047Y-79723809D01*
X161579047Y-79580952D01*
X161626666Y-79390476D01*
X161674285Y-79295238D01*
X161769523Y-79200000D01*
X161912380Y-79152380D01*
X162007619Y-79152380D01*
X162150476Y-79200000D01*
X162198095Y-79247619D01*
X162626666Y-80152380D02*
X162626666Y-79485714D01*
X162626666Y-79676190D02*
X162674285Y-79580952D01*
X162721904Y-79533333D01*
X162817142Y-79485714D01*
X162912380Y-79485714D01*
X163150476Y-79485714D02*
X163388571Y-80152380D01*
X163626666Y-79485714D02*
X163388571Y-80152380D01*
X163293333Y-80390476D01*
X163245714Y-80438095D01*
X163150476Y-80485714D01*
X163960000Y-80104761D02*
X164055238Y-80152380D01*
X164245714Y-80152380D01*
X164340952Y-80104761D01*
X164388571Y-80009523D01*
X164388571Y-79961904D01*
X164340952Y-79866666D01*
X164245714Y-79819047D01*
X164102857Y-79819047D01*
X164007619Y-79771428D01*
X163960000Y-79676190D01*
X163960000Y-79628571D01*
X164007619Y-79533333D01*
X164102857Y-79485714D01*
X164245714Y-79485714D01*
X164340952Y-79533333D01*
X164674285Y-79485714D02*
X165055238Y-79485714D01*
X164817142Y-79152380D02*
X164817142Y-80009523D01*
X164864761Y-80104761D01*
X164960000Y-80152380D01*
X165055238Y-80152380D01*
X165817142Y-80152380D02*
X165817142Y-79628571D01*
X165769523Y-79533333D01*
X165674285Y-79485714D01*
X165483809Y-79485714D01*
X165388571Y-79533333D01*
X165817142Y-80104761D02*
X165721904Y-80152380D01*
X165483809Y-80152380D01*
X165388571Y-80104761D01*
X165340952Y-80009523D01*
X165340952Y-79914285D01*
X165388571Y-79819047D01*
X165483809Y-79771428D01*
X165721904Y-79771428D01*
X165817142Y-79723809D01*
X166436190Y-80152380D02*
X166340952Y-80104761D01*
X166293333Y-80009523D01*
X166293333Y-79152380D01*
X167340952Y-80152380D02*
X166769523Y-80152380D01*
X167055238Y-80152380D02*
X167055238Y-79152380D01*
X166960000Y-79295238D01*
X166864761Y-79390476D01*
X166769523Y-79438095D01*
G04 #@! TO.C,C1*
X143323333Y-87007142D02*
X143275714Y-87054761D01*
X143132857Y-87102380D01*
X143037619Y-87102380D01*
X142894761Y-87054761D01*
X142799523Y-86959523D01*
X142751904Y-86864285D01*
X142704285Y-86673809D01*
X142704285Y-86530952D01*
X142751904Y-86340476D01*
X142799523Y-86245238D01*
X142894761Y-86150000D01*
X143037619Y-86102380D01*
X143132857Y-86102380D01*
X143275714Y-86150000D01*
X143323333Y-86197619D01*
X144275714Y-87102380D02*
X143704285Y-87102380D01*
X143990000Y-87102380D02*
X143990000Y-86102380D01*
X143894761Y-86245238D01*
X143799523Y-86340476D01*
X143704285Y-86388095D01*
G04 #@! TO.C,C2*
X171303333Y-87007142D02*
X171255714Y-87054761D01*
X171112857Y-87102380D01*
X171017619Y-87102380D01*
X170874761Y-87054761D01*
X170779523Y-86959523D01*
X170731904Y-86864285D01*
X170684285Y-86673809D01*
X170684285Y-86530952D01*
X170731904Y-86340476D01*
X170779523Y-86245238D01*
X170874761Y-86150000D01*
X171017619Y-86102380D01*
X171112857Y-86102380D01*
X171255714Y-86150000D01*
X171303333Y-86197619D01*
X171684285Y-86197619D02*
X171731904Y-86150000D01*
X171827142Y-86102380D01*
X172065238Y-86102380D01*
X172160476Y-86150000D01*
X172208095Y-86197619D01*
X172255714Y-86292857D01*
X172255714Y-86388095D01*
X172208095Y-86530952D01*
X171636666Y-87102380D01*
X172255714Y-87102380D01*
G04 #@! TO.C,C3*
X100397142Y-75076666D02*
X100444761Y-75124285D01*
X100492380Y-75267142D01*
X100492380Y-75362380D01*
X100444761Y-75505238D01*
X100349523Y-75600476D01*
X100254285Y-75648095D01*
X100063809Y-75695714D01*
X99920952Y-75695714D01*
X99730476Y-75648095D01*
X99635238Y-75600476D01*
X99540000Y-75505238D01*
X99492380Y-75362380D01*
X99492380Y-75267142D01*
X99540000Y-75124285D01*
X99587619Y-75076666D01*
X99492380Y-74743333D02*
X99492380Y-74124285D01*
X99873333Y-74457619D01*
X99873333Y-74314761D01*
X99920952Y-74219523D01*
X99968571Y-74171904D01*
X100063809Y-74124285D01*
X100301904Y-74124285D01*
X100397142Y-74171904D01*
X100444761Y-74219523D01*
X100492380Y-74314761D01*
X100492380Y-74600476D01*
X100444761Y-74695714D01*
X100397142Y-74743333D01*
G04 #@! TO.C,C4*
X140347142Y-67496666D02*
X140394761Y-67544285D01*
X140442380Y-67687142D01*
X140442380Y-67782380D01*
X140394761Y-67925238D01*
X140299523Y-68020476D01*
X140204285Y-68068095D01*
X140013809Y-68115714D01*
X139870952Y-68115714D01*
X139680476Y-68068095D01*
X139585238Y-68020476D01*
X139490000Y-67925238D01*
X139442380Y-67782380D01*
X139442380Y-67687142D01*
X139490000Y-67544285D01*
X139537619Y-67496666D01*
X139775714Y-66639523D02*
X140442380Y-66639523D01*
X139394761Y-66877619D02*
X140109047Y-67115714D01*
X140109047Y-66496666D01*
G04 #@! TO.C,F1*
X148868571Y-65283333D02*
X148868571Y-65616666D01*
X149392380Y-65616666D02*
X148392380Y-65616666D01*
X148392380Y-65140476D01*
X149392380Y-64235714D02*
X149392380Y-64807142D01*
X149392380Y-64521428D02*
X148392380Y-64521428D01*
X148535238Y-64616666D01*
X148630476Y-64711904D01*
X148678095Y-64807142D01*
G04 #@! TO.C,J1*
X95182380Y-97123333D02*
X95896666Y-97123333D01*
X96039523Y-97170952D01*
X96134761Y-97266190D01*
X96182380Y-97409047D01*
X96182380Y-97504285D01*
X96182380Y-96123333D02*
X96182380Y-96694761D01*
X96182380Y-96409047D02*
X95182380Y-96409047D01*
X95325238Y-96504285D01*
X95420476Y-96599523D01*
X95468095Y-96694761D01*
G04 #@! TO.C,J3*
X180272380Y-80343333D02*
X180986666Y-80343333D01*
X181129523Y-80390952D01*
X181224761Y-80486190D01*
X181272380Y-80629047D01*
X181272380Y-80724285D01*
X180272380Y-79962380D02*
X180272380Y-79343333D01*
X180653333Y-79676666D01*
X180653333Y-79533809D01*
X180700952Y-79438571D01*
X180748571Y-79390952D01*
X180843809Y-79343333D01*
X181081904Y-79343333D01*
X181177142Y-79390952D01*
X181224761Y-79438571D01*
X181272380Y-79533809D01*
X181272380Y-79819523D01*
X181224761Y-79914761D01*
X181177142Y-79962380D01*
G04 #@! TO.C,J4*
X95182380Y-89233333D02*
X95896666Y-89233333D01*
X96039523Y-89280952D01*
X96134761Y-89376190D01*
X96182380Y-89519047D01*
X96182380Y-89614285D01*
X95515714Y-88328571D02*
X96182380Y-88328571D01*
X95134761Y-88566666D02*
X95849047Y-88804761D01*
X95849047Y-88185714D01*
G04 #@! TO.C,J5*
X180272380Y-53673333D02*
X180986666Y-53673333D01*
X181129523Y-53720952D01*
X181224761Y-53816190D01*
X181272380Y-53959047D01*
X181272380Y-54054285D01*
X180272380Y-52720952D02*
X180272380Y-53197142D01*
X180748571Y-53244761D01*
X180700952Y-53197142D01*
X180653333Y-53101904D01*
X180653333Y-52863809D01*
X180700952Y-52768571D01*
X180748571Y-52720952D01*
X180843809Y-52673333D01*
X181081904Y-52673333D01*
X181177142Y-52720952D01*
X181224761Y-52768571D01*
X181272380Y-52863809D01*
X181272380Y-53101904D01*
X181224761Y-53197142D01*
X181177142Y-53244761D01*
G04 #@! TO.C,J6*
X95536666Y-53422380D02*
X95536666Y-54136666D01*
X95489047Y-54279523D01*
X95393809Y-54374761D01*
X95250952Y-54422380D01*
X95155714Y-54422380D01*
X96441428Y-53422380D02*
X96250952Y-53422380D01*
X96155714Y-53470000D01*
X96108095Y-53517619D01*
X96012857Y-53660476D01*
X95965238Y-53850952D01*
X95965238Y-54231904D01*
X96012857Y-54327142D01*
X96060476Y-54374761D01*
X96155714Y-54422380D01*
X96346190Y-54422380D01*
X96441428Y-54374761D01*
X96489047Y-54327142D01*
X96536666Y-54231904D01*
X96536666Y-53993809D01*
X96489047Y-53898571D01*
X96441428Y-53850952D01*
X96346190Y-53803333D01*
X96155714Y-53803333D01*
X96060476Y-53850952D01*
X96012857Y-53898571D01*
X95965238Y-53993809D01*
G04 #@! TO.C,J7*
X118396666Y-53422380D02*
X118396666Y-54136666D01*
X118349047Y-54279523D01*
X118253809Y-54374761D01*
X118110952Y-54422380D01*
X118015714Y-54422380D01*
X118777619Y-53422380D02*
X119444285Y-53422380D01*
X119015714Y-54422380D01*
G04 #@! TO.C,Q1*
X135417619Y-80105238D02*
X135370000Y-80200476D01*
X135274761Y-80295714D01*
X135131904Y-80438571D01*
X135084285Y-80533809D01*
X135084285Y-80629047D01*
X135322380Y-80581428D02*
X135274761Y-80676666D01*
X135179523Y-80771904D01*
X134989047Y-80819523D01*
X134655714Y-80819523D01*
X134465238Y-80771904D01*
X134370000Y-80676666D01*
X134322380Y-80581428D01*
X134322380Y-80390952D01*
X134370000Y-80295714D01*
X134465238Y-80200476D01*
X134655714Y-80152857D01*
X134989047Y-80152857D01*
X135179523Y-80200476D01*
X135274761Y-80295714D01*
X135322380Y-80390952D01*
X135322380Y-80581428D01*
X135322380Y-79200476D02*
X135322380Y-79771904D01*
X135322380Y-79486190D02*
X134322380Y-79486190D01*
X134465238Y-79581428D01*
X134560476Y-79676666D01*
X134608095Y-79771904D01*
G04 #@! TO.C,R1*
X154773333Y-95052380D02*
X154440000Y-94576190D01*
X154201904Y-95052380D02*
X154201904Y-94052380D01*
X154582857Y-94052380D01*
X154678095Y-94100000D01*
X154725714Y-94147619D01*
X154773333Y-94242857D01*
X154773333Y-94385714D01*
X154725714Y-94480952D01*
X154678095Y-94528571D01*
X154582857Y-94576190D01*
X154201904Y-94576190D01*
X155725714Y-95052380D02*
X155154285Y-95052380D01*
X155440000Y-95052380D02*
X155440000Y-94052380D01*
X155344761Y-94195238D01*
X155249523Y-94290476D01*
X155154285Y-94338095D01*
G04 #@! TO.C,R2*
X120483333Y-87432380D02*
X120150000Y-86956190D01*
X119911904Y-87432380D02*
X119911904Y-86432380D01*
X120292857Y-86432380D01*
X120388095Y-86480000D01*
X120435714Y-86527619D01*
X120483333Y-86622857D01*
X120483333Y-86765714D01*
X120435714Y-86860952D01*
X120388095Y-86908571D01*
X120292857Y-86956190D01*
X119911904Y-86956190D01*
X120864285Y-86527619D02*
X120911904Y-86480000D01*
X121007142Y-86432380D01*
X121245238Y-86432380D01*
X121340476Y-86480000D01*
X121388095Y-86527619D01*
X121435714Y-86622857D01*
X121435714Y-86718095D01*
X121388095Y-86860952D01*
X120816666Y-87432380D01*
X121435714Y-87432380D01*
G04 #@! TO.C,R3*
X96322380Y-82716666D02*
X95846190Y-83050000D01*
X96322380Y-83288095D02*
X95322380Y-83288095D01*
X95322380Y-82907142D01*
X95370000Y-82811904D01*
X95417619Y-82764285D01*
X95512857Y-82716666D01*
X95655714Y-82716666D01*
X95750952Y-82764285D01*
X95798571Y-82811904D01*
X95846190Y-82907142D01*
X95846190Y-83288095D01*
X95322380Y-82383333D02*
X95322380Y-81764285D01*
X95703333Y-82097619D01*
X95703333Y-81954761D01*
X95750952Y-81859523D01*
X95798571Y-81811904D01*
X95893809Y-81764285D01*
X96131904Y-81764285D01*
X96227142Y-81811904D01*
X96274761Y-81859523D01*
X96322380Y-81954761D01*
X96322380Y-82240476D01*
X96274761Y-82335714D01*
X96227142Y-82383333D01*
G04 #@! TO.C,R4*
X134452380Y-91606666D02*
X133976190Y-91940000D01*
X134452380Y-92178095D02*
X133452380Y-92178095D01*
X133452380Y-91797142D01*
X133500000Y-91701904D01*
X133547619Y-91654285D01*
X133642857Y-91606666D01*
X133785714Y-91606666D01*
X133880952Y-91654285D01*
X133928571Y-91701904D01*
X133976190Y-91797142D01*
X133976190Y-92178095D01*
X133785714Y-90749523D02*
X134452380Y-90749523D01*
X133404761Y-90987619D02*
X134119047Y-91225714D01*
X134119047Y-90606666D01*
G04 #@! TO.C,R5*
X138263333Y-54412380D02*
X137930000Y-53936190D01*
X137691904Y-54412380D02*
X137691904Y-53412380D01*
X138072857Y-53412380D01*
X138168095Y-53460000D01*
X138215714Y-53507619D01*
X138263333Y-53602857D01*
X138263333Y-53745714D01*
X138215714Y-53840952D01*
X138168095Y-53888571D01*
X138072857Y-53936190D01*
X137691904Y-53936190D01*
X139168095Y-53412380D02*
X138691904Y-53412380D01*
X138644285Y-53888571D01*
X138691904Y-53840952D01*
X138787142Y-53793333D01*
X139025238Y-53793333D01*
X139120476Y-53840952D01*
X139168095Y-53888571D01*
X139215714Y-53983809D01*
X139215714Y-54221904D01*
X139168095Y-54317142D01*
X139120476Y-54364761D01*
X139025238Y-54412380D01*
X138787142Y-54412380D01*
X138691904Y-54364761D01*
X138644285Y-54317142D01*
G04 #@! TO.C,U2*
X174747619Y-69088095D02*
X173938095Y-69088095D01*
X173842857Y-69135714D01*
X173795238Y-69183333D01*
X173747619Y-69278571D01*
X173747619Y-69469047D01*
X173795238Y-69564285D01*
X173842857Y-69611904D01*
X173938095Y-69659523D01*
X174747619Y-69659523D01*
X174652380Y-70088095D02*
X174700000Y-70135714D01*
X174747619Y-70230952D01*
X174747619Y-70469047D01*
X174700000Y-70564285D01*
X174652380Y-70611904D01*
X174557142Y-70659523D01*
X174461904Y-70659523D01*
X174319047Y-70611904D01*
X173747619Y-70040476D01*
X173747619Y-70659523D01*
G04 #@! TD*
M02*
