M48
METRIC,TZ
T1C0.700
T2C0.750
T3C0.800
T4C1.000
T5C1.300
T6C1.320
%
G90
G05
T1
X132080Y-88900
X132080Y-93980
X97790Y-80010
X97790Y-85090
X135890Y-55880
X140970Y-55880
X118110Y-88900
X123190Y-88900
X152400Y-96520
X157480Y-96520
T2
X138430Y-78740
X138430Y-80010
X138430Y-81280
T3
X97790Y-95790
X97790Y-97790
X99790Y-95790
X99790Y-97790
X101790Y-95790
X101790Y-97790
X103790Y-95790
X103790Y-97790
X105790Y-95790
X105790Y-97790
X107790Y-95790
X107790Y-97790
X109790Y-95790
X109790Y-97790
X111790Y-95790
X111790Y-97790
X162560Y-82550
X166360Y-82550
X176530Y-66040
X176530Y-73660
X179070Y-66040
X179070Y-73660
X181610Y-66040
X181610Y-73660
X184150Y-66040
X184150Y-73660
X186690Y-66040
X186690Y-73660
X189230Y-66040
X189230Y-73660
X191770Y-66040
X191770Y-73660
X170220Y-88900
X172720Y-88900
X142240Y-66080
X142240Y-68580
X182880Y-53340
X184880Y-53340
X186880Y-53340
X188880Y-53340
X190880Y-53340
X192880Y-53340
X194880Y-53340
X196880Y-53340
X182880Y-80010
X184880Y-80010
X186880Y-80010
X188880Y-80010
X190880Y-80010
X192880Y-80010
X194880Y-80010
X196880Y-80010
X198880Y-80010
X200880Y-80010
X97790Y-73660
X97790Y-76160
X97790Y-88900
X99790Y-88900
X101790Y-88900
X103790Y-88900
X105790Y-88900
X107790Y-88900
X109790Y-88900
X111790Y-88900
X142240Y-88900
X144740Y-88900
T4
X107950Y-80010
X109650Y-74930
X111350Y-80010
X113050Y-74930
X114750Y-80010
X116450Y-74930
X118150Y-80010
X119850Y-74930
X121550Y-80010
X123250Y-74930
X124950Y-80010
X187960Y-59690
X190500Y-59690
X193040Y-59690
X195580Y-59690
X198120Y-59690
T5
X154940Y-53700
X154940Y-76200
T6
X97790Y-60960
X102790Y-60960
X120650Y-60960
X125650Y-60960
T0
M30
