G04 #@! TF.GenerationSoftware,KiCad,Pcbnew,(5.1.5-0-10_14)*
G04 #@! TF.CreationDate,2020-08-23T20:17:24-03:00*
G04 #@! TF.ProjectId,Micros,4d696372-6f73-42e6-9b69-6361645f7063,rev?*
G04 #@! TF.SameCoordinates,Original*
G04 #@! TF.FileFunction,Soldermask,Bot*
G04 #@! TF.FilePolarity,Negative*
%FSLAX46Y46*%
G04 Gerber Fmt 4.6, Leading zero omitted, Abs format (unit mm)*
G04 Created by KiCad (PCBNEW (5.1.5-0-10_14)) date 2020-08-23 20:17:24*
%MOMM*%
%LPD*%
G04 APERTURE LIST*
%ADD10C,0.150000*%
G04 APERTURE END LIST*
D10*
G36*
X100086766Y-151956899D02*
G01*
X100218888Y-152011626D01*
X100218890Y-152011627D01*
X100337798Y-152091079D01*
X100438921Y-152192202D01*
X100438922Y-152192204D01*
X100518374Y-152311112D01*
X100573101Y-152443234D01*
X100601000Y-152583494D01*
X100601000Y-152726506D01*
X100573101Y-152866766D01*
X100518374Y-152998888D01*
X100518373Y-152998890D01*
X100438921Y-153117798D01*
X100337798Y-153218921D01*
X100218890Y-153298373D01*
X100218889Y-153298374D01*
X100218888Y-153298374D01*
X100086766Y-153353101D01*
X99946506Y-153381000D01*
X99803494Y-153381000D01*
X99663234Y-153353101D01*
X99531112Y-153298374D01*
X99531111Y-153298374D01*
X99531110Y-153298373D01*
X99412202Y-153218921D01*
X99311079Y-153117798D01*
X99231627Y-152998890D01*
X99231626Y-152998888D01*
X99176899Y-152866766D01*
X99149000Y-152726506D01*
X99149000Y-152583494D01*
X99176899Y-152443234D01*
X99231626Y-152311112D01*
X99311078Y-152192204D01*
X99311079Y-152192202D01*
X99412202Y-152091079D01*
X99531110Y-152011627D01*
X99531112Y-152011626D01*
X99663234Y-151956899D01*
X99803494Y-151929000D01*
X99946506Y-151929000D01*
X100086766Y-151956899D01*
G37*
G36*
X98086766Y-151956899D02*
G01*
X98218888Y-152011626D01*
X98218890Y-152011627D01*
X98337798Y-152091079D01*
X98438921Y-152192202D01*
X98438922Y-152192204D01*
X98518374Y-152311112D01*
X98573101Y-152443234D01*
X98601000Y-152583494D01*
X98601000Y-152726506D01*
X98573101Y-152866766D01*
X98518374Y-152998888D01*
X98518373Y-152998890D01*
X98438921Y-153117798D01*
X98337798Y-153218921D01*
X98218890Y-153298373D01*
X98218889Y-153298374D01*
X98218888Y-153298374D01*
X98086766Y-153353101D01*
X97946506Y-153381000D01*
X97803494Y-153381000D01*
X97663234Y-153353101D01*
X97531112Y-153298374D01*
X97531111Y-153298374D01*
X97531110Y-153298373D01*
X97412202Y-153218921D01*
X97311079Y-153117798D01*
X97231627Y-152998890D01*
X97231626Y-152998888D01*
X97176899Y-152866766D01*
X97149000Y-152726506D01*
X97149000Y-152583494D01*
X97176899Y-152443234D01*
X97231626Y-152311112D01*
X97311078Y-152192204D01*
X97311079Y-152192202D01*
X97412202Y-152091079D01*
X97531110Y-152011627D01*
X97531112Y-152011626D01*
X97663234Y-151956899D01*
X97803494Y-151929000D01*
X97946506Y-151929000D01*
X98086766Y-151956899D01*
G37*
G36*
X96086766Y-151956899D02*
G01*
X96218888Y-152011626D01*
X96218890Y-152011627D01*
X96337798Y-152091079D01*
X96438921Y-152192202D01*
X96438922Y-152192204D01*
X96518374Y-152311112D01*
X96573101Y-152443234D01*
X96601000Y-152583494D01*
X96601000Y-152726506D01*
X96573101Y-152866766D01*
X96518374Y-152998888D01*
X96518373Y-152998890D01*
X96438921Y-153117798D01*
X96337798Y-153218921D01*
X96218890Y-153298373D01*
X96218889Y-153298374D01*
X96218888Y-153298374D01*
X96086766Y-153353101D01*
X95946506Y-153381000D01*
X95803494Y-153381000D01*
X95663234Y-153353101D01*
X95531112Y-153298374D01*
X95531111Y-153298374D01*
X95531110Y-153298373D01*
X95412202Y-153218921D01*
X95311079Y-153117798D01*
X95231627Y-152998890D01*
X95231626Y-152998888D01*
X95176899Y-152866766D01*
X95149000Y-152726506D01*
X95149000Y-152583494D01*
X95176899Y-152443234D01*
X95231626Y-152311112D01*
X95311078Y-152192204D01*
X95311079Y-152192202D01*
X95412202Y-152091079D01*
X95531110Y-152011627D01*
X95531112Y-152011626D01*
X95663234Y-151956899D01*
X95803494Y-151929000D01*
X95946506Y-151929000D01*
X96086766Y-151956899D01*
G37*
G36*
X94086766Y-151956899D02*
G01*
X94218888Y-152011626D01*
X94218890Y-152011627D01*
X94337798Y-152091079D01*
X94438921Y-152192202D01*
X94438922Y-152192204D01*
X94518374Y-152311112D01*
X94573101Y-152443234D01*
X94601000Y-152583494D01*
X94601000Y-152726506D01*
X94573101Y-152866766D01*
X94518374Y-152998888D01*
X94518373Y-152998890D01*
X94438921Y-153117798D01*
X94337798Y-153218921D01*
X94218890Y-153298373D01*
X94218889Y-153298374D01*
X94218888Y-153298374D01*
X94086766Y-153353101D01*
X93946506Y-153381000D01*
X93803494Y-153381000D01*
X93663234Y-153353101D01*
X93531112Y-153298374D01*
X93531111Y-153298374D01*
X93531110Y-153298373D01*
X93412202Y-153218921D01*
X93311079Y-153117798D01*
X93231627Y-152998890D01*
X93231626Y-152998888D01*
X93176899Y-152866766D01*
X93149000Y-152726506D01*
X93149000Y-152583494D01*
X93176899Y-152443234D01*
X93231626Y-152311112D01*
X93311078Y-152192204D01*
X93311079Y-152192202D01*
X93412202Y-152091079D01*
X93531110Y-152011627D01*
X93531112Y-152011626D01*
X93663234Y-151956899D01*
X93803494Y-151929000D01*
X93946506Y-151929000D01*
X94086766Y-151956899D01*
G37*
G36*
X92086766Y-151956899D02*
G01*
X92218888Y-152011626D01*
X92218890Y-152011627D01*
X92337798Y-152091079D01*
X92438921Y-152192202D01*
X92438922Y-152192204D01*
X92518374Y-152311112D01*
X92573101Y-152443234D01*
X92601000Y-152583494D01*
X92601000Y-152726506D01*
X92573101Y-152866766D01*
X92518374Y-152998888D01*
X92518373Y-152998890D01*
X92438921Y-153117798D01*
X92337798Y-153218921D01*
X92218890Y-153298373D01*
X92218889Y-153298374D01*
X92218888Y-153298374D01*
X92086766Y-153353101D01*
X91946506Y-153381000D01*
X91803494Y-153381000D01*
X91663234Y-153353101D01*
X91531112Y-153298374D01*
X91531111Y-153298374D01*
X91531110Y-153298373D01*
X91412202Y-153218921D01*
X91311079Y-153117798D01*
X91231627Y-152998890D01*
X91231626Y-152998888D01*
X91176899Y-152866766D01*
X91149000Y-152726506D01*
X91149000Y-152583494D01*
X91176899Y-152443234D01*
X91231626Y-152311112D01*
X91311078Y-152192204D01*
X91311079Y-152192202D01*
X91412202Y-152091079D01*
X91531110Y-152011627D01*
X91531112Y-152011626D01*
X91663234Y-151956899D01*
X91803494Y-151929000D01*
X91946506Y-151929000D01*
X92086766Y-151956899D01*
G37*
G36*
X90086766Y-151956899D02*
G01*
X90218888Y-152011626D01*
X90218890Y-152011627D01*
X90337798Y-152091079D01*
X90438921Y-152192202D01*
X90438922Y-152192204D01*
X90518374Y-152311112D01*
X90573101Y-152443234D01*
X90601000Y-152583494D01*
X90601000Y-152726506D01*
X90573101Y-152866766D01*
X90518374Y-152998888D01*
X90518373Y-152998890D01*
X90438921Y-153117798D01*
X90337798Y-153218921D01*
X90218890Y-153298373D01*
X90218889Y-153298374D01*
X90218888Y-153298374D01*
X90086766Y-153353101D01*
X89946506Y-153381000D01*
X89803494Y-153381000D01*
X89663234Y-153353101D01*
X89531112Y-153298374D01*
X89531111Y-153298374D01*
X89531110Y-153298373D01*
X89412202Y-153218921D01*
X89311079Y-153117798D01*
X89231627Y-152998890D01*
X89231626Y-152998888D01*
X89176899Y-152866766D01*
X89149000Y-152726506D01*
X89149000Y-152583494D01*
X89176899Y-152443234D01*
X89231626Y-152311112D01*
X89311078Y-152192204D01*
X89311079Y-152192202D01*
X89412202Y-152091079D01*
X89531110Y-152011627D01*
X89531112Y-152011626D01*
X89663234Y-151956899D01*
X89803494Y-151929000D01*
X89946506Y-151929000D01*
X90086766Y-151956899D01*
G37*
G36*
X88086766Y-151956899D02*
G01*
X88218888Y-152011626D01*
X88218890Y-152011627D01*
X88337798Y-152091079D01*
X88438921Y-152192202D01*
X88438922Y-152192204D01*
X88518374Y-152311112D01*
X88573101Y-152443234D01*
X88601000Y-152583494D01*
X88601000Y-152726506D01*
X88573101Y-152866766D01*
X88518374Y-152998888D01*
X88518373Y-152998890D01*
X88438921Y-153117798D01*
X88337798Y-153218921D01*
X88218890Y-153298373D01*
X88218889Y-153298374D01*
X88218888Y-153298374D01*
X88086766Y-153353101D01*
X87946506Y-153381000D01*
X87803494Y-153381000D01*
X87663234Y-153353101D01*
X87531112Y-153298374D01*
X87531111Y-153298374D01*
X87531110Y-153298373D01*
X87412202Y-153218921D01*
X87311079Y-153117798D01*
X87231627Y-152998890D01*
X87231626Y-152998888D01*
X87176899Y-152866766D01*
X87149000Y-152726506D01*
X87149000Y-152583494D01*
X87176899Y-152443234D01*
X87231626Y-152311112D01*
X87311078Y-152192204D01*
X87311079Y-152192202D01*
X87412202Y-152091079D01*
X87531110Y-152011627D01*
X87531112Y-152011626D01*
X87663234Y-151956899D01*
X87803494Y-151929000D01*
X87946506Y-151929000D01*
X88086766Y-151956899D01*
G37*
G36*
X86601000Y-153381000D02*
G01*
X85149000Y-153381000D01*
X85149000Y-151929000D01*
X86601000Y-151929000D01*
X86601000Y-153381000D01*
G37*
G36*
X86086766Y-149956899D02*
G01*
X86218888Y-150011626D01*
X86218890Y-150011627D01*
X86337798Y-150091079D01*
X86438921Y-150192202D01*
X86438922Y-150192204D01*
X86518374Y-150311112D01*
X86573101Y-150443234D01*
X86601000Y-150583494D01*
X86601000Y-150726506D01*
X86573101Y-150866766D01*
X86518374Y-150998888D01*
X86518373Y-150998890D01*
X86438921Y-151117798D01*
X86337798Y-151218921D01*
X86218890Y-151298373D01*
X86218889Y-151298374D01*
X86218888Y-151298374D01*
X86086766Y-151353101D01*
X85946506Y-151381000D01*
X85803494Y-151381000D01*
X85663234Y-151353101D01*
X85531112Y-151298374D01*
X85531111Y-151298374D01*
X85531110Y-151298373D01*
X85412202Y-151218921D01*
X85311079Y-151117798D01*
X85231627Y-150998890D01*
X85231626Y-150998888D01*
X85176899Y-150866766D01*
X85149000Y-150726506D01*
X85149000Y-150583494D01*
X85176899Y-150443234D01*
X85231626Y-150311112D01*
X85311078Y-150192204D01*
X85311079Y-150192202D01*
X85412202Y-150091079D01*
X85531110Y-150011627D01*
X85531112Y-150011626D01*
X85663234Y-149956899D01*
X85803494Y-149929000D01*
X85946506Y-149929000D01*
X86086766Y-149956899D01*
G37*
G36*
X88086766Y-149956899D02*
G01*
X88218888Y-150011626D01*
X88218890Y-150011627D01*
X88337798Y-150091079D01*
X88438921Y-150192202D01*
X88438922Y-150192204D01*
X88518374Y-150311112D01*
X88573101Y-150443234D01*
X88601000Y-150583494D01*
X88601000Y-150726506D01*
X88573101Y-150866766D01*
X88518374Y-150998888D01*
X88518373Y-150998890D01*
X88438921Y-151117798D01*
X88337798Y-151218921D01*
X88218890Y-151298373D01*
X88218889Y-151298374D01*
X88218888Y-151298374D01*
X88086766Y-151353101D01*
X87946506Y-151381000D01*
X87803494Y-151381000D01*
X87663234Y-151353101D01*
X87531112Y-151298374D01*
X87531111Y-151298374D01*
X87531110Y-151298373D01*
X87412202Y-151218921D01*
X87311079Y-151117798D01*
X87231627Y-150998890D01*
X87231626Y-150998888D01*
X87176899Y-150866766D01*
X87149000Y-150726506D01*
X87149000Y-150583494D01*
X87176899Y-150443234D01*
X87231626Y-150311112D01*
X87311078Y-150192204D01*
X87311079Y-150192202D01*
X87412202Y-150091079D01*
X87531110Y-150011627D01*
X87531112Y-150011626D01*
X87663234Y-149956899D01*
X87803494Y-149929000D01*
X87946506Y-149929000D01*
X88086766Y-149956899D01*
G37*
G36*
X90086766Y-149956899D02*
G01*
X90218888Y-150011626D01*
X90218890Y-150011627D01*
X90337798Y-150091079D01*
X90438921Y-150192202D01*
X90438922Y-150192204D01*
X90518374Y-150311112D01*
X90573101Y-150443234D01*
X90601000Y-150583494D01*
X90601000Y-150726506D01*
X90573101Y-150866766D01*
X90518374Y-150998888D01*
X90518373Y-150998890D01*
X90438921Y-151117798D01*
X90337798Y-151218921D01*
X90218890Y-151298373D01*
X90218889Y-151298374D01*
X90218888Y-151298374D01*
X90086766Y-151353101D01*
X89946506Y-151381000D01*
X89803494Y-151381000D01*
X89663234Y-151353101D01*
X89531112Y-151298374D01*
X89531111Y-151298374D01*
X89531110Y-151298373D01*
X89412202Y-151218921D01*
X89311079Y-151117798D01*
X89231627Y-150998890D01*
X89231626Y-150998888D01*
X89176899Y-150866766D01*
X89149000Y-150726506D01*
X89149000Y-150583494D01*
X89176899Y-150443234D01*
X89231626Y-150311112D01*
X89311078Y-150192204D01*
X89311079Y-150192202D01*
X89412202Y-150091079D01*
X89531110Y-150011627D01*
X89531112Y-150011626D01*
X89663234Y-149956899D01*
X89803494Y-149929000D01*
X89946506Y-149929000D01*
X90086766Y-149956899D01*
G37*
G36*
X92086766Y-149956899D02*
G01*
X92218888Y-150011626D01*
X92218890Y-150011627D01*
X92337798Y-150091079D01*
X92438921Y-150192202D01*
X92438922Y-150192204D01*
X92518374Y-150311112D01*
X92573101Y-150443234D01*
X92601000Y-150583494D01*
X92601000Y-150726506D01*
X92573101Y-150866766D01*
X92518374Y-150998888D01*
X92518373Y-150998890D01*
X92438921Y-151117798D01*
X92337798Y-151218921D01*
X92218890Y-151298373D01*
X92218889Y-151298374D01*
X92218888Y-151298374D01*
X92086766Y-151353101D01*
X91946506Y-151381000D01*
X91803494Y-151381000D01*
X91663234Y-151353101D01*
X91531112Y-151298374D01*
X91531111Y-151298374D01*
X91531110Y-151298373D01*
X91412202Y-151218921D01*
X91311079Y-151117798D01*
X91231627Y-150998890D01*
X91231626Y-150998888D01*
X91176899Y-150866766D01*
X91149000Y-150726506D01*
X91149000Y-150583494D01*
X91176899Y-150443234D01*
X91231626Y-150311112D01*
X91311078Y-150192204D01*
X91311079Y-150192202D01*
X91412202Y-150091079D01*
X91531110Y-150011627D01*
X91531112Y-150011626D01*
X91663234Y-149956899D01*
X91803494Y-149929000D01*
X91946506Y-149929000D01*
X92086766Y-149956899D01*
G37*
G36*
X94086766Y-149956899D02*
G01*
X94218888Y-150011626D01*
X94218890Y-150011627D01*
X94337798Y-150091079D01*
X94438921Y-150192202D01*
X94438922Y-150192204D01*
X94518374Y-150311112D01*
X94573101Y-150443234D01*
X94601000Y-150583494D01*
X94601000Y-150726506D01*
X94573101Y-150866766D01*
X94518374Y-150998888D01*
X94518373Y-150998890D01*
X94438921Y-151117798D01*
X94337798Y-151218921D01*
X94218890Y-151298373D01*
X94218889Y-151298374D01*
X94218888Y-151298374D01*
X94086766Y-151353101D01*
X93946506Y-151381000D01*
X93803494Y-151381000D01*
X93663234Y-151353101D01*
X93531112Y-151298374D01*
X93531111Y-151298374D01*
X93531110Y-151298373D01*
X93412202Y-151218921D01*
X93311079Y-151117798D01*
X93231627Y-150998890D01*
X93231626Y-150998888D01*
X93176899Y-150866766D01*
X93149000Y-150726506D01*
X93149000Y-150583494D01*
X93176899Y-150443234D01*
X93231626Y-150311112D01*
X93311078Y-150192204D01*
X93311079Y-150192202D01*
X93412202Y-150091079D01*
X93531110Y-150011627D01*
X93531112Y-150011626D01*
X93663234Y-149956899D01*
X93803494Y-149929000D01*
X93946506Y-149929000D01*
X94086766Y-149956899D01*
G37*
G36*
X96086766Y-149956899D02*
G01*
X96218888Y-150011626D01*
X96218890Y-150011627D01*
X96337798Y-150091079D01*
X96438921Y-150192202D01*
X96438922Y-150192204D01*
X96518374Y-150311112D01*
X96573101Y-150443234D01*
X96601000Y-150583494D01*
X96601000Y-150726506D01*
X96573101Y-150866766D01*
X96518374Y-150998888D01*
X96518373Y-150998890D01*
X96438921Y-151117798D01*
X96337798Y-151218921D01*
X96218890Y-151298373D01*
X96218889Y-151298374D01*
X96218888Y-151298374D01*
X96086766Y-151353101D01*
X95946506Y-151381000D01*
X95803494Y-151381000D01*
X95663234Y-151353101D01*
X95531112Y-151298374D01*
X95531111Y-151298374D01*
X95531110Y-151298373D01*
X95412202Y-151218921D01*
X95311079Y-151117798D01*
X95231627Y-150998890D01*
X95231626Y-150998888D01*
X95176899Y-150866766D01*
X95149000Y-150726506D01*
X95149000Y-150583494D01*
X95176899Y-150443234D01*
X95231626Y-150311112D01*
X95311078Y-150192204D01*
X95311079Y-150192202D01*
X95412202Y-150091079D01*
X95531110Y-150011627D01*
X95531112Y-150011626D01*
X95663234Y-149956899D01*
X95803494Y-149929000D01*
X95946506Y-149929000D01*
X96086766Y-149956899D01*
G37*
G36*
X100086766Y-149956899D02*
G01*
X100218888Y-150011626D01*
X100218890Y-150011627D01*
X100337798Y-150091079D01*
X100438921Y-150192202D01*
X100438922Y-150192204D01*
X100518374Y-150311112D01*
X100573101Y-150443234D01*
X100601000Y-150583494D01*
X100601000Y-150726506D01*
X100573101Y-150866766D01*
X100518374Y-150998888D01*
X100518373Y-150998890D01*
X100438921Y-151117798D01*
X100337798Y-151218921D01*
X100218890Y-151298373D01*
X100218889Y-151298374D01*
X100218888Y-151298374D01*
X100086766Y-151353101D01*
X99946506Y-151381000D01*
X99803494Y-151381000D01*
X99663234Y-151353101D01*
X99531112Y-151298374D01*
X99531111Y-151298374D01*
X99531110Y-151298373D01*
X99412202Y-151218921D01*
X99311079Y-151117798D01*
X99231627Y-150998890D01*
X99231626Y-150998888D01*
X99176899Y-150866766D01*
X99149000Y-150726506D01*
X99149000Y-150583494D01*
X99176899Y-150443234D01*
X99231626Y-150311112D01*
X99311078Y-150192204D01*
X99311079Y-150192202D01*
X99412202Y-150091079D01*
X99531110Y-150011627D01*
X99531112Y-150011626D01*
X99663234Y-149956899D01*
X99803494Y-149929000D01*
X99946506Y-149929000D01*
X100086766Y-149956899D01*
G37*
G36*
X98086766Y-149956899D02*
G01*
X98218888Y-150011626D01*
X98218890Y-150011627D01*
X98337798Y-150091079D01*
X98438921Y-150192202D01*
X98438922Y-150192204D01*
X98518374Y-150311112D01*
X98573101Y-150443234D01*
X98601000Y-150583494D01*
X98601000Y-150726506D01*
X98573101Y-150866766D01*
X98518374Y-150998888D01*
X98518373Y-150998890D01*
X98438921Y-151117798D01*
X98337798Y-151218921D01*
X98218890Y-151298373D01*
X98218889Y-151298374D01*
X98218888Y-151298374D01*
X98086766Y-151353101D01*
X97946506Y-151381000D01*
X97803494Y-151381000D01*
X97663234Y-151353101D01*
X97531112Y-151298374D01*
X97531111Y-151298374D01*
X97531110Y-151298373D01*
X97412202Y-151218921D01*
X97311079Y-151117798D01*
X97231627Y-150998890D01*
X97231626Y-150998888D01*
X97176899Y-150866766D01*
X97149000Y-150726506D01*
X97149000Y-150583494D01*
X97176899Y-150443234D01*
X97231626Y-150311112D01*
X97311078Y-150192204D01*
X97311079Y-150192202D01*
X97412202Y-150091079D01*
X97531110Y-150011627D01*
X97531112Y-150011626D01*
X97663234Y-149956899D01*
X97803494Y-149929000D01*
X97946506Y-149929000D01*
X98086766Y-149956899D01*
G37*
G36*
X147786766Y-142136899D02*
G01*
X147918888Y-142191626D01*
X147918890Y-142191627D01*
X148037798Y-142271079D01*
X148138921Y-142372202D01*
X148138922Y-142372204D01*
X148218374Y-142491112D01*
X148273101Y-142623234D01*
X148301000Y-142763494D01*
X148301000Y-142906506D01*
X148273101Y-143046766D01*
X148218374Y-143178888D01*
X148218373Y-143178890D01*
X148138921Y-143297798D01*
X148037798Y-143398921D01*
X147918890Y-143478373D01*
X147918889Y-143478374D01*
X147918888Y-143478374D01*
X147786766Y-143533101D01*
X147646506Y-143561000D01*
X147503494Y-143561000D01*
X147363234Y-143533101D01*
X147231112Y-143478374D01*
X147231111Y-143478374D01*
X147231110Y-143478373D01*
X147112202Y-143398921D01*
X147011079Y-143297798D01*
X146931627Y-143178890D01*
X146931626Y-143178888D01*
X146876899Y-143046766D01*
X146849000Y-142906506D01*
X146849000Y-142763494D01*
X146876899Y-142623234D01*
X146931626Y-142491112D01*
X147011078Y-142372204D01*
X147011079Y-142372202D01*
X147112202Y-142271079D01*
X147231110Y-142191627D01*
X147231112Y-142191626D01*
X147363234Y-142136899D01*
X147503494Y-142109000D01*
X147646506Y-142109000D01*
X147786766Y-142136899D01*
G37*
G36*
X101331000Y-143221000D02*
G01*
X99879000Y-143221000D01*
X99879000Y-141769000D01*
X101331000Y-141769000D01*
X101331000Y-143221000D01*
G37*
G36*
X98816766Y-141796899D02*
G01*
X98948888Y-141851626D01*
X98948890Y-141851627D01*
X99067798Y-141931079D01*
X99168921Y-142032202D01*
X99168922Y-142032204D01*
X99248374Y-142151112D01*
X99303101Y-142283234D01*
X99331000Y-142423494D01*
X99331000Y-142566506D01*
X99303101Y-142706766D01*
X99248374Y-142838888D01*
X99248373Y-142838890D01*
X99168921Y-142957798D01*
X99067798Y-143058921D01*
X98948890Y-143138373D01*
X98948889Y-143138374D01*
X98948888Y-143138374D01*
X98816766Y-143193101D01*
X98676506Y-143221000D01*
X98533494Y-143221000D01*
X98393234Y-143193101D01*
X98261112Y-143138374D01*
X98261111Y-143138374D01*
X98261110Y-143138373D01*
X98142202Y-143058921D01*
X98041079Y-142957798D01*
X97961627Y-142838890D01*
X97961626Y-142838888D01*
X97906899Y-142706766D01*
X97879000Y-142566506D01*
X97879000Y-142423494D01*
X97906899Y-142283234D01*
X97961626Y-142151112D01*
X98041078Y-142032204D01*
X98041079Y-142032202D01*
X98142202Y-141931079D01*
X98261110Y-141851627D01*
X98261112Y-141851626D01*
X98393234Y-141796899D01*
X98533494Y-141769000D01*
X98676506Y-141769000D01*
X98816766Y-141796899D01*
G37*
G36*
X86816766Y-141796899D02*
G01*
X86948888Y-141851626D01*
X86948890Y-141851627D01*
X87067798Y-141931079D01*
X87168921Y-142032202D01*
X87168922Y-142032204D01*
X87248374Y-142151112D01*
X87303101Y-142283234D01*
X87331000Y-142423494D01*
X87331000Y-142566506D01*
X87303101Y-142706766D01*
X87248374Y-142838888D01*
X87248373Y-142838890D01*
X87168921Y-142957798D01*
X87067798Y-143058921D01*
X86948890Y-143138373D01*
X86948889Y-143138374D01*
X86948888Y-143138374D01*
X86816766Y-143193101D01*
X86676506Y-143221000D01*
X86533494Y-143221000D01*
X86393234Y-143193101D01*
X86261112Y-143138374D01*
X86261111Y-143138374D01*
X86261110Y-143138373D01*
X86142202Y-143058921D01*
X86041079Y-142957798D01*
X85961627Y-142838890D01*
X85961626Y-142838888D01*
X85906899Y-142706766D01*
X85879000Y-142566506D01*
X85879000Y-142423494D01*
X85906899Y-142283234D01*
X85961626Y-142151112D01*
X86041078Y-142032204D01*
X86041079Y-142032202D01*
X86142202Y-141931079D01*
X86261110Y-141851627D01*
X86261112Y-141851626D01*
X86393234Y-141796899D01*
X86533494Y-141769000D01*
X86676506Y-141769000D01*
X86816766Y-141796899D01*
G37*
G36*
X88816766Y-141796899D02*
G01*
X88948888Y-141851626D01*
X88948890Y-141851627D01*
X89067798Y-141931079D01*
X89168921Y-142032202D01*
X89168922Y-142032204D01*
X89248374Y-142151112D01*
X89303101Y-142283234D01*
X89331000Y-142423494D01*
X89331000Y-142566506D01*
X89303101Y-142706766D01*
X89248374Y-142838888D01*
X89248373Y-142838890D01*
X89168921Y-142957798D01*
X89067798Y-143058921D01*
X88948890Y-143138373D01*
X88948889Y-143138374D01*
X88948888Y-143138374D01*
X88816766Y-143193101D01*
X88676506Y-143221000D01*
X88533494Y-143221000D01*
X88393234Y-143193101D01*
X88261112Y-143138374D01*
X88261111Y-143138374D01*
X88261110Y-143138373D01*
X88142202Y-143058921D01*
X88041079Y-142957798D01*
X87961627Y-142838890D01*
X87961626Y-142838888D01*
X87906899Y-142706766D01*
X87879000Y-142566506D01*
X87879000Y-142423494D01*
X87906899Y-142283234D01*
X87961626Y-142151112D01*
X88041078Y-142032204D01*
X88041079Y-142032202D01*
X88142202Y-141931079D01*
X88261110Y-141851627D01*
X88261112Y-141851626D01*
X88393234Y-141796899D01*
X88533494Y-141769000D01*
X88676506Y-141769000D01*
X88816766Y-141796899D01*
G37*
G36*
X90816766Y-141796899D02*
G01*
X90948888Y-141851626D01*
X90948890Y-141851627D01*
X91067798Y-141931079D01*
X91168921Y-142032202D01*
X91168922Y-142032204D01*
X91248374Y-142151112D01*
X91303101Y-142283234D01*
X91331000Y-142423494D01*
X91331000Y-142566506D01*
X91303101Y-142706766D01*
X91248374Y-142838888D01*
X91248373Y-142838890D01*
X91168921Y-142957798D01*
X91067798Y-143058921D01*
X90948890Y-143138373D01*
X90948889Y-143138374D01*
X90948888Y-143138374D01*
X90816766Y-143193101D01*
X90676506Y-143221000D01*
X90533494Y-143221000D01*
X90393234Y-143193101D01*
X90261112Y-143138374D01*
X90261111Y-143138374D01*
X90261110Y-143138373D01*
X90142202Y-143058921D01*
X90041079Y-142957798D01*
X89961627Y-142838890D01*
X89961626Y-142838888D01*
X89906899Y-142706766D01*
X89879000Y-142566506D01*
X89879000Y-142423494D01*
X89906899Y-142283234D01*
X89961626Y-142151112D01*
X90041078Y-142032204D01*
X90041079Y-142032202D01*
X90142202Y-141931079D01*
X90261110Y-141851627D01*
X90261112Y-141851626D01*
X90393234Y-141796899D01*
X90533494Y-141769000D01*
X90676506Y-141769000D01*
X90816766Y-141796899D01*
G37*
G36*
X92816766Y-141796899D02*
G01*
X92948888Y-141851626D01*
X92948890Y-141851627D01*
X93067798Y-141931079D01*
X93168921Y-142032202D01*
X93168922Y-142032204D01*
X93248374Y-142151112D01*
X93303101Y-142283234D01*
X93331000Y-142423494D01*
X93331000Y-142566506D01*
X93303101Y-142706766D01*
X93248374Y-142838888D01*
X93248373Y-142838890D01*
X93168921Y-142957798D01*
X93067798Y-143058921D01*
X92948890Y-143138373D01*
X92948889Y-143138374D01*
X92948888Y-143138374D01*
X92816766Y-143193101D01*
X92676506Y-143221000D01*
X92533494Y-143221000D01*
X92393234Y-143193101D01*
X92261112Y-143138374D01*
X92261111Y-143138374D01*
X92261110Y-143138373D01*
X92142202Y-143058921D01*
X92041079Y-142957798D01*
X91961627Y-142838890D01*
X91961626Y-142838888D01*
X91906899Y-142706766D01*
X91879000Y-142566506D01*
X91879000Y-142423494D01*
X91906899Y-142283234D01*
X91961626Y-142151112D01*
X92041078Y-142032204D01*
X92041079Y-142032202D01*
X92142202Y-141931079D01*
X92261110Y-141851627D01*
X92261112Y-141851626D01*
X92393234Y-141796899D01*
X92533494Y-141769000D01*
X92676506Y-141769000D01*
X92816766Y-141796899D01*
G37*
G36*
X94816766Y-141796899D02*
G01*
X94948888Y-141851626D01*
X94948890Y-141851627D01*
X95067798Y-141931079D01*
X95168921Y-142032202D01*
X95168922Y-142032204D01*
X95248374Y-142151112D01*
X95303101Y-142283234D01*
X95331000Y-142423494D01*
X95331000Y-142566506D01*
X95303101Y-142706766D01*
X95248374Y-142838888D01*
X95248373Y-142838890D01*
X95168921Y-142957798D01*
X95067798Y-143058921D01*
X94948890Y-143138373D01*
X94948889Y-143138374D01*
X94948888Y-143138374D01*
X94816766Y-143193101D01*
X94676506Y-143221000D01*
X94533494Y-143221000D01*
X94393234Y-143193101D01*
X94261112Y-143138374D01*
X94261111Y-143138374D01*
X94261110Y-143138373D01*
X94142202Y-143058921D01*
X94041079Y-142957798D01*
X93961627Y-142838890D01*
X93961626Y-142838888D01*
X93906899Y-142706766D01*
X93879000Y-142566506D01*
X93879000Y-142423494D01*
X93906899Y-142283234D01*
X93961626Y-142151112D01*
X94041078Y-142032204D01*
X94041079Y-142032202D01*
X94142202Y-141931079D01*
X94261110Y-141851627D01*
X94261112Y-141851626D01*
X94393234Y-141796899D01*
X94533494Y-141769000D01*
X94676506Y-141769000D01*
X94816766Y-141796899D01*
G37*
G36*
X96816766Y-141796899D02*
G01*
X96948888Y-141851626D01*
X96948890Y-141851627D01*
X97067798Y-141931079D01*
X97168921Y-142032202D01*
X97168922Y-142032204D01*
X97248374Y-142151112D01*
X97303101Y-142283234D01*
X97331000Y-142423494D01*
X97331000Y-142566506D01*
X97303101Y-142706766D01*
X97248374Y-142838888D01*
X97248373Y-142838890D01*
X97168921Y-142957798D01*
X97067798Y-143058921D01*
X96948890Y-143138373D01*
X96948889Y-143138374D01*
X96948888Y-143138374D01*
X96816766Y-143193101D01*
X96676506Y-143221000D01*
X96533494Y-143221000D01*
X96393234Y-143193101D01*
X96261112Y-143138374D01*
X96261111Y-143138374D01*
X96261110Y-143138373D01*
X96142202Y-143058921D01*
X96041079Y-142957798D01*
X95961627Y-142838890D01*
X95961626Y-142838888D01*
X95906899Y-142706766D01*
X95879000Y-142566506D01*
X95879000Y-142423494D01*
X95906899Y-142283234D01*
X95961626Y-142151112D01*
X96041078Y-142032204D01*
X96041079Y-142032202D01*
X96142202Y-141931079D01*
X96261110Y-141851627D01*
X96261112Y-141851626D01*
X96393234Y-141796899D01*
X96533494Y-141769000D01*
X96676506Y-141769000D01*
X96816766Y-141796899D01*
G37*
G36*
X148301000Y-141561000D02*
G01*
X146849000Y-141561000D01*
X146849000Y-140109000D01*
X148301000Y-140109000D01*
X148301000Y-141561000D01*
G37*
G36*
X168994059Y-135512860D02*
G01*
X169130732Y-135569472D01*
X169253735Y-135651660D01*
X169358340Y-135756265D01*
X169440528Y-135879268D01*
X169497140Y-136015941D01*
X169526000Y-136161033D01*
X169526000Y-136308967D01*
X169497140Y-136454059D01*
X169440528Y-136590732D01*
X169358340Y-136713735D01*
X169253735Y-136818340D01*
X169130732Y-136900528D01*
X169130731Y-136900529D01*
X169130730Y-136900529D01*
X168994059Y-136957140D01*
X168848968Y-136986000D01*
X168701032Y-136986000D01*
X168555941Y-136957140D01*
X168419270Y-136900529D01*
X168419269Y-136900529D01*
X168419268Y-136900528D01*
X168296265Y-136818340D01*
X168191660Y-136713735D01*
X168109472Y-136590732D01*
X168052860Y-136454059D01*
X168024000Y-136308967D01*
X168024000Y-136161033D01*
X168052860Y-136015941D01*
X168109472Y-135879268D01*
X168191660Y-135756265D01*
X168296265Y-135651660D01*
X168419268Y-135569472D01*
X168555941Y-135512860D01*
X168701032Y-135484000D01*
X168848968Y-135484000D01*
X168994059Y-135512860D01*
G37*
G36*
X95431000Y-134331000D02*
G01*
X93979000Y-134331000D01*
X93979000Y-132879000D01*
X95431000Y-132879000D01*
X95431000Y-134331000D01*
G37*
G36*
X98916766Y-132906899D02*
G01*
X99048888Y-132961626D01*
X99048890Y-132961627D01*
X99167798Y-133041079D01*
X99268921Y-133142202D01*
X99268922Y-133142204D01*
X99348374Y-133261112D01*
X99403101Y-133393234D01*
X99431000Y-133533494D01*
X99431000Y-133676506D01*
X99403101Y-133816766D01*
X99348374Y-133948888D01*
X99348373Y-133948890D01*
X99268921Y-134067798D01*
X99167798Y-134168921D01*
X99048890Y-134248373D01*
X99048889Y-134248374D01*
X99048888Y-134248374D01*
X98916766Y-134303101D01*
X98776506Y-134331000D01*
X98633494Y-134331000D01*
X98493234Y-134303101D01*
X98361112Y-134248374D01*
X98361111Y-134248374D01*
X98361110Y-134248373D01*
X98242202Y-134168921D01*
X98141079Y-134067798D01*
X98061627Y-133948890D01*
X98061626Y-133948888D01*
X98006899Y-133816766D01*
X97979000Y-133676506D01*
X97979000Y-133533494D01*
X98006899Y-133393234D01*
X98061626Y-133261112D01*
X98141078Y-133142204D01*
X98141079Y-133142202D01*
X98242202Y-133041079D01*
X98361110Y-132961627D01*
X98361112Y-132961626D01*
X98493234Y-132906899D01*
X98633494Y-132879000D01*
X98776506Y-132879000D01*
X98916766Y-132906899D01*
G37*
G36*
X96916766Y-132906899D02*
G01*
X97048888Y-132961626D01*
X97048890Y-132961627D01*
X97167798Y-133041079D01*
X97268921Y-133142202D01*
X97268922Y-133142204D01*
X97348374Y-133261112D01*
X97403101Y-133393234D01*
X97431000Y-133533494D01*
X97431000Y-133676506D01*
X97403101Y-133816766D01*
X97348374Y-133948888D01*
X97348373Y-133948890D01*
X97268921Y-134067798D01*
X97167798Y-134168921D01*
X97048890Y-134248373D01*
X97048889Y-134248374D01*
X97048888Y-134248374D01*
X96916766Y-134303101D01*
X96776506Y-134331000D01*
X96633494Y-134331000D01*
X96493234Y-134303101D01*
X96361112Y-134248374D01*
X96361111Y-134248374D01*
X96361110Y-134248373D01*
X96242202Y-134168921D01*
X96141079Y-134067798D01*
X96061627Y-133948890D01*
X96061626Y-133948888D01*
X96006899Y-133816766D01*
X95979000Y-133676506D01*
X95979000Y-133533494D01*
X96006899Y-133393234D01*
X96061626Y-133261112D01*
X96141078Y-133142204D01*
X96141079Y-133142202D01*
X96242202Y-133041079D01*
X96361110Y-132961627D01*
X96361112Y-132961626D01*
X96493234Y-132906899D01*
X96633494Y-132879000D01*
X96776506Y-132879000D01*
X96916766Y-132906899D01*
G37*
G36*
X98916766Y-130906899D02*
G01*
X99048888Y-130961626D01*
X99048890Y-130961627D01*
X99167798Y-131041079D01*
X99268921Y-131142202D01*
X99326896Y-131228968D01*
X99348374Y-131261112D01*
X99403101Y-131393234D01*
X99431000Y-131533494D01*
X99431000Y-131676506D01*
X99403101Y-131816766D01*
X99348374Y-131948888D01*
X99348373Y-131948890D01*
X99268921Y-132067798D01*
X99167798Y-132168921D01*
X99048890Y-132248373D01*
X99048889Y-132248374D01*
X99048888Y-132248374D01*
X98916766Y-132303101D01*
X98776506Y-132331000D01*
X98633494Y-132331000D01*
X98493234Y-132303101D01*
X98361112Y-132248374D01*
X98361111Y-132248374D01*
X98361110Y-132248373D01*
X98242202Y-132168921D01*
X98141079Y-132067798D01*
X98061627Y-131948890D01*
X98061626Y-131948888D01*
X98006899Y-131816766D01*
X97979000Y-131676506D01*
X97979000Y-131533494D01*
X98006899Y-131393234D01*
X98061626Y-131261112D01*
X98083104Y-131228968D01*
X98141079Y-131142202D01*
X98242202Y-131041079D01*
X98361110Y-130961627D01*
X98361112Y-130961626D01*
X98493234Y-130906899D01*
X98633494Y-130879000D01*
X98776506Y-130879000D01*
X98916766Y-130906899D01*
G37*
G36*
X94916766Y-130906899D02*
G01*
X95048888Y-130961626D01*
X95048890Y-130961627D01*
X95167798Y-131041079D01*
X95268921Y-131142202D01*
X95326896Y-131228968D01*
X95348374Y-131261112D01*
X95403101Y-131393234D01*
X95431000Y-131533494D01*
X95431000Y-131676506D01*
X95403101Y-131816766D01*
X95348374Y-131948888D01*
X95348373Y-131948890D01*
X95268921Y-132067798D01*
X95167798Y-132168921D01*
X95048890Y-132248373D01*
X95048889Y-132248374D01*
X95048888Y-132248374D01*
X94916766Y-132303101D01*
X94776506Y-132331000D01*
X94633494Y-132331000D01*
X94493234Y-132303101D01*
X94361112Y-132248374D01*
X94361111Y-132248374D01*
X94361110Y-132248373D01*
X94242202Y-132168921D01*
X94141079Y-132067798D01*
X94061627Y-131948890D01*
X94061626Y-131948888D01*
X94006899Y-131816766D01*
X93979000Y-131676506D01*
X93979000Y-131533494D01*
X94006899Y-131393234D01*
X94061626Y-131261112D01*
X94083104Y-131228968D01*
X94141079Y-131142202D01*
X94242202Y-131041079D01*
X94361110Y-130961627D01*
X94361112Y-130961626D01*
X94493234Y-130906899D01*
X94633494Y-130879000D01*
X94776506Y-130879000D01*
X94916766Y-130906899D01*
G37*
G36*
X168994059Y-130432860D02*
G01*
X169130732Y-130489472D01*
X169253735Y-130571660D01*
X169358340Y-130676265D01*
X169358341Y-130676267D01*
X169440529Y-130799270D01*
X169497140Y-130935941D01*
X169526000Y-131081032D01*
X169526000Y-131228968D01*
X169519606Y-131261112D01*
X169497140Y-131374059D01*
X169440528Y-131510732D01*
X169358340Y-131633735D01*
X169253735Y-131738340D01*
X169130732Y-131820528D01*
X169130731Y-131820529D01*
X169130730Y-131820529D01*
X168994059Y-131877140D01*
X168848968Y-131906000D01*
X168701032Y-131906000D01*
X168555941Y-131877140D01*
X168419270Y-131820529D01*
X168419269Y-131820529D01*
X168419268Y-131820528D01*
X168296265Y-131738340D01*
X168191660Y-131633735D01*
X168109472Y-131510732D01*
X168052860Y-131374059D01*
X168030394Y-131261112D01*
X168024000Y-131228968D01*
X168024000Y-131081032D01*
X168052860Y-130935941D01*
X168109471Y-130799270D01*
X168191659Y-130676267D01*
X168191660Y-130676265D01*
X168296265Y-130571660D01*
X168419268Y-130489472D01*
X168555941Y-130432860D01*
X168701032Y-130404000D01*
X168848968Y-130404000D01*
X168994059Y-130432860D01*
G37*
G36*
X180316766Y-125316899D02*
G01*
X180448888Y-125371626D01*
X180448890Y-125371627D01*
X180567798Y-125451079D01*
X180668921Y-125552202D01*
X180748373Y-125671110D01*
X180748374Y-125671112D01*
X180803101Y-125803234D01*
X180831000Y-125943494D01*
X180831000Y-126086506D01*
X180803101Y-126226766D01*
X180748374Y-126358888D01*
X180748373Y-126358890D01*
X180668921Y-126477798D01*
X180567798Y-126578921D01*
X180448890Y-126658373D01*
X180448889Y-126658374D01*
X180448888Y-126658374D01*
X180316766Y-126713101D01*
X180176506Y-126741000D01*
X180033494Y-126741000D01*
X179893234Y-126713101D01*
X179761112Y-126658374D01*
X179761111Y-126658374D01*
X179761110Y-126658373D01*
X179642202Y-126578921D01*
X179541079Y-126477798D01*
X179461627Y-126358890D01*
X179461626Y-126358888D01*
X179406899Y-126226766D01*
X179379000Y-126086506D01*
X179379000Y-125943494D01*
X179406899Y-125803234D01*
X179461626Y-125671112D01*
X179461627Y-125671110D01*
X179541079Y-125552202D01*
X179642202Y-125451079D01*
X179761110Y-125371627D01*
X179761112Y-125371626D01*
X179893234Y-125316899D01*
X180033494Y-125289000D01*
X180176506Y-125289000D01*
X180316766Y-125316899D01*
G37*
G36*
X80153228Y-125026703D02*
G01*
X80308100Y-125090853D01*
X80447481Y-125183985D01*
X80566015Y-125302519D01*
X80659147Y-125441900D01*
X80723297Y-125596772D01*
X80756000Y-125761184D01*
X80756000Y-125928816D01*
X80723297Y-126093228D01*
X80659147Y-126248100D01*
X80566015Y-126387481D01*
X80447481Y-126506015D01*
X80308100Y-126599147D01*
X80153228Y-126663297D01*
X79988816Y-126696000D01*
X79821184Y-126696000D01*
X79656772Y-126663297D01*
X79501900Y-126599147D01*
X79362519Y-126506015D01*
X79243985Y-126387481D01*
X79150853Y-126248100D01*
X79086703Y-126093228D01*
X79054000Y-125928816D01*
X79054000Y-125761184D01*
X79086703Y-125596772D01*
X79150853Y-125441900D01*
X79243985Y-125302519D01*
X79362519Y-125183985D01*
X79501900Y-125090853D01*
X79656772Y-125026703D01*
X79821184Y-124994000D01*
X79988816Y-124994000D01*
X80153228Y-125026703D01*
G37*
G36*
X152936000Y-125526000D02*
G01*
X151134000Y-125526000D01*
X151134000Y-123724000D01*
X152936000Y-123724000D01*
X152936000Y-125526000D01*
G37*
G36*
X149608512Y-123728927D02*
G01*
X149757812Y-123758624D01*
X149921784Y-123826544D01*
X150069354Y-123925147D01*
X150194853Y-124050646D01*
X150293456Y-124198216D01*
X150361376Y-124362188D01*
X150396000Y-124536259D01*
X150396000Y-124713741D01*
X150361376Y-124887812D01*
X150293456Y-125051784D01*
X150194853Y-125199354D01*
X150069354Y-125324853D01*
X149921784Y-125423456D01*
X149757812Y-125491376D01*
X149608512Y-125521073D01*
X149583742Y-125526000D01*
X149406258Y-125526000D01*
X149381488Y-125521073D01*
X149232188Y-125491376D01*
X149068216Y-125423456D01*
X148920646Y-125324853D01*
X148795147Y-125199354D01*
X148696544Y-125051784D01*
X148628624Y-124887812D01*
X148594000Y-124713741D01*
X148594000Y-124536259D01*
X148628624Y-124362188D01*
X148696544Y-124198216D01*
X148795147Y-124050646D01*
X148920646Y-123925147D01*
X149068216Y-123826544D01*
X149232188Y-123758624D01*
X149381488Y-123728927D01*
X149406258Y-123724000D01*
X149583742Y-123724000D01*
X149608512Y-123728927D01*
G37*
G36*
X147068512Y-123728927D02*
G01*
X147217812Y-123758624D01*
X147381784Y-123826544D01*
X147529354Y-123925147D01*
X147654853Y-124050646D01*
X147753456Y-124198216D01*
X147821376Y-124362188D01*
X147856000Y-124536259D01*
X147856000Y-124713741D01*
X147821376Y-124887812D01*
X147753456Y-125051784D01*
X147654853Y-125199354D01*
X147529354Y-125324853D01*
X147381784Y-125423456D01*
X147217812Y-125491376D01*
X147068512Y-125521073D01*
X147043742Y-125526000D01*
X146866258Y-125526000D01*
X146841488Y-125521073D01*
X146692188Y-125491376D01*
X146528216Y-125423456D01*
X146380646Y-125324853D01*
X146255147Y-125199354D01*
X146156544Y-125051784D01*
X146088624Y-124887812D01*
X146054000Y-124713741D01*
X146054000Y-124536259D01*
X146088624Y-124362188D01*
X146156544Y-124198216D01*
X146255147Y-124050646D01*
X146380646Y-123925147D01*
X146528216Y-123826544D01*
X146692188Y-123758624D01*
X146841488Y-123728927D01*
X146866258Y-123724000D01*
X147043742Y-123724000D01*
X147068512Y-123728927D01*
G37*
G36*
X144528512Y-123728927D02*
G01*
X144677812Y-123758624D01*
X144841784Y-123826544D01*
X144989354Y-123925147D01*
X145114853Y-124050646D01*
X145213456Y-124198216D01*
X145281376Y-124362188D01*
X145316000Y-124536259D01*
X145316000Y-124713741D01*
X145281376Y-124887812D01*
X145213456Y-125051784D01*
X145114853Y-125199354D01*
X144989354Y-125324853D01*
X144841784Y-125423456D01*
X144677812Y-125491376D01*
X144528512Y-125521073D01*
X144503742Y-125526000D01*
X144326258Y-125526000D01*
X144301488Y-125521073D01*
X144152188Y-125491376D01*
X143988216Y-125423456D01*
X143840646Y-125324853D01*
X143715147Y-125199354D01*
X143616544Y-125051784D01*
X143548624Y-124887812D01*
X143514000Y-124713741D01*
X143514000Y-124536259D01*
X143548624Y-124362188D01*
X143616544Y-124198216D01*
X143715147Y-124050646D01*
X143840646Y-123925147D01*
X143988216Y-123826544D01*
X144152188Y-123758624D01*
X144301488Y-123728927D01*
X144326258Y-123724000D01*
X144503742Y-123724000D01*
X144528512Y-123728927D01*
G37*
G36*
X141988512Y-123728927D02*
G01*
X142137812Y-123758624D01*
X142301784Y-123826544D01*
X142449354Y-123925147D01*
X142574853Y-124050646D01*
X142673456Y-124198216D01*
X142741376Y-124362188D01*
X142776000Y-124536259D01*
X142776000Y-124713741D01*
X142741376Y-124887812D01*
X142673456Y-125051784D01*
X142574853Y-125199354D01*
X142449354Y-125324853D01*
X142301784Y-125423456D01*
X142137812Y-125491376D01*
X141988512Y-125521073D01*
X141963742Y-125526000D01*
X141786258Y-125526000D01*
X141761488Y-125521073D01*
X141612188Y-125491376D01*
X141448216Y-125423456D01*
X141300646Y-125324853D01*
X141175147Y-125199354D01*
X141076544Y-125051784D01*
X141008624Y-124887812D01*
X140974000Y-124713741D01*
X140974000Y-124536259D01*
X141008624Y-124362188D01*
X141076544Y-124198216D01*
X141175147Y-124050646D01*
X141300646Y-123925147D01*
X141448216Y-123826544D01*
X141612188Y-123758624D01*
X141761488Y-123728927D01*
X141786258Y-123724000D01*
X141963742Y-123724000D01*
X141988512Y-123728927D01*
G37*
G36*
X112212395Y-123240546D02*
G01*
X112385466Y-123312234D01*
X112392449Y-123316900D01*
X112541227Y-123416310D01*
X112673690Y-123548773D01*
X112703394Y-123593228D01*
X112777766Y-123704534D01*
X112849454Y-123877605D01*
X112886000Y-124061333D01*
X112886000Y-124248667D01*
X112849454Y-124432395D01*
X112777766Y-124605466D01*
X112777765Y-124605467D01*
X112673690Y-124761227D01*
X112541227Y-124893690D01*
X112462818Y-124946081D01*
X112385466Y-124997766D01*
X112212395Y-125069454D01*
X112028667Y-125106000D01*
X111841333Y-125106000D01*
X111657605Y-125069454D01*
X111484534Y-124997766D01*
X111407182Y-124946081D01*
X111328773Y-124893690D01*
X111196310Y-124761227D01*
X111092235Y-124605467D01*
X111092234Y-124605466D01*
X111020546Y-124432395D01*
X110984000Y-124248667D01*
X110984000Y-124061333D01*
X111020546Y-123877605D01*
X111092234Y-123704534D01*
X111166606Y-123593228D01*
X111196310Y-123548773D01*
X111328773Y-123416310D01*
X111477551Y-123316900D01*
X111484534Y-123312234D01*
X111657605Y-123240546D01*
X111841333Y-123204000D01*
X112028667Y-123204000D01*
X112212395Y-123240546D01*
G37*
G36*
X108812395Y-123240546D02*
G01*
X108985466Y-123312234D01*
X108992449Y-123316900D01*
X109141227Y-123416310D01*
X109273690Y-123548773D01*
X109303394Y-123593228D01*
X109377766Y-123704534D01*
X109449454Y-123877605D01*
X109486000Y-124061333D01*
X109486000Y-124248667D01*
X109449454Y-124432395D01*
X109377766Y-124605466D01*
X109377765Y-124605467D01*
X109273690Y-124761227D01*
X109141227Y-124893690D01*
X109062818Y-124946081D01*
X108985466Y-124997766D01*
X108812395Y-125069454D01*
X108628667Y-125106000D01*
X108441333Y-125106000D01*
X108257605Y-125069454D01*
X108084534Y-124997766D01*
X108007182Y-124946081D01*
X107928773Y-124893690D01*
X107796310Y-124761227D01*
X107692235Y-124605467D01*
X107692234Y-124605466D01*
X107620546Y-124432395D01*
X107584000Y-124248667D01*
X107584000Y-124061333D01*
X107620546Y-123877605D01*
X107692234Y-123704534D01*
X107766606Y-123593228D01*
X107796310Y-123548773D01*
X107928773Y-123416310D01*
X108077551Y-123316900D01*
X108084534Y-123312234D01*
X108257605Y-123240546D01*
X108441333Y-123204000D01*
X108628667Y-123204000D01*
X108812395Y-123240546D01*
G37*
G36*
X105412395Y-123240546D02*
G01*
X105585466Y-123312234D01*
X105592449Y-123316900D01*
X105741227Y-123416310D01*
X105873690Y-123548773D01*
X105903394Y-123593228D01*
X105977766Y-123704534D01*
X106049454Y-123877605D01*
X106086000Y-124061333D01*
X106086000Y-124248667D01*
X106049454Y-124432395D01*
X105977766Y-124605466D01*
X105977765Y-124605467D01*
X105873690Y-124761227D01*
X105741227Y-124893690D01*
X105662818Y-124946081D01*
X105585466Y-124997766D01*
X105412395Y-125069454D01*
X105228667Y-125106000D01*
X105041333Y-125106000D01*
X104857605Y-125069454D01*
X104684534Y-124997766D01*
X104607182Y-124946081D01*
X104528773Y-124893690D01*
X104396310Y-124761227D01*
X104292235Y-124605467D01*
X104292234Y-124605466D01*
X104220546Y-124432395D01*
X104184000Y-124248667D01*
X104184000Y-124061333D01*
X104220546Y-123877605D01*
X104292234Y-123704534D01*
X104366606Y-123593228D01*
X104396310Y-123548773D01*
X104528773Y-123416310D01*
X104677551Y-123316900D01*
X104684534Y-123312234D01*
X104857605Y-123240546D01*
X105041333Y-123204000D01*
X105228667Y-123204000D01*
X105412395Y-123240546D01*
G37*
G36*
X102012395Y-123240546D02*
G01*
X102185466Y-123312234D01*
X102192449Y-123316900D01*
X102341227Y-123416310D01*
X102473690Y-123548773D01*
X102503394Y-123593228D01*
X102577766Y-123704534D01*
X102649454Y-123877605D01*
X102686000Y-124061333D01*
X102686000Y-124248667D01*
X102649454Y-124432395D01*
X102577766Y-124605466D01*
X102577765Y-124605467D01*
X102473690Y-124761227D01*
X102341227Y-124893690D01*
X102262818Y-124946081D01*
X102185466Y-124997766D01*
X102012395Y-125069454D01*
X101828667Y-125106000D01*
X101641333Y-125106000D01*
X101457605Y-125069454D01*
X101284534Y-124997766D01*
X101207182Y-124946081D01*
X101128773Y-124893690D01*
X100996310Y-124761227D01*
X100892235Y-124605467D01*
X100892234Y-124605466D01*
X100820546Y-124432395D01*
X100784000Y-124248667D01*
X100784000Y-124061333D01*
X100820546Y-123877605D01*
X100892234Y-123704534D01*
X100966606Y-123593228D01*
X100996310Y-123548773D01*
X101128773Y-123416310D01*
X101277551Y-123316900D01*
X101284534Y-123312234D01*
X101457605Y-123240546D01*
X101641333Y-123204000D01*
X101828667Y-123204000D01*
X102012395Y-123240546D01*
G37*
G36*
X98612395Y-123240546D02*
G01*
X98785466Y-123312234D01*
X98792449Y-123316900D01*
X98941227Y-123416310D01*
X99073690Y-123548773D01*
X99103394Y-123593228D01*
X99177766Y-123704534D01*
X99249454Y-123877605D01*
X99286000Y-124061333D01*
X99286000Y-124248667D01*
X99249454Y-124432395D01*
X99177766Y-124605466D01*
X99177765Y-124605467D01*
X99073690Y-124761227D01*
X98941227Y-124893690D01*
X98862818Y-124946081D01*
X98785466Y-124997766D01*
X98612395Y-125069454D01*
X98428667Y-125106000D01*
X98241333Y-125106000D01*
X98057605Y-125069454D01*
X97884534Y-124997766D01*
X97807182Y-124946081D01*
X97728773Y-124893690D01*
X97596310Y-124761227D01*
X97492235Y-124605467D01*
X97492234Y-124605466D01*
X97420546Y-124432395D01*
X97384000Y-124248667D01*
X97384000Y-124061333D01*
X97420546Y-123877605D01*
X97492234Y-123704534D01*
X97566606Y-123593228D01*
X97596310Y-123548773D01*
X97728773Y-123416310D01*
X97877551Y-123316900D01*
X97884534Y-123312234D01*
X98057605Y-123240546D01*
X98241333Y-123204000D01*
X98428667Y-123204000D01*
X98612395Y-123240546D01*
G37*
G36*
X95886000Y-125106000D02*
G01*
X93984000Y-125106000D01*
X93984000Y-123204000D01*
X95886000Y-123204000D01*
X95886000Y-125106000D01*
G37*
G36*
X180316766Y-123316899D02*
G01*
X180448888Y-123371626D01*
X180448890Y-123371627D01*
X180567798Y-123451079D01*
X180668921Y-123552202D01*
X180696334Y-123593229D01*
X180748374Y-123671112D01*
X180803101Y-123803234D01*
X180831000Y-123943494D01*
X180831000Y-124086506D01*
X180803101Y-124226766D01*
X180748374Y-124358888D01*
X180748373Y-124358890D01*
X180668921Y-124477798D01*
X180567798Y-124578921D01*
X180448890Y-124658373D01*
X180448889Y-124658374D01*
X180448888Y-124658374D01*
X180316766Y-124713101D01*
X180176506Y-124741000D01*
X180033494Y-124741000D01*
X179893234Y-124713101D01*
X179761112Y-124658374D01*
X179761111Y-124658374D01*
X179761110Y-124658373D01*
X179642202Y-124578921D01*
X179541079Y-124477798D01*
X179461627Y-124358890D01*
X179461626Y-124358888D01*
X179406899Y-124226766D01*
X179379000Y-124086506D01*
X179379000Y-123943494D01*
X179406899Y-123803234D01*
X179461626Y-123671112D01*
X179513666Y-123593229D01*
X179541079Y-123552202D01*
X179642202Y-123451079D01*
X179761110Y-123371627D01*
X179761112Y-123371626D01*
X179893234Y-123316899D01*
X180033494Y-123289000D01*
X180176506Y-123289000D01*
X180316766Y-123316899D01*
G37*
G36*
X80153228Y-122526703D02*
G01*
X80308100Y-122590853D01*
X80447481Y-122683985D01*
X80566015Y-122802519D01*
X80659147Y-122941900D01*
X80723297Y-123096772D01*
X80756000Y-123261184D01*
X80756000Y-123428816D01*
X80723297Y-123593228D01*
X80659147Y-123748100D01*
X80566015Y-123887481D01*
X80447481Y-124006015D01*
X80308100Y-124099147D01*
X80153228Y-124163297D01*
X79988816Y-124196000D01*
X79821184Y-124196000D01*
X79656772Y-124163297D01*
X79501900Y-124099147D01*
X79362519Y-124006015D01*
X79243985Y-123887481D01*
X79150853Y-123748100D01*
X79086703Y-123593228D01*
X79054000Y-123428816D01*
X79054000Y-123261184D01*
X79086703Y-123096772D01*
X79150853Y-122941900D01*
X79243985Y-122802519D01*
X79362519Y-122683985D01*
X79501900Y-122590853D01*
X79656772Y-122526703D01*
X79821184Y-122494000D01*
X79988816Y-122494000D01*
X80153228Y-122526703D01*
G37*
G36*
X161813228Y-121826703D02*
G01*
X161968100Y-121890853D01*
X162107481Y-121983985D01*
X162226015Y-122102519D01*
X162319147Y-122241900D01*
X162383297Y-122396772D01*
X162416000Y-122561184D01*
X162416000Y-122728816D01*
X162383297Y-122893228D01*
X162319147Y-123048100D01*
X162226015Y-123187481D01*
X162107481Y-123306015D01*
X161968100Y-123399147D01*
X161813228Y-123463297D01*
X161648816Y-123496000D01*
X161481184Y-123496000D01*
X161316772Y-123463297D01*
X161161900Y-123399147D01*
X161022519Y-123306015D01*
X160903985Y-123187481D01*
X160810853Y-123048100D01*
X160746703Y-122893228D01*
X160714000Y-122728816D01*
X160714000Y-122561184D01*
X160746703Y-122396772D01*
X160810853Y-122241900D01*
X160903985Y-122102519D01*
X161022519Y-121983985D01*
X161161900Y-121890853D01*
X161316772Y-121826703D01*
X161481184Y-121794000D01*
X161648816Y-121794000D01*
X161813228Y-121826703D01*
G37*
G36*
X164313228Y-121826703D02*
G01*
X164468100Y-121890853D01*
X164607481Y-121983985D01*
X164726015Y-122102519D01*
X164819147Y-122241900D01*
X164883297Y-122396772D01*
X164916000Y-122561184D01*
X164916000Y-122728816D01*
X164883297Y-122893228D01*
X164819147Y-123048100D01*
X164726015Y-123187481D01*
X164607481Y-123306015D01*
X164468100Y-123399147D01*
X164313228Y-123463297D01*
X164148816Y-123496000D01*
X163981184Y-123496000D01*
X163816772Y-123463297D01*
X163661900Y-123399147D01*
X163522519Y-123306015D01*
X163403985Y-123187481D01*
X163310853Y-123048100D01*
X163246703Y-122893228D01*
X163214000Y-122728816D01*
X163214000Y-122561184D01*
X163246703Y-122396772D01*
X163310853Y-122241900D01*
X163403985Y-122102519D01*
X163522519Y-121983985D01*
X163661900Y-121890853D01*
X163816772Y-121826703D01*
X163981184Y-121794000D01*
X164148816Y-121794000D01*
X164313228Y-121826703D01*
G37*
G36*
X180316766Y-121316899D02*
G01*
X180448888Y-121371626D01*
X180448890Y-121371627D01*
X180567798Y-121451079D01*
X180668921Y-121552202D01*
X180668922Y-121552204D01*
X180748374Y-121671112D01*
X180803101Y-121803234D01*
X180831000Y-121943494D01*
X180831000Y-122086506D01*
X180803101Y-122226766D01*
X180748374Y-122358888D01*
X180748373Y-122358890D01*
X180668921Y-122477798D01*
X180567798Y-122578921D01*
X180448890Y-122658373D01*
X180448889Y-122658374D01*
X180448888Y-122658374D01*
X180316766Y-122713101D01*
X180176506Y-122741000D01*
X180033494Y-122741000D01*
X179893234Y-122713101D01*
X179761112Y-122658374D01*
X179761111Y-122658374D01*
X179761110Y-122658373D01*
X179642202Y-122578921D01*
X179541079Y-122477798D01*
X179461627Y-122358890D01*
X179461626Y-122358888D01*
X179406899Y-122226766D01*
X179379000Y-122086506D01*
X179379000Y-121943494D01*
X179406899Y-121803234D01*
X179461626Y-121671112D01*
X179541078Y-121552204D01*
X179541079Y-121552202D01*
X179642202Y-121451079D01*
X179761110Y-121371627D01*
X179761112Y-121371626D01*
X179893234Y-121316899D01*
X180033494Y-121289000D01*
X180176506Y-121289000D01*
X180316766Y-121316899D01*
G37*
G36*
X180316766Y-119316899D02*
G01*
X180448888Y-119371626D01*
X180448890Y-119371627D01*
X180567798Y-119451079D01*
X180668921Y-119552202D01*
X180668922Y-119552204D01*
X180748374Y-119671112D01*
X180803101Y-119803234D01*
X180831000Y-119943494D01*
X180831000Y-120086506D01*
X180803101Y-120226766D01*
X180748374Y-120358888D01*
X180748373Y-120358890D01*
X180668921Y-120477798D01*
X180567798Y-120578921D01*
X180448890Y-120658373D01*
X180448889Y-120658374D01*
X180448888Y-120658374D01*
X180316766Y-120713101D01*
X180176506Y-120741000D01*
X180033494Y-120741000D01*
X179893234Y-120713101D01*
X179761112Y-120658374D01*
X179761111Y-120658374D01*
X179761110Y-120658373D01*
X179642202Y-120578921D01*
X179541079Y-120477798D01*
X179461627Y-120358890D01*
X179461626Y-120358888D01*
X179406899Y-120226766D01*
X179379000Y-120086506D01*
X179379000Y-119943494D01*
X179406899Y-119803234D01*
X179461626Y-119671112D01*
X179541078Y-119552204D01*
X179541079Y-119552202D01*
X179642202Y-119451079D01*
X179761110Y-119371627D01*
X179761112Y-119371626D01*
X179893234Y-119316899D01*
X180033494Y-119289000D01*
X180176506Y-119289000D01*
X180316766Y-119316899D01*
G37*
G36*
X154673228Y-118816703D02*
G01*
X154828100Y-118880853D01*
X154967481Y-118973985D01*
X155086015Y-119092519D01*
X155179147Y-119231900D01*
X155243297Y-119386772D01*
X155276000Y-119551184D01*
X155276000Y-119718816D01*
X155243297Y-119883228D01*
X155179147Y-120038100D01*
X155086015Y-120177481D01*
X154967481Y-120296015D01*
X154828100Y-120389147D01*
X154673228Y-120453297D01*
X154508816Y-120486000D01*
X154341184Y-120486000D01*
X154176772Y-120453297D01*
X154021900Y-120389147D01*
X153882519Y-120296015D01*
X153763985Y-120177481D01*
X153670853Y-120038100D01*
X153606703Y-119883228D01*
X153574000Y-119718816D01*
X153574000Y-119551184D01*
X153606703Y-119386772D01*
X153670853Y-119231900D01*
X153763985Y-119092519D01*
X153882519Y-118973985D01*
X154021900Y-118880853D01*
X154176772Y-118816703D01*
X154341184Y-118784000D01*
X154508816Y-118784000D01*
X154673228Y-118816703D01*
G37*
G36*
X152133228Y-118816703D02*
G01*
X152288100Y-118880853D01*
X152427481Y-118973985D01*
X152546015Y-119092519D01*
X152639147Y-119231900D01*
X152703297Y-119386772D01*
X152736000Y-119551184D01*
X152736000Y-119718816D01*
X152703297Y-119883228D01*
X152639147Y-120038100D01*
X152546015Y-120177481D01*
X152427481Y-120296015D01*
X152288100Y-120389147D01*
X152133228Y-120453297D01*
X151968816Y-120486000D01*
X151801184Y-120486000D01*
X151636772Y-120453297D01*
X151481900Y-120389147D01*
X151342519Y-120296015D01*
X151223985Y-120177481D01*
X151130853Y-120038100D01*
X151066703Y-119883228D01*
X151034000Y-119718816D01*
X151034000Y-119551184D01*
X151066703Y-119386772D01*
X151130853Y-119231900D01*
X151223985Y-119092519D01*
X151342519Y-118973985D01*
X151481900Y-118880853D01*
X151636772Y-118816703D01*
X151801184Y-118784000D01*
X151968816Y-118784000D01*
X152133228Y-118816703D01*
G37*
G36*
X149593228Y-118816703D02*
G01*
X149748100Y-118880853D01*
X149887481Y-118973985D01*
X150006015Y-119092519D01*
X150099147Y-119231900D01*
X150163297Y-119386772D01*
X150196000Y-119551184D01*
X150196000Y-119718816D01*
X150163297Y-119883228D01*
X150099147Y-120038100D01*
X150006015Y-120177481D01*
X149887481Y-120296015D01*
X149748100Y-120389147D01*
X149593228Y-120453297D01*
X149428816Y-120486000D01*
X149261184Y-120486000D01*
X149096772Y-120453297D01*
X148941900Y-120389147D01*
X148802519Y-120296015D01*
X148683985Y-120177481D01*
X148590853Y-120038100D01*
X148526703Y-119883228D01*
X148494000Y-119718816D01*
X148494000Y-119551184D01*
X148526703Y-119386772D01*
X148590853Y-119231900D01*
X148683985Y-119092519D01*
X148802519Y-118973985D01*
X148941900Y-118880853D01*
X149096772Y-118816703D01*
X149261184Y-118784000D01*
X149428816Y-118784000D01*
X149593228Y-118816703D01*
G37*
G36*
X147053228Y-118816703D02*
G01*
X147208100Y-118880853D01*
X147347481Y-118973985D01*
X147466015Y-119092519D01*
X147559147Y-119231900D01*
X147623297Y-119386772D01*
X147656000Y-119551184D01*
X147656000Y-119718816D01*
X147623297Y-119883228D01*
X147559147Y-120038100D01*
X147466015Y-120177481D01*
X147347481Y-120296015D01*
X147208100Y-120389147D01*
X147053228Y-120453297D01*
X146888816Y-120486000D01*
X146721184Y-120486000D01*
X146556772Y-120453297D01*
X146401900Y-120389147D01*
X146262519Y-120296015D01*
X146143985Y-120177481D01*
X146050853Y-120038100D01*
X145986703Y-119883228D01*
X145954000Y-119718816D01*
X145954000Y-119551184D01*
X145986703Y-119386772D01*
X146050853Y-119231900D01*
X146143985Y-119092519D01*
X146262519Y-118973985D01*
X146401900Y-118880853D01*
X146556772Y-118816703D01*
X146721184Y-118784000D01*
X146888816Y-118784000D01*
X147053228Y-118816703D01*
G37*
G36*
X144513228Y-118816703D02*
G01*
X144668100Y-118880853D01*
X144807481Y-118973985D01*
X144926015Y-119092519D01*
X145019147Y-119231900D01*
X145083297Y-119386772D01*
X145116000Y-119551184D01*
X145116000Y-119718816D01*
X145083297Y-119883228D01*
X145019147Y-120038100D01*
X144926015Y-120177481D01*
X144807481Y-120296015D01*
X144668100Y-120389147D01*
X144513228Y-120453297D01*
X144348816Y-120486000D01*
X144181184Y-120486000D01*
X144016772Y-120453297D01*
X143861900Y-120389147D01*
X143722519Y-120296015D01*
X143603985Y-120177481D01*
X143510853Y-120038100D01*
X143446703Y-119883228D01*
X143414000Y-119718816D01*
X143414000Y-119551184D01*
X143446703Y-119386772D01*
X143510853Y-119231900D01*
X143603985Y-119092519D01*
X143722519Y-118973985D01*
X143861900Y-118880853D01*
X144016772Y-118816703D01*
X144181184Y-118784000D01*
X144348816Y-118784000D01*
X144513228Y-118816703D01*
G37*
G36*
X141973228Y-118816703D02*
G01*
X142128100Y-118880853D01*
X142267481Y-118973985D01*
X142386015Y-119092519D01*
X142479147Y-119231900D01*
X142543297Y-119386772D01*
X142576000Y-119551184D01*
X142576000Y-119718816D01*
X142543297Y-119883228D01*
X142479147Y-120038100D01*
X142386015Y-120177481D01*
X142267481Y-120296015D01*
X142128100Y-120389147D01*
X141973228Y-120453297D01*
X141808816Y-120486000D01*
X141641184Y-120486000D01*
X141476772Y-120453297D01*
X141321900Y-120389147D01*
X141182519Y-120296015D01*
X141063985Y-120177481D01*
X140970853Y-120038100D01*
X140906703Y-119883228D01*
X140874000Y-119718816D01*
X140874000Y-119551184D01*
X140906703Y-119386772D01*
X140970853Y-119231900D01*
X141063985Y-119092519D01*
X141182519Y-118973985D01*
X141321900Y-118880853D01*
X141476772Y-118816703D01*
X141641184Y-118784000D01*
X141808816Y-118784000D01*
X141973228Y-118816703D01*
G37*
G36*
X157213228Y-118816703D02*
G01*
X157368100Y-118880853D01*
X157507481Y-118973985D01*
X157626015Y-119092519D01*
X157719147Y-119231900D01*
X157783297Y-119386772D01*
X157816000Y-119551184D01*
X157816000Y-119718816D01*
X157783297Y-119883228D01*
X157719147Y-120038100D01*
X157626015Y-120177481D01*
X157507481Y-120296015D01*
X157368100Y-120389147D01*
X157213228Y-120453297D01*
X157048816Y-120486000D01*
X156881184Y-120486000D01*
X156716772Y-120453297D01*
X156561900Y-120389147D01*
X156422519Y-120296015D01*
X156303985Y-120177481D01*
X156210853Y-120038100D01*
X156146703Y-119883228D01*
X156114000Y-119718816D01*
X156114000Y-119551184D01*
X156146703Y-119386772D01*
X156210853Y-119231900D01*
X156303985Y-119092519D01*
X156422519Y-118973985D01*
X156561900Y-118880853D01*
X156716772Y-118816703D01*
X156881184Y-118784000D01*
X157048816Y-118784000D01*
X157213228Y-118816703D01*
G37*
G36*
X100312395Y-118160546D02*
G01*
X100485466Y-118232234D01*
X100485467Y-118232235D01*
X100641227Y-118336310D01*
X100773690Y-118468773D01*
X100773691Y-118468775D01*
X100877766Y-118624534D01*
X100949454Y-118797605D01*
X100986000Y-118981333D01*
X100986000Y-119168667D01*
X100949454Y-119352395D01*
X100877766Y-119525466D01*
X100859900Y-119552204D01*
X100773690Y-119681227D01*
X100641227Y-119813690D01*
X100562818Y-119866081D01*
X100485466Y-119917766D01*
X100312395Y-119989454D01*
X100128667Y-120026000D01*
X99941333Y-120026000D01*
X99757605Y-119989454D01*
X99584534Y-119917766D01*
X99507182Y-119866081D01*
X99428773Y-119813690D01*
X99296310Y-119681227D01*
X99210100Y-119552204D01*
X99192234Y-119525466D01*
X99120546Y-119352395D01*
X99084000Y-119168667D01*
X99084000Y-118981333D01*
X99120546Y-118797605D01*
X99192234Y-118624534D01*
X99296309Y-118468775D01*
X99296310Y-118468773D01*
X99428773Y-118336310D01*
X99584533Y-118232235D01*
X99584534Y-118232234D01*
X99757605Y-118160546D01*
X99941333Y-118124000D01*
X100128667Y-118124000D01*
X100312395Y-118160546D01*
G37*
G36*
X96912395Y-118160546D02*
G01*
X97085466Y-118232234D01*
X97085467Y-118232235D01*
X97241227Y-118336310D01*
X97373690Y-118468773D01*
X97373691Y-118468775D01*
X97477766Y-118624534D01*
X97549454Y-118797605D01*
X97586000Y-118981333D01*
X97586000Y-119168667D01*
X97549454Y-119352395D01*
X97477766Y-119525466D01*
X97459900Y-119552204D01*
X97373690Y-119681227D01*
X97241227Y-119813690D01*
X97162818Y-119866081D01*
X97085466Y-119917766D01*
X96912395Y-119989454D01*
X96728667Y-120026000D01*
X96541333Y-120026000D01*
X96357605Y-119989454D01*
X96184534Y-119917766D01*
X96107182Y-119866081D01*
X96028773Y-119813690D01*
X95896310Y-119681227D01*
X95810100Y-119552204D01*
X95792234Y-119525466D01*
X95720546Y-119352395D01*
X95684000Y-119168667D01*
X95684000Y-118981333D01*
X95720546Y-118797605D01*
X95792234Y-118624534D01*
X95896309Y-118468775D01*
X95896310Y-118468773D01*
X96028773Y-118336310D01*
X96184533Y-118232235D01*
X96184534Y-118232234D01*
X96357605Y-118160546D01*
X96541333Y-118124000D01*
X96728667Y-118124000D01*
X96912395Y-118160546D01*
G37*
G36*
X103712395Y-118160546D02*
G01*
X103885466Y-118232234D01*
X103885467Y-118232235D01*
X104041227Y-118336310D01*
X104173690Y-118468773D01*
X104173691Y-118468775D01*
X104277766Y-118624534D01*
X104349454Y-118797605D01*
X104386000Y-118981333D01*
X104386000Y-119168667D01*
X104349454Y-119352395D01*
X104277766Y-119525466D01*
X104259900Y-119552204D01*
X104173690Y-119681227D01*
X104041227Y-119813690D01*
X103962818Y-119866081D01*
X103885466Y-119917766D01*
X103712395Y-119989454D01*
X103528667Y-120026000D01*
X103341333Y-120026000D01*
X103157605Y-119989454D01*
X102984534Y-119917766D01*
X102907182Y-119866081D01*
X102828773Y-119813690D01*
X102696310Y-119681227D01*
X102610100Y-119552204D01*
X102592234Y-119525466D01*
X102520546Y-119352395D01*
X102484000Y-119168667D01*
X102484000Y-118981333D01*
X102520546Y-118797605D01*
X102592234Y-118624534D01*
X102696309Y-118468775D01*
X102696310Y-118468773D01*
X102828773Y-118336310D01*
X102984533Y-118232235D01*
X102984534Y-118232234D01*
X103157605Y-118160546D01*
X103341333Y-118124000D01*
X103528667Y-118124000D01*
X103712395Y-118160546D01*
G37*
G36*
X107112395Y-118160546D02*
G01*
X107285466Y-118232234D01*
X107285467Y-118232235D01*
X107441227Y-118336310D01*
X107573690Y-118468773D01*
X107573691Y-118468775D01*
X107677766Y-118624534D01*
X107749454Y-118797605D01*
X107786000Y-118981333D01*
X107786000Y-119168667D01*
X107749454Y-119352395D01*
X107677766Y-119525466D01*
X107659900Y-119552204D01*
X107573690Y-119681227D01*
X107441227Y-119813690D01*
X107362818Y-119866081D01*
X107285466Y-119917766D01*
X107112395Y-119989454D01*
X106928667Y-120026000D01*
X106741333Y-120026000D01*
X106557605Y-119989454D01*
X106384534Y-119917766D01*
X106307182Y-119866081D01*
X106228773Y-119813690D01*
X106096310Y-119681227D01*
X106010100Y-119552204D01*
X105992234Y-119525466D01*
X105920546Y-119352395D01*
X105884000Y-119168667D01*
X105884000Y-118981333D01*
X105920546Y-118797605D01*
X105992234Y-118624534D01*
X106096309Y-118468775D01*
X106096310Y-118468773D01*
X106228773Y-118336310D01*
X106384533Y-118232235D01*
X106384534Y-118232234D01*
X106557605Y-118160546D01*
X106741333Y-118124000D01*
X106928667Y-118124000D01*
X107112395Y-118160546D01*
G37*
G36*
X110512395Y-118160546D02*
G01*
X110685466Y-118232234D01*
X110685467Y-118232235D01*
X110841227Y-118336310D01*
X110973690Y-118468773D01*
X110973691Y-118468775D01*
X111077766Y-118624534D01*
X111149454Y-118797605D01*
X111186000Y-118981333D01*
X111186000Y-119168667D01*
X111149454Y-119352395D01*
X111077766Y-119525466D01*
X111059900Y-119552204D01*
X110973690Y-119681227D01*
X110841227Y-119813690D01*
X110762818Y-119866081D01*
X110685466Y-119917766D01*
X110512395Y-119989454D01*
X110328667Y-120026000D01*
X110141333Y-120026000D01*
X109957605Y-119989454D01*
X109784534Y-119917766D01*
X109707182Y-119866081D01*
X109628773Y-119813690D01*
X109496310Y-119681227D01*
X109410100Y-119552204D01*
X109392234Y-119525466D01*
X109320546Y-119352395D01*
X109284000Y-119168667D01*
X109284000Y-118981333D01*
X109320546Y-118797605D01*
X109392234Y-118624534D01*
X109496309Y-118468775D01*
X109496310Y-118468773D01*
X109628773Y-118336310D01*
X109784533Y-118232235D01*
X109784534Y-118232234D01*
X109957605Y-118160546D01*
X110141333Y-118124000D01*
X110328667Y-118124000D01*
X110512395Y-118160546D01*
G37*
G36*
X180316766Y-117316899D02*
G01*
X180448888Y-117371626D01*
X180448890Y-117371627D01*
X180567798Y-117451079D01*
X180668921Y-117552202D01*
X180668922Y-117552204D01*
X180748374Y-117671112D01*
X180803101Y-117803234D01*
X180831000Y-117943494D01*
X180831000Y-118086506D01*
X180803101Y-118226766D01*
X180757726Y-118336310D01*
X180748373Y-118358890D01*
X180668921Y-118477798D01*
X180567798Y-118578921D01*
X180448890Y-118658373D01*
X180448889Y-118658374D01*
X180448888Y-118658374D01*
X180316766Y-118713101D01*
X180176506Y-118741000D01*
X180033494Y-118741000D01*
X179893234Y-118713101D01*
X179761112Y-118658374D01*
X179761111Y-118658374D01*
X179761110Y-118658373D01*
X179642202Y-118578921D01*
X179541079Y-118477798D01*
X179461627Y-118358890D01*
X179452274Y-118336310D01*
X179406899Y-118226766D01*
X179379000Y-118086506D01*
X179379000Y-117943494D01*
X179406899Y-117803234D01*
X179461626Y-117671112D01*
X179541078Y-117552204D01*
X179541079Y-117552202D01*
X179642202Y-117451079D01*
X179761110Y-117371627D01*
X179761112Y-117371626D01*
X179893234Y-117316899D01*
X180033494Y-117289000D01*
X180176506Y-117289000D01*
X180316766Y-117316899D01*
G37*
G36*
X168244059Y-115632860D02*
G01*
X168336403Y-115671110D01*
X168380732Y-115689472D01*
X168503735Y-115771660D01*
X168608340Y-115876265D01*
X168690528Y-115999268D01*
X168690529Y-115999270D01*
X168747140Y-116135941D01*
X168776000Y-116281032D01*
X168776000Y-116428968D01*
X168747140Y-116574059D01*
X168712216Y-116658374D01*
X168690528Y-116710732D01*
X168608340Y-116833735D01*
X168503735Y-116938340D01*
X168380732Y-117020528D01*
X168380731Y-117020529D01*
X168380730Y-117020529D01*
X168244059Y-117077140D01*
X168098968Y-117106000D01*
X167951032Y-117106000D01*
X167805941Y-117077140D01*
X167669270Y-117020529D01*
X167669269Y-117020529D01*
X167669268Y-117020528D01*
X167546265Y-116938340D01*
X167441660Y-116833735D01*
X167359472Y-116710732D01*
X167337785Y-116658374D01*
X167302860Y-116574059D01*
X167274000Y-116428968D01*
X167274000Y-116281032D01*
X167302860Y-116135941D01*
X167359471Y-115999270D01*
X167359472Y-115999268D01*
X167441660Y-115876265D01*
X167546265Y-115771660D01*
X167669268Y-115689472D01*
X167713598Y-115671110D01*
X167805941Y-115632860D01*
X167951032Y-115604000D01*
X168098968Y-115604000D01*
X168244059Y-115632860D01*
G37*
G36*
X173324059Y-115632860D02*
G01*
X173416403Y-115671110D01*
X173460732Y-115689472D01*
X173583735Y-115771660D01*
X173688340Y-115876265D01*
X173770528Y-115999268D01*
X173770529Y-115999270D01*
X173827140Y-116135941D01*
X173856000Y-116281032D01*
X173856000Y-116428968D01*
X173827140Y-116574059D01*
X173792216Y-116658374D01*
X173770528Y-116710732D01*
X173688340Y-116833735D01*
X173583735Y-116938340D01*
X173460732Y-117020528D01*
X173460731Y-117020529D01*
X173460730Y-117020529D01*
X173324059Y-117077140D01*
X173178968Y-117106000D01*
X173031032Y-117106000D01*
X172885941Y-117077140D01*
X172749270Y-117020529D01*
X172749269Y-117020529D01*
X172749268Y-117020528D01*
X172626265Y-116938340D01*
X172521660Y-116833735D01*
X172439472Y-116710732D01*
X172417785Y-116658374D01*
X172382860Y-116574059D01*
X172354000Y-116428968D01*
X172354000Y-116281032D01*
X172382860Y-116135941D01*
X172439471Y-115999270D01*
X172439472Y-115999268D01*
X172521660Y-115876265D01*
X172626265Y-115771660D01*
X172749268Y-115689472D01*
X172793598Y-115671110D01*
X172885941Y-115632860D01*
X173031032Y-115604000D01*
X173178968Y-115604000D01*
X173324059Y-115632860D01*
G37*
G36*
X180316766Y-115316899D02*
G01*
X180448888Y-115371626D01*
X180448890Y-115371627D01*
X180567798Y-115451079D01*
X180668921Y-115552202D01*
X180668922Y-115552204D01*
X180748374Y-115671112D01*
X180803101Y-115803234D01*
X180831000Y-115943494D01*
X180831000Y-116086506D01*
X180803101Y-116226766D01*
X180748374Y-116358888D01*
X180748373Y-116358890D01*
X180668921Y-116477798D01*
X180567798Y-116578921D01*
X180448890Y-116658373D01*
X180448889Y-116658374D01*
X180448888Y-116658374D01*
X180316766Y-116713101D01*
X180176506Y-116741000D01*
X180033494Y-116741000D01*
X179893234Y-116713101D01*
X179761112Y-116658374D01*
X179761111Y-116658374D01*
X179761110Y-116658373D01*
X179642202Y-116578921D01*
X179541079Y-116477798D01*
X179461627Y-116358890D01*
X179461626Y-116358888D01*
X179406899Y-116226766D01*
X179379000Y-116086506D01*
X179379000Y-115943494D01*
X179406899Y-115803234D01*
X179461626Y-115671112D01*
X179541078Y-115552204D01*
X179541079Y-115552202D01*
X179642202Y-115451079D01*
X179761110Y-115371627D01*
X179761112Y-115371626D01*
X179893234Y-115316899D01*
X180033494Y-115289000D01*
X180176506Y-115289000D01*
X180316766Y-115316899D01*
G37*
G36*
X180316766Y-113316899D02*
G01*
X180448888Y-113371626D01*
X180448890Y-113371627D01*
X180567798Y-113451079D01*
X180668921Y-113552202D01*
X180748373Y-113671110D01*
X180748374Y-113671112D01*
X180803101Y-113803234D01*
X180831000Y-113943494D01*
X180831000Y-114086506D01*
X180803101Y-114226766D01*
X180775362Y-114293733D01*
X180748373Y-114358890D01*
X180668921Y-114477798D01*
X180567798Y-114578921D01*
X180448890Y-114658373D01*
X180448889Y-114658374D01*
X180448888Y-114658374D01*
X180316766Y-114713101D01*
X180176506Y-114741000D01*
X180033494Y-114741000D01*
X179893234Y-114713101D01*
X179761112Y-114658374D01*
X179761111Y-114658374D01*
X179761110Y-114658373D01*
X179642202Y-114578921D01*
X179541079Y-114477798D01*
X179461627Y-114358890D01*
X179434638Y-114293733D01*
X179406899Y-114226766D01*
X179379000Y-114086506D01*
X179379000Y-113943494D01*
X179406899Y-113803234D01*
X179461626Y-113671112D01*
X179461627Y-113671110D01*
X179541079Y-113552202D01*
X179642202Y-113451079D01*
X179761110Y-113371627D01*
X179761112Y-113371626D01*
X179893234Y-113316899D01*
X180033494Y-113289000D01*
X180176506Y-113289000D01*
X180316766Y-113316899D01*
G37*
G36*
X124384059Y-113092860D02*
G01*
X124520732Y-113149472D01*
X124643735Y-113231660D01*
X124748340Y-113336265D01*
X124825056Y-113451079D01*
X124830529Y-113459270D01*
X124887140Y-113595941D01*
X124916000Y-113741033D01*
X124916000Y-113888967D01*
X124887140Y-114034059D01*
X124830528Y-114170732D01*
X124748340Y-114293735D01*
X124643735Y-114398340D01*
X124520732Y-114480528D01*
X124520731Y-114480529D01*
X124520730Y-114480529D01*
X124384059Y-114537140D01*
X124238968Y-114566000D01*
X124091032Y-114566000D01*
X123945941Y-114537140D01*
X123809270Y-114480529D01*
X123809269Y-114480529D01*
X123809268Y-114480528D01*
X123686265Y-114398340D01*
X123581660Y-114293735D01*
X123499472Y-114170732D01*
X123442860Y-114034059D01*
X123414000Y-113888967D01*
X123414000Y-113741033D01*
X123442860Y-113595941D01*
X123499471Y-113459270D01*
X123504944Y-113451079D01*
X123581660Y-113336265D01*
X123686265Y-113231660D01*
X123809268Y-113149472D01*
X123945941Y-113092860D01*
X124091032Y-113064000D01*
X124238968Y-113064000D01*
X124384059Y-113092860D01*
G37*
G36*
X129464059Y-113092860D02*
G01*
X129600732Y-113149472D01*
X129723735Y-113231660D01*
X129828340Y-113336265D01*
X129905056Y-113451079D01*
X129910529Y-113459270D01*
X129967140Y-113595941D01*
X129996000Y-113741033D01*
X129996000Y-113888967D01*
X129967140Y-114034059D01*
X129910528Y-114170732D01*
X129828340Y-114293735D01*
X129723735Y-114398340D01*
X129600732Y-114480528D01*
X129600731Y-114480529D01*
X129600730Y-114480529D01*
X129464059Y-114537140D01*
X129318968Y-114566000D01*
X129171032Y-114566000D01*
X129025941Y-114537140D01*
X128889270Y-114480529D01*
X128889269Y-114480529D01*
X128889268Y-114480528D01*
X128766265Y-114398340D01*
X128661660Y-114293735D01*
X128579472Y-114170732D01*
X128522860Y-114034059D01*
X128494000Y-113888967D01*
X128494000Y-113741033D01*
X128522860Y-113595941D01*
X128579471Y-113459270D01*
X128584944Y-113451079D01*
X128661660Y-113336265D01*
X128766265Y-113231660D01*
X128889268Y-113149472D01*
X129025941Y-113092860D01*
X129171032Y-113064000D01*
X129318968Y-113064000D01*
X129464059Y-113092860D01*
G37*
G36*
X144513228Y-111196703D02*
G01*
X144668100Y-111260853D01*
X144807481Y-111353985D01*
X144926015Y-111472519D01*
X145019147Y-111611900D01*
X145083297Y-111766772D01*
X145116000Y-111931184D01*
X145116000Y-112098816D01*
X145083297Y-112263228D01*
X145019147Y-112418100D01*
X144926015Y-112557481D01*
X144807481Y-112676015D01*
X144668100Y-112769147D01*
X144513228Y-112833297D01*
X144348816Y-112866000D01*
X144181184Y-112866000D01*
X144016772Y-112833297D01*
X143861900Y-112769147D01*
X143722519Y-112676015D01*
X143603985Y-112557481D01*
X143510853Y-112418100D01*
X143446703Y-112263228D01*
X143414000Y-112098816D01*
X143414000Y-111931184D01*
X143446703Y-111766772D01*
X143510853Y-111611900D01*
X143603985Y-111472519D01*
X143722519Y-111353985D01*
X143861900Y-111260853D01*
X144016772Y-111196703D01*
X144181184Y-111164000D01*
X144348816Y-111164000D01*
X144513228Y-111196703D01*
G37*
G36*
X141973228Y-111196703D02*
G01*
X142128100Y-111260853D01*
X142267481Y-111353985D01*
X142386015Y-111472519D01*
X142479147Y-111611900D01*
X142543297Y-111766772D01*
X142576000Y-111931184D01*
X142576000Y-112098816D01*
X142543297Y-112263228D01*
X142479147Y-112418100D01*
X142386015Y-112557481D01*
X142267481Y-112676015D01*
X142128100Y-112769147D01*
X141973228Y-112833297D01*
X141808816Y-112866000D01*
X141641184Y-112866000D01*
X141476772Y-112833297D01*
X141321900Y-112769147D01*
X141182519Y-112676015D01*
X141063985Y-112557481D01*
X140970853Y-112418100D01*
X140906703Y-112263228D01*
X140874000Y-112098816D01*
X140874000Y-111931184D01*
X140906703Y-111766772D01*
X140970853Y-111611900D01*
X141063985Y-111472519D01*
X141182519Y-111353985D01*
X141321900Y-111260853D01*
X141476772Y-111196703D01*
X141641184Y-111164000D01*
X141808816Y-111164000D01*
X141973228Y-111196703D01*
G37*
G36*
X157816000Y-112866000D02*
G01*
X156114000Y-112866000D01*
X156114000Y-111164000D01*
X157816000Y-111164000D01*
X157816000Y-112866000D01*
G37*
G36*
X154673228Y-111196703D02*
G01*
X154828100Y-111260853D01*
X154967481Y-111353985D01*
X155086015Y-111472519D01*
X155179147Y-111611900D01*
X155243297Y-111766772D01*
X155276000Y-111931184D01*
X155276000Y-112098816D01*
X155243297Y-112263228D01*
X155179147Y-112418100D01*
X155086015Y-112557481D01*
X154967481Y-112676015D01*
X154828100Y-112769147D01*
X154673228Y-112833297D01*
X154508816Y-112866000D01*
X154341184Y-112866000D01*
X154176772Y-112833297D01*
X154021900Y-112769147D01*
X153882519Y-112676015D01*
X153763985Y-112557481D01*
X153670853Y-112418100D01*
X153606703Y-112263228D01*
X153574000Y-112098816D01*
X153574000Y-111931184D01*
X153606703Y-111766772D01*
X153670853Y-111611900D01*
X153763985Y-111472519D01*
X153882519Y-111353985D01*
X154021900Y-111260853D01*
X154176772Y-111196703D01*
X154341184Y-111164000D01*
X154508816Y-111164000D01*
X154673228Y-111196703D01*
G37*
G36*
X152133228Y-111196703D02*
G01*
X152288100Y-111260853D01*
X152427481Y-111353985D01*
X152546015Y-111472519D01*
X152639147Y-111611900D01*
X152703297Y-111766772D01*
X152736000Y-111931184D01*
X152736000Y-112098816D01*
X152703297Y-112263228D01*
X152639147Y-112418100D01*
X152546015Y-112557481D01*
X152427481Y-112676015D01*
X152288100Y-112769147D01*
X152133228Y-112833297D01*
X151968816Y-112866000D01*
X151801184Y-112866000D01*
X151636772Y-112833297D01*
X151481900Y-112769147D01*
X151342519Y-112676015D01*
X151223985Y-112557481D01*
X151130853Y-112418100D01*
X151066703Y-112263228D01*
X151034000Y-112098816D01*
X151034000Y-111931184D01*
X151066703Y-111766772D01*
X151130853Y-111611900D01*
X151223985Y-111472519D01*
X151342519Y-111353985D01*
X151481900Y-111260853D01*
X151636772Y-111196703D01*
X151801184Y-111164000D01*
X151968816Y-111164000D01*
X152133228Y-111196703D01*
G37*
G36*
X149593228Y-111196703D02*
G01*
X149748100Y-111260853D01*
X149887481Y-111353985D01*
X150006015Y-111472519D01*
X150099147Y-111611900D01*
X150163297Y-111766772D01*
X150196000Y-111931184D01*
X150196000Y-112098816D01*
X150163297Y-112263228D01*
X150099147Y-112418100D01*
X150006015Y-112557481D01*
X149887481Y-112676015D01*
X149748100Y-112769147D01*
X149593228Y-112833297D01*
X149428816Y-112866000D01*
X149261184Y-112866000D01*
X149096772Y-112833297D01*
X148941900Y-112769147D01*
X148802519Y-112676015D01*
X148683985Y-112557481D01*
X148590853Y-112418100D01*
X148526703Y-112263228D01*
X148494000Y-112098816D01*
X148494000Y-111931184D01*
X148526703Y-111766772D01*
X148590853Y-111611900D01*
X148683985Y-111472519D01*
X148802519Y-111353985D01*
X148941900Y-111260853D01*
X149096772Y-111196703D01*
X149261184Y-111164000D01*
X149428816Y-111164000D01*
X149593228Y-111196703D01*
G37*
G36*
X147053228Y-111196703D02*
G01*
X147208100Y-111260853D01*
X147347481Y-111353985D01*
X147466015Y-111472519D01*
X147559147Y-111611900D01*
X147623297Y-111766772D01*
X147656000Y-111931184D01*
X147656000Y-112098816D01*
X147623297Y-112263228D01*
X147559147Y-112418100D01*
X147466015Y-112557481D01*
X147347481Y-112676015D01*
X147208100Y-112769147D01*
X147053228Y-112833297D01*
X146888816Y-112866000D01*
X146721184Y-112866000D01*
X146556772Y-112833297D01*
X146401900Y-112769147D01*
X146262519Y-112676015D01*
X146143985Y-112557481D01*
X146050853Y-112418100D01*
X145986703Y-112263228D01*
X145954000Y-112098816D01*
X145954000Y-111931184D01*
X145986703Y-111766772D01*
X146050853Y-111611900D01*
X146143985Y-111472519D01*
X146262519Y-111353985D01*
X146401900Y-111260853D01*
X146556772Y-111196703D01*
X146721184Y-111164000D01*
X146888816Y-111164000D01*
X147053228Y-111196703D01*
G37*
G36*
X180831000Y-112741000D02*
G01*
X179379000Y-112741000D01*
X179379000Y-111289000D01*
X180831000Y-111289000D01*
X180831000Y-112741000D01*
G37*
G36*
X88259071Y-105689063D02*
G01*
X88455300Y-105748589D01*
X88636146Y-105845253D01*
X88677437Y-105879140D01*
X88794660Y-105975340D01*
X88924748Y-106133855D01*
X89021410Y-106314697D01*
X89021411Y-106314699D01*
X89080937Y-106510928D01*
X89096000Y-106663868D01*
X89096000Y-108746132D01*
X89080937Y-108899072D01*
X89021411Y-109095301D01*
X89021410Y-109095303D01*
X88924748Y-109276145D01*
X88794660Y-109434660D01*
X88636145Y-109564748D01*
X88455303Y-109661410D01*
X88455301Y-109661411D01*
X88259072Y-109720937D01*
X88055000Y-109741036D01*
X87850929Y-109720937D01*
X87654700Y-109661411D01*
X87654698Y-109661410D01*
X87473856Y-109564748D01*
X87315341Y-109434660D01*
X87185253Y-109276145D01*
X87088591Y-109095303D01*
X87088590Y-109095301D01*
X87029064Y-108899072D01*
X87014001Y-108746132D01*
X87014000Y-106663869D01*
X87029063Y-106510929D01*
X87088589Y-106314700D01*
X87185253Y-106133854D01*
X87219140Y-106092563D01*
X87315340Y-105975340D01*
X87473855Y-105845252D01*
X87654697Y-105748590D01*
X87654699Y-105748589D01*
X87850928Y-105689063D01*
X88055000Y-105668964D01*
X88259071Y-105689063D01*
G37*
G36*
X84096000Y-109736000D02*
G01*
X82014000Y-109736000D01*
X82014000Y-105674000D01*
X84096000Y-105674000D01*
X84096000Y-109736000D01*
G37*
G36*
X159233228Y-106566703D02*
G01*
X159388100Y-106630853D01*
X159527481Y-106723985D01*
X159646015Y-106842519D01*
X159739147Y-106981900D01*
X159803297Y-107136772D01*
X159836000Y-107301184D01*
X159836000Y-107468816D01*
X159803297Y-107633228D01*
X159739147Y-107788100D01*
X159646015Y-107927481D01*
X159527481Y-108046015D01*
X159388100Y-108139147D01*
X159233228Y-108203297D01*
X159068816Y-108236000D01*
X158901184Y-108236000D01*
X158736772Y-108203297D01*
X158581900Y-108139147D01*
X158442519Y-108046015D01*
X158323985Y-107927481D01*
X158230853Y-107788100D01*
X158166703Y-107633228D01*
X158134000Y-107468816D01*
X158134000Y-107301184D01*
X158166703Y-107136772D01*
X158230853Y-106981900D01*
X158323985Y-106842519D01*
X158442519Y-106723985D01*
X158581900Y-106630853D01*
X158736772Y-106566703D01*
X158901184Y-106534000D01*
X159068816Y-106534000D01*
X159233228Y-106566703D01*
G37*
G36*
X156733228Y-106566703D02*
G01*
X156888100Y-106630853D01*
X157027481Y-106723985D01*
X157146015Y-106842519D01*
X157239147Y-106981900D01*
X157303297Y-107136772D01*
X157336000Y-107301184D01*
X157336000Y-107468816D01*
X157303297Y-107633228D01*
X157239147Y-107788100D01*
X157146015Y-107927481D01*
X157027481Y-108046015D01*
X156888100Y-108139147D01*
X156733228Y-108203297D01*
X156568816Y-108236000D01*
X156401184Y-108236000D01*
X156236772Y-108203297D01*
X156081900Y-108139147D01*
X155942519Y-108046015D01*
X155823985Y-107927481D01*
X155730853Y-107788100D01*
X155666703Y-107633228D01*
X155634000Y-107468816D01*
X155634000Y-107301184D01*
X155666703Y-107136772D01*
X155730853Y-106981900D01*
X155823985Y-106842519D01*
X155942519Y-106723985D01*
X156081900Y-106630853D01*
X156236772Y-106566703D01*
X156401184Y-106534000D01*
X156568816Y-106534000D01*
X156733228Y-106566703D01*
G37*
G36*
X108473228Y-104036703D02*
G01*
X108628100Y-104100853D01*
X108767481Y-104193985D01*
X108886015Y-104312519D01*
X108979147Y-104451900D01*
X109043297Y-104606772D01*
X109076000Y-104771184D01*
X109076000Y-104938816D01*
X109043297Y-105103228D01*
X108979147Y-105258100D01*
X108886015Y-105397481D01*
X108767481Y-105516015D01*
X108628100Y-105609147D01*
X108473228Y-105673297D01*
X108308816Y-105706000D01*
X108141184Y-105706000D01*
X107976772Y-105673297D01*
X107821900Y-105609147D01*
X107682519Y-105516015D01*
X107563985Y-105397481D01*
X107470853Y-105258100D01*
X107406703Y-105103228D01*
X107374000Y-104938816D01*
X107374000Y-104771184D01*
X107406703Y-104606772D01*
X107470853Y-104451900D01*
X107563985Y-104312519D01*
X107682519Y-104193985D01*
X107821900Y-104100853D01*
X107976772Y-104036703D01*
X108141184Y-104004000D01*
X108308816Y-104004000D01*
X108473228Y-104036703D01*
G37*
G36*
X105973228Y-104036703D02*
G01*
X106128100Y-104100853D01*
X106267481Y-104193985D01*
X106386015Y-104312519D01*
X106479147Y-104451900D01*
X106543297Y-104606772D01*
X106576000Y-104771184D01*
X106576000Y-104938816D01*
X106543297Y-105103228D01*
X106479147Y-105258100D01*
X106386015Y-105397481D01*
X106267481Y-105516015D01*
X106128100Y-105609147D01*
X105973228Y-105673297D01*
X105808816Y-105706000D01*
X105641184Y-105706000D01*
X105476772Y-105673297D01*
X105321900Y-105609147D01*
X105182519Y-105516015D01*
X105063985Y-105397481D01*
X104970853Y-105258100D01*
X104906703Y-105103228D01*
X104874000Y-104938816D01*
X104874000Y-104771184D01*
X104906703Y-104606772D01*
X104970853Y-104451900D01*
X105063985Y-104312519D01*
X105182519Y-104193985D01*
X105321900Y-104100853D01*
X105476772Y-104036703D01*
X105641184Y-104004000D01*
X105808816Y-104004000D01*
X105973228Y-104036703D01*
G37*
G36*
X173028642Y-102224781D02*
G01*
X173174414Y-102285162D01*
X173174416Y-102285163D01*
X173305608Y-102372822D01*
X173417178Y-102484392D01*
X173504837Y-102615584D01*
X173504838Y-102615586D01*
X173565219Y-102761358D01*
X173596000Y-102916107D01*
X173596000Y-103073893D01*
X173565219Y-103228642D01*
X173504838Y-103374414D01*
X173504837Y-103374416D01*
X173417178Y-103505608D01*
X173305608Y-103617178D01*
X173174416Y-103704837D01*
X173174415Y-103704838D01*
X173174414Y-103704838D01*
X173028642Y-103765219D01*
X172873893Y-103796000D01*
X172716107Y-103796000D01*
X172561358Y-103765219D01*
X172415586Y-103704838D01*
X172415585Y-103704838D01*
X172415584Y-103704837D01*
X172284392Y-103617178D01*
X172172822Y-103505608D01*
X172085163Y-103374416D01*
X172085162Y-103374414D01*
X172024781Y-103228642D01*
X171994000Y-103073893D01*
X171994000Y-102916107D01*
X172024781Y-102761358D01*
X172085162Y-102615586D01*
X172085163Y-102615584D01*
X172172822Y-102484392D01*
X172284392Y-102372822D01*
X172415584Y-102285163D01*
X172415586Y-102285162D01*
X172561358Y-102224781D01*
X172716107Y-102194000D01*
X172873893Y-102194000D01*
X173028642Y-102224781D01*
G37*
G36*
X169228642Y-102224781D02*
G01*
X169374414Y-102285162D01*
X169374416Y-102285163D01*
X169505608Y-102372822D01*
X169617178Y-102484392D01*
X169704837Y-102615584D01*
X169704838Y-102615586D01*
X169765219Y-102761358D01*
X169796000Y-102916107D01*
X169796000Y-103073893D01*
X169765219Y-103228642D01*
X169704838Y-103374414D01*
X169704837Y-103374416D01*
X169617178Y-103505608D01*
X169505608Y-103617178D01*
X169374416Y-103704837D01*
X169374415Y-103704838D01*
X169374414Y-103704838D01*
X169228642Y-103765219D01*
X169073893Y-103796000D01*
X168916107Y-103796000D01*
X168761358Y-103765219D01*
X168615586Y-103704838D01*
X168615585Y-103704838D01*
X168615584Y-103704837D01*
X168484392Y-103617178D01*
X168372822Y-103505608D01*
X168285163Y-103374416D01*
X168285162Y-103374414D01*
X168224781Y-103228642D01*
X168194000Y-103073893D01*
X168194000Y-102916107D01*
X168224781Y-102761358D01*
X168285162Y-102615586D01*
X168285163Y-102615584D01*
X168372822Y-102484392D01*
X168484392Y-102372822D01*
X168615584Y-102285163D01*
X168615586Y-102285162D01*
X168761358Y-102224781D01*
X168916107Y-102194000D01*
X169073893Y-102194000D01*
X169228642Y-102224781D01*
G37*
G36*
X157056766Y-101156899D02*
G01*
X157188888Y-101211626D01*
X157188890Y-101211627D01*
X157307798Y-101291079D01*
X157408921Y-101392202D01*
X157408922Y-101392204D01*
X157488374Y-101511112D01*
X157543101Y-101643234D01*
X157571000Y-101783494D01*
X157571000Y-101926506D01*
X157543101Y-102066766D01*
X157488374Y-102198888D01*
X157488373Y-102198890D01*
X157408921Y-102317798D01*
X157307798Y-102418921D01*
X157188890Y-102498373D01*
X157188889Y-102498374D01*
X157188888Y-102498374D01*
X157056766Y-102553101D01*
X156916506Y-102581000D01*
X156773494Y-102581000D01*
X156633234Y-102553101D01*
X156501112Y-102498374D01*
X156501111Y-102498374D01*
X156501110Y-102498373D01*
X156382202Y-102418921D01*
X156281079Y-102317798D01*
X156201627Y-102198890D01*
X156201626Y-102198888D01*
X156146899Y-102066766D01*
X156119000Y-101926506D01*
X156119000Y-101783494D01*
X156146899Y-101643234D01*
X156201626Y-101511112D01*
X156281078Y-101392204D01*
X156281079Y-101392202D01*
X156382202Y-101291079D01*
X156501110Y-101211627D01*
X156501112Y-101211626D01*
X156633234Y-101156899D01*
X156773494Y-101129000D01*
X156916506Y-101129000D01*
X157056766Y-101156899D01*
G37*
G36*
X159571000Y-102581000D02*
G01*
X158119000Y-102581000D01*
X158119000Y-101129000D01*
X159571000Y-101129000D01*
X159571000Y-102581000D01*
G37*
G36*
X153056766Y-101156899D02*
G01*
X153188888Y-101211626D01*
X153188890Y-101211627D01*
X153307798Y-101291079D01*
X153408921Y-101392202D01*
X153408922Y-101392204D01*
X153488374Y-101511112D01*
X153543101Y-101643234D01*
X153571000Y-101783494D01*
X153571000Y-101926506D01*
X153543101Y-102066766D01*
X153488374Y-102198888D01*
X153488373Y-102198890D01*
X153408921Y-102317798D01*
X153307798Y-102418921D01*
X153188890Y-102498373D01*
X153188889Y-102498374D01*
X153188888Y-102498374D01*
X153056766Y-102553101D01*
X152916506Y-102581000D01*
X152773494Y-102581000D01*
X152633234Y-102553101D01*
X152501112Y-102498374D01*
X152501111Y-102498374D01*
X152501110Y-102498373D01*
X152382202Y-102418921D01*
X152281079Y-102317798D01*
X152201627Y-102198890D01*
X152201626Y-102198888D01*
X152146899Y-102066766D01*
X152119000Y-101926506D01*
X152119000Y-101783494D01*
X152146899Y-101643234D01*
X152201626Y-101511112D01*
X152281078Y-101392204D01*
X152281079Y-101392202D01*
X152382202Y-101291079D01*
X152501110Y-101211627D01*
X152501112Y-101211626D01*
X152633234Y-101156899D01*
X152773494Y-101129000D01*
X152916506Y-101129000D01*
X153056766Y-101156899D01*
G37*
G36*
X155056766Y-101156899D02*
G01*
X155188888Y-101211626D01*
X155188890Y-101211627D01*
X155307798Y-101291079D01*
X155408921Y-101392202D01*
X155408922Y-101392204D01*
X155488374Y-101511112D01*
X155543101Y-101643234D01*
X155571000Y-101783494D01*
X155571000Y-101926506D01*
X155543101Y-102066766D01*
X155488374Y-102198888D01*
X155488373Y-102198890D01*
X155408921Y-102317798D01*
X155307798Y-102418921D01*
X155188890Y-102498373D01*
X155188889Y-102498374D01*
X155188888Y-102498374D01*
X155056766Y-102553101D01*
X154916506Y-102581000D01*
X154773494Y-102581000D01*
X154633234Y-102553101D01*
X154501112Y-102498374D01*
X154501111Y-102498374D01*
X154501110Y-102498373D01*
X154382202Y-102418921D01*
X154281079Y-102317798D01*
X154201627Y-102198890D01*
X154201626Y-102198888D01*
X154146899Y-102066766D01*
X154119000Y-101926506D01*
X154119000Y-101783494D01*
X154146899Y-101643234D01*
X154201626Y-101511112D01*
X154281078Y-101392204D01*
X154281079Y-101392202D01*
X154382202Y-101291079D01*
X154501110Y-101211627D01*
X154501112Y-101211626D01*
X154633234Y-101156899D01*
X154773494Y-101129000D01*
X154916506Y-101129000D01*
X155056766Y-101156899D01*
G37*
G36*
X151056766Y-101156899D02*
G01*
X151188888Y-101211626D01*
X151188890Y-101211627D01*
X151307798Y-101291079D01*
X151408921Y-101392202D01*
X151408922Y-101392204D01*
X151488374Y-101511112D01*
X151543101Y-101643234D01*
X151571000Y-101783494D01*
X151571000Y-101926506D01*
X151543101Y-102066766D01*
X151488374Y-102198888D01*
X151488373Y-102198890D01*
X151408921Y-102317798D01*
X151307798Y-102418921D01*
X151188890Y-102498373D01*
X151188889Y-102498374D01*
X151188888Y-102498374D01*
X151056766Y-102553101D01*
X150916506Y-102581000D01*
X150773494Y-102581000D01*
X150633234Y-102553101D01*
X150501112Y-102498374D01*
X150501111Y-102498374D01*
X150501110Y-102498373D01*
X150382202Y-102418921D01*
X150281079Y-102317798D01*
X150201627Y-102198890D01*
X150201626Y-102198888D01*
X150146899Y-102066766D01*
X150119000Y-101926506D01*
X150119000Y-101783494D01*
X150146899Y-101643234D01*
X150201626Y-101511112D01*
X150281078Y-101392204D01*
X150281079Y-101392202D01*
X150382202Y-101291079D01*
X150501110Y-101211627D01*
X150501112Y-101211626D01*
X150633234Y-101156899D01*
X150773494Y-101129000D01*
X150916506Y-101129000D01*
X151056766Y-101156899D01*
G37*
G36*
X149056766Y-101156899D02*
G01*
X149188888Y-101211626D01*
X149188890Y-101211627D01*
X149307798Y-101291079D01*
X149408921Y-101392202D01*
X149408922Y-101392204D01*
X149488374Y-101511112D01*
X149543101Y-101643234D01*
X149571000Y-101783494D01*
X149571000Y-101926506D01*
X149543101Y-102066766D01*
X149488374Y-102198888D01*
X149488373Y-102198890D01*
X149408921Y-102317798D01*
X149307798Y-102418921D01*
X149188890Y-102498373D01*
X149188889Y-102498374D01*
X149188888Y-102498374D01*
X149056766Y-102553101D01*
X148916506Y-102581000D01*
X148773494Y-102581000D01*
X148633234Y-102553101D01*
X148501112Y-102498374D01*
X148501111Y-102498374D01*
X148501110Y-102498373D01*
X148382202Y-102418921D01*
X148281079Y-102317798D01*
X148201627Y-102198890D01*
X148201626Y-102198888D01*
X148146899Y-102066766D01*
X148119000Y-101926506D01*
X148119000Y-101783494D01*
X148146899Y-101643234D01*
X148201626Y-101511112D01*
X148281078Y-101392204D01*
X148281079Y-101392202D01*
X148382202Y-101291079D01*
X148501110Y-101211627D01*
X148501112Y-101211626D01*
X148633234Y-101156899D01*
X148773494Y-101129000D01*
X148916506Y-101129000D01*
X149056766Y-101156899D01*
G37*
G36*
X147056766Y-101156899D02*
G01*
X147188888Y-101211626D01*
X147188890Y-101211627D01*
X147307798Y-101291079D01*
X147408921Y-101392202D01*
X147408922Y-101392204D01*
X147488374Y-101511112D01*
X147543101Y-101643234D01*
X147571000Y-101783494D01*
X147571000Y-101926506D01*
X147543101Y-102066766D01*
X147488374Y-102198888D01*
X147488373Y-102198890D01*
X147408921Y-102317798D01*
X147307798Y-102418921D01*
X147188890Y-102498373D01*
X147188889Y-102498374D01*
X147188888Y-102498374D01*
X147056766Y-102553101D01*
X146916506Y-102581000D01*
X146773494Y-102581000D01*
X146633234Y-102553101D01*
X146501112Y-102498374D01*
X146501111Y-102498374D01*
X146501110Y-102498373D01*
X146382202Y-102418921D01*
X146281079Y-102317798D01*
X146201627Y-102198890D01*
X146201626Y-102198888D01*
X146146899Y-102066766D01*
X146119000Y-101926506D01*
X146119000Y-101783494D01*
X146146899Y-101643234D01*
X146201626Y-101511112D01*
X146281078Y-101392204D01*
X146281079Y-101392202D01*
X146382202Y-101291079D01*
X146501110Y-101211627D01*
X146501112Y-101211626D01*
X146633234Y-101156899D01*
X146773494Y-101129000D01*
X146916506Y-101129000D01*
X147056766Y-101156899D01*
G37*
G36*
X145056766Y-101156899D02*
G01*
X145188888Y-101211626D01*
X145188890Y-101211627D01*
X145307798Y-101291079D01*
X145408921Y-101392202D01*
X145408922Y-101392204D01*
X145488374Y-101511112D01*
X145543101Y-101643234D01*
X145571000Y-101783494D01*
X145571000Y-101926506D01*
X145543101Y-102066766D01*
X145488374Y-102198888D01*
X145488373Y-102198890D01*
X145408921Y-102317798D01*
X145307798Y-102418921D01*
X145188890Y-102498373D01*
X145188889Y-102498374D01*
X145188888Y-102498374D01*
X145056766Y-102553101D01*
X144916506Y-102581000D01*
X144773494Y-102581000D01*
X144633234Y-102553101D01*
X144501112Y-102498374D01*
X144501111Y-102498374D01*
X144501110Y-102498373D01*
X144382202Y-102418921D01*
X144281079Y-102317798D01*
X144201627Y-102198890D01*
X144201626Y-102198888D01*
X144146899Y-102066766D01*
X144119000Y-101926506D01*
X144119000Y-101783494D01*
X144146899Y-101643234D01*
X144201626Y-101511112D01*
X144281078Y-101392204D01*
X144281079Y-101392202D01*
X144382202Y-101291079D01*
X144501110Y-101211627D01*
X144501112Y-101211626D01*
X144633234Y-101156899D01*
X144773494Y-101129000D01*
X144916506Y-101129000D01*
X145056766Y-101156899D01*
G37*
G36*
X143056766Y-101156899D02*
G01*
X143188888Y-101211626D01*
X143188890Y-101211627D01*
X143307798Y-101291079D01*
X143408921Y-101392202D01*
X143408922Y-101392204D01*
X143488374Y-101511112D01*
X143543101Y-101643234D01*
X143571000Y-101783494D01*
X143571000Y-101926506D01*
X143543101Y-102066766D01*
X143488374Y-102198888D01*
X143488373Y-102198890D01*
X143408921Y-102317798D01*
X143307798Y-102418921D01*
X143188890Y-102498373D01*
X143188889Y-102498374D01*
X143188888Y-102498374D01*
X143056766Y-102553101D01*
X142916506Y-102581000D01*
X142773494Y-102581000D01*
X142633234Y-102553101D01*
X142501112Y-102498374D01*
X142501111Y-102498374D01*
X142501110Y-102498373D01*
X142382202Y-102418921D01*
X142281079Y-102317798D01*
X142201627Y-102198890D01*
X142201626Y-102198888D01*
X142146899Y-102066766D01*
X142119000Y-101926506D01*
X142119000Y-101783494D01*
X142146899Y-101643234D01*
X142201626Y-101511112D01*
X142281078Y-101392204D01*
X142281079Y-101392202D01*
X142382202Y-101291079D01*
X142501110Y-101211627D01*
X142501112Y-101211626D01*
X142633234Y-101156899D01*
X142773494Y-101129000D01*
X142916506Y-101129000D01*
X143056766Y-101156899D01*
G37*
G36*
X141056766Y-101156899D02*
G01*
X141188888Y-101211626D01*
X141188890Y-101211627D01*
X141307798Y-101291079D01*
X141408921Y-101392202D01*
X141408922Y-101392204D01*
X141488374Y-101511112D01*
X141543101Y-101643234D01*
X141571000Y-101783494D01*
X141571000Y-101926506D01*
X141543101Y-102066766D01*
X141488374Y-102198888D01*
X141488373Y-102198890D01*
X141408921Y-102317798D01*
X141307798Y-102418921D01*
X141188890Y-102498373D01*
X141188889Y-102498374D01*
X141188888Y-102498374D01*
X141056766Y-102553101D01*
X140916506Y-102581000D01*
X140773494Y-102581000D01*
X140633234Y-102553101D01*
X140501112Y-102498374D01*
X140501111Y-102498374D01*
X140501110Y-102498373D01*
X140382202Y-102418921D01*
X140281079Y-102317798D01*
X140201627Y-102198890D01*
X140201626Y-102198888D01*
X140146899Y-102066766D01*
X140119000Y-101926506D01*
X140119000Y-101783494D01*
X140146899Y-101643234D01*
X140201626Y-101511112D01*
X140281078Y-101392204D01*
X140281079Y-101392202D01*
X140382202Y-101291079D01*
X140501110Y-101211627D01*
X140501112Y-101211626D01*
X140633234Y-101156899D01*
X140773494Y-101129000D01*
X140916506Y-101129000D01*
X141056766Y-101156899D01*
G37*
M02*
