M48
; DRILL file {KiCad (5.1.5-0-10_14)} date 2020 August 23, Sunday 20:17:33
; FORMAT={-:-/ absolute / inch / decimal}
; #@! TF.CreationDate,2020-08-23T20:17:33-03:00
; #@! TF.GenerationSoftware,Kicad,Pcbnew,(5.1.5-0-10_14)
FMAT,2
INCH
T1C0.0276
T2C0.0315
T3C0.0394
T4C0.0520
%
G90
G05
T1
X6.6447Y-5.1636
X6.6447Y-5.3636
X4.8884Y-4.4809
X5.0884Y-4.4809
X6.6152Y-4.5809
X6.8152Y-4.5809
T2
X6.1608Y-4.2278
X6.2593Y-4.2278
X6.3608Y-4.8285
X6.4593Y-4.8285
X3.3809Y-5.9313
X3.3809Y-6.01
X3.4596Y-5.9313
X3.4596Y-6.01
X3.5384Y-5.9313
X3.5384Y-6.01
X3.6171Y-5.9313
X3.6171Y-6.01
X3.6959Y-5.9313
X3.6959Y-6.01
X3.7746Y-5.9313
X3.7746Y-6.01
X3.8533Y-5.9313
X3.8533Y-6.01
X3.9321Y-5.9313
X3.9321Y-6.01
X3.7285Y-5.1813
X3.7285Y-5.26
X3.8073Y-5.26
X3.886Y-5.1813
X3.886Y-5.26
X5.81Y-5.5447
X5.81Y-5.6234
X3.1459Y-4.8561
X3.1459Y-4.9545
X5.5451Y-4.01
X5.6238Y-4.01
X5.7026Y-4.01
X5.7813Y-4.01
X5.86Y-4.01
X5.9388Y-4.01
X6.0175Y-4.01
X6.0963Y-4.01
X6.175Y-4.01
X6.2537Y-4.01
X3.4096Y-5.61
X3.4884Y-5.61
X3.5671Y-5.61
X3.6459Y-5.61
X3.7246Y-5.61
X3.8033Y-5.61
X3.8821Y-5.61
X3.9608Y-5.61
X7.0907Y-4.41
X7.0907Y-4.4888
X7.0907Y-4.5675
X7.0907Y-4.6463
X7.0907Y-4.725
X7.0907Y-4.8037
X7.0907Y-4.8825
X7.0907Y-4.9612
X4.1624Y-4.1281
X4.2608Y-4.1281
X5.5797Y-4.41
X5.5797Y-4.71
X5.6797Y-4.41
X5.6797Y-4.71
X5.7797Y-4.41
X5.7797Y-4.71
X5.8797Y-4.41
X5.8797Y-4.71
X5.9797Y-4.41
X5.9797Y-4.71
X6.0797Y-4.41
X6.0797Y-4.71
X6.1797Y-4.41
X6.1797Y-4.71
X6.6533Y-4.0549
X6.803Y-4.0549
T3
X5.5856Y-4.9065
X5.6856Y-4.9065
X5.7856Y-4.9065
X5.8856Y-4.9065
X5.9856Y-4.9065
X3.7376Y-4.888
X3.8045Y-4.688
X3.8715Y-4.888
X3.9384Y-4.688
X4.0053Y-4.888
X4.0722Y-4.688
X4.1392Y-4.888
X4.2061Y-4.688
X4.273Y-4.888
X4.34Y-4.688
X4.4069Y-4.888
T4
X3.2699Y-4.2404
X3.4667Y-4.2404
T0
M30
