G04 #@! TF.GenerationSoftware,KiCad,Pcbnew,5.0.2+dfsg1-1*
G04 #@! TF.CreationDate,2020-09-07T16:18:41-03:00*
G04 #@! TF.ProjectId,Quanser_Controller,5175616e-7365-4725-9f43-6f6e74726f6c,rev?*
G04 #@! TF.SameCoordinates,Original*
G04 #@! TF.FileFunction,Copper,L2,Bot*
G04 #@! TF.FilePolarity,Positive*
%FSLAX46Y46*%
G04 Gerber Fmt 4.6, Leading zero omitted, Abs format (unit mm)*
G04 Created by KiCad (PCBNEW 5.0.2+dfsg1-1) date seg 07 set 2020 16:18:41 -03*
%MOMM*%
%LPD*%
G01*
G04 APERTURE LIST*
G04 #@! TA.AperFunction,ComponentPad*
%ADD10R,1.800000X1.800000*%
G04 #@! TD*
G04 #@! TA.AperFunction,ComponentPad*
%ADD11O,1.800000X1.800000*%
G04 #@! TD*
G04 #@! TA.AperFunction,ComponentPad*
%ADD12R,1.700000X1.700000*%
G04 #@! TD*
G04 #@! TA.AperFunction,ComponentPad*
%ADD13O,1.700000X1.700000*%
G04 #@! TD*
G04 #@! TA.AperFunction,ComponentPad*
%ADD14C,1.500000*%
G04 #@! TD*
G04 #@! TA.AperFunction,ComponentPad*
%ADD15C,1.600000*%
G04 #@! TD*
G04 #@! TA.AperFunction,ComponentPad*
%ADD16C,3.000000*%
G04 #@! TD*
G04 #@! TA.AperFunction,ComponentPad*
%ADD17R,1.350000X1.350000*%
G04 #@! TD*
G04 #@! TA.AperFunction,ComponentPad*
%ADD18O,1.350000X1.350000*%
G04 #@! TD*
G04 #@! TA.AperFunction,ComponentPad*
%ADD19R,1.980000X3.960000*%
G04 #@! TD*
G04 #@! TA.AperFunction,ComponentPad*
%ADD20O,1.980000X3.960000*%
G04 #@! TD*
G04 #@! TA.AperFunction,ComponentPad*
%ADD21O,1.500000X1.050000*%
G04 #@! TD*
G04 #@! TA.AperFunction,ComponentPad*
%ADD22R,1.500000X1.050000*%
G04 #@! TD*
G04 #@! TA.AperFunction,ComponentPad*
%ADD23C,1.400000*%
G04 #@! TD*
G04 #@! TA.AperFunction,ComponentPad*
%ADD24O,1.400000X1.400000*%
G04 #@! TD*
G04 #@! TA.AperFunction,ComponentPad*
%ADD25O,1.600000X1.600000*%
G04 #@! TD*
G04 #@! TA.AperFunction,ComponentPad*
%ADD26R,1.600000X1.600000*%
G04 #@! TD*
G04 #@! TA.AperFunction,Conductor*
%ADD27C,0.250000*%
G04 #@! TD*
G04 #@! TA.AperFunction,Conductor*
%ADD28C,0.200000*%
G04 #@! TD*
G04 APERTURE END LIST*
D10*
G04 #@! TO.P,U1,1*
G04 #@! TO.N,Net-(C3-Pad2)*
X107950000Y-80010000D03*
D11*
G04 #@! TO.P,U1,2*
G04 #@! TO.N,Net-(C3-Pad1)*
X109650000Y-74930000D03*
G04 #@! TO.P,U1,3*
G04 #@! TO.N,PWM*
X111350000Y-80010000D03*
G04 #@! TO.P,U1,4*
G04 #@! TO.N,Net-(Q1-Pad1)*
X113050000Y-74930000D03*
G04 #@! TO.P,U1,5*
G04 #@! TO.N,ENABLE*
X114750000Y-80010000D03*
G04 #@! TO.P,U1,6*
G04 #@! TO.N,Net-(F1-Pad2)*
X116450000Y-74930000D03*
G04 #@! TO.P,U1,7*
G04 #@! TO.N,GND*
X118150000Y-80010000D03*
G04 #@! TO.P,U1,8*
G04 #@! TO.N,AD*
X119850000Y-74930000D03*
G04 #@! TO.P,U1,9*
G04 #@! TO.N,TH_FLAG*
X121550000Y-80010000D03*
G04 #@! TO.P,U1,10*
G04 #@! TO.N,Net-(C4-Pad2)*
X123250000Y-74930000D03*
G04 #@! TO.P,U1,11*
G04 #@! TO.N,Net-(C4-Pad1)*
X124950000Y-80010000D03*
G04 #@! TD*
D12*
G04 #@! TO.P,J2,1*
G04 #@! TO.N,GND*
X198120000Y-59690000D03*
D13*
G04 #@! TO.P,J2,2*
G04 #@! TO.N,+5V*
X195580000Y-59690000D03*
G04 #@! TO.P,J2,3*
G04 #@! TO.N,Net-(J2-Pad3)*
X193040000Y-59690000D03*
G04 #@! TO.P,J2,4*
G04 #@! TO.N,Net-(J2-Pad4)*
X190500000Y-59690000D03*
G04 #@! TO.P,J2,5*
G04 #@! TO.N,Net-(J2-Pad5)*
X187960000Y-59690000D03*
G04 #@! TD*
D14*
G04 #@! TO.P,Crystal1,1*
G04 #@! TO.N,Net-(C1-Pad1)*
X162560000Y-82550000D03*
G04 #@! TO.P,Crystal1,2*
G04 #@! TO.N,Net-(C2-Pad1)*
X166360000Y-82550000D03*
G04 #@! TD*
D15*
G04 #@! TO.P,C1,1*
G04 #@! TO.N,Net-(C1-Pad1)*
X142240000Y-88900000D03*
G04 #@! TO.P,C1,2*
G04 #@! TO.N,GND*
X142240000Y-91400000D03*
G04 #@! TD*
G04 #@! TO.P,C2,2*
G04 #@! TO.N,GND*
X172720000Y-88900000D03*
G04 #@! TO.P,C2,1*
G04 #@! TO.N,Net-(C2-Pad1)*
X170220000Y-88900000D03*
G04 #@! TD*
G04 #@! TO.P,C3,1*
G04 #@! TO.N,Net-(C3-Pad1)*
X97790000Y-73660000D03*
G04 #@! TO.P,C3,2*
G04 #@! TO.N,Net-(C3-Pad2)*
X97790000Y-76160000D03*
G04 #@! TD*
G04 #@! TO.P,C4,2*
G04 #@! TO.N,Net-(C4-Pad2)*
X142240000Y-66080000D03*
G04 #@! TO.P,C4,1*
G04 #@! TO.N,Net-(C4-Pad1)*
X142240000Y-68580000D03*
G04 #@! TD*
D16*
G04 #@! TO.P,F1,1*
G04 #@! TO.N,+28V*
X154940000Y-53340000D03*
G04 #@! TO.P,F1,2*
G04 #@! TO.N,Net-(F1-Pad2)*
X154940000Y-75840000D03*
G04 #@! TD*
D17*
G04 #@! TO.P,J1,1*
G04 #@! TO.N,GND*
X97790000Y-97790000D03*
D18*
G04 #@! TO.P,J1,2*
G04 #@! TO.N,Net-(J1-Pad2)*
X97790000Y-95790000D03*
G04 #@! TO.P,J1,3*
G04 #@! TO.N,GND*
X99790000Y-97790000D03*
G04 #@! TO.P,J1,4*
G04 #@! TO.N,Net-(J1-Pad4)*
X99790000Y-95790000D03*
G04 #@! TO.P,J1,5*
G04 #@! TO.N,GND*
X101790000Y-97790000D03*
G04 #@! TO.P,J1,6*
G04 #@! TO.N,ELB1*
X101790000Y-95790000D03*
G04 #@! TO.P,J1,7*
G04 #@! TO.N,GND*
X103790000Y-97790000D03*
G04 #@! TO.P,J1,8*
G04 #@! TO.N,ELB2*
X103790000Y-95790000D03*
G04 #@! TO.P,J1,9*
G04 #@! TO.N,GND*
X105790000Y-97790000D03*
G04 #@! TO.P,J1,10*
G04 #@! TO.N,Net-(J1-Pad10)*
X105790000Y-95790000D03*
G04 #@! TO.P,J1,11*
G04 #@! TO.N,GND*
X107790000Y-97790000D03*
G04 #@! TO.P,J1,12*
G04 #@! TO.N,Net-(J1-Pad12)*
X107790000Y-95790000D03*
G04 #@! TO.P,J1,13*
G04 #@! TO.N,GND*
X109790000Y-97790000D03*
G04 #@! TO.P,J1,14*
G04 #@! TO.N,Net-(J1-Pad14)*
X109790000Y-95790000D03*
G04 #@! TO.P,J1,15*
G04 #@! TO.N,GND*
X111790000Y-97790000D03*
G04 #@! TO.P,J1,16*
G04 #@! TO.N,Net-(J1-Pad16)*
X111790000Y-95790000D03*
G04 #@! TD*
D17*
G04 #@! TO.P,J3,1*
G04 #@! TO.N,Net-(J3-Pad1)*
X182880000Y-80010000D03*
D18*
G04 #@! TO.P,J3,2*
G04 #@! TO.N,Net-(J3-Pad2)*
X184880000Y-80010000D03*
G04 #@! TO.P,J3,3*
G04 #@! TO.N,Net-(J3-Pad3)*
X186880000Y-80010000D03*
G04 #@! TO.P,J3,4*
G04 #@! TO.N,Net-(J3-Pad4)*
X188880000Y-80010000D03*
G04 #@! TO.P,J3,5*
G04 #@! TO.N,SCLK*
X190880000Y-80010000D03*
G04 #@! TO.P,J3,6*
G04 #@! TO.N,MISO*
X192880000Y-80010000D03*
G04 #@! TO.P,J3,7*
G04 #@! TO.N,MOSI*
X194880000Y-80010000D03*
G04 #@! TO.P,J3,8*
G04 #@! TO.N,#SS*
X196880000Y-80010000D03*
G04 #@! TO.P,J3,9*
G04 #@! TO.N,Net-(J3-Pad9)*
X198880000Y-80010000D03*
G04 #@! TO.P,J3,10*
G04 #@! TO.N,Net-(J3-Pad10)*
X200880000Y-80010000D03*
G04 #@! TD*
D17*
G04 #@! TO.P,J4,1*
G04 #@! TO.N,Net-(J4-Pad1)*
X97790000Y-88900000D03*
D18*
G04 #@! TO.P,J4,2*
G04 #@! TO.N,Net-(J4-Pad2)*
X99790000Y-88900000D03*
G04 #@! TO.P,J4,3*
G04 #@! TO.N,PWM*
X101790000Y-88900000D03*
G04 #@! TO.P,J4,4*
G04 #@! TO.N,ENABLE*
X103790000Y-88900000D03*
G04 #@! TO.P,J4,5*
G04 #@! TO.N,ELB1*
X105790000Y-88900000D03*
G04 #@! TO.P,J4,6*
G04 #@! TO.N,ELB2*
X107790000Y-88900000D03*
G04 #@! TO.P,J4,7*
G04 #@! TO.N,Net-(J4-Pad7)*
X109790000Y-88900000D03*
G04 #@! TO.P,J4,8*
G04 #@! TO.N,Net-(J4-Pad8)*
X111790000Y-88900000D03*
G04 #@! TD*
G04 #@! TO.P,J5,8*
G04 #@! TO.N,Net-(J5-Pad8)*
X196880000Y-53340000D03*
G04 #@! TO.P,J5,7*
G04 #@! TO.N,GND*
X194880000Y-53340000D03*
G04 #@! TO.P,J5,6*
X192880000Y-53340000D03*
G04 #@! TO.P,J5,5*
G04 #@! TO.N,+5V*
X190880000Y-53340000D03*
G04 #@! TO.P,J5,4*
G04 #@! TO.N,Net-(J5-Pad4)*
X188880000Y-53340000D03*
G04 #@! TO.P,J5,3*
G04 #@! TO.N,Net-(J5-Pad3)*
X186880000Y-53340000D03*
G04 #@! TO.P,J5,2*
G04 #@! TO.N,Net-(J5-Pad2)*
X184880000Y-53340000D03*
D17*
G04 #@! TO.P,J5,1*
G04 #@! TO.N,Net-(J5-Pad1)*
X182880000Y-53340000D03*
G04 #@! TD*
D19*
G04 #@! TO.P,J6,1*
G04 #@! TO.N,Net-(C3-Pad1)*
X97790000Y-60960000D03*
D20*
G04 #@! TO.P,J6,2*
G04 #@! TO.N,Net-(C4-Pad2)*
X102790000Y-60960000D03*
G04 #@! TD*
G04 #@! TO.P,J7,2*
G04 #@! TO.N,GND*
X125650000Y-60960000D03*
D19*
G04 #@! TO.P,J7,1*
G04 #@! TO.N,+28V*
X120650000Y-60960000D03*
G04 #@! TD*
D21*
G04 #@! TO.P,Q1,2*
G04 #@! TO.N,Net-(Q1-Pad2)*
X138430000Y-80010000D03*
G04 #@! TO.P,Q1,3*
G04 #@! TO.N,GND*
X138430000Y-78740000D03*
D22*
G04 #@! TO.P,Q1,1*
G04 #@! TO.N,Net-(Q1-Pad1)*
X138430000Y-81280000D03*
G04 #@! TD*
D23*
G04 #@! TO.P,R1,1*
G04 #@! TO.N,Net-(C1-Pad1)*
X152400000Y-96520000D03*
D24*
G04 #@! TO.P,R1,2*
G04 #@! TO.N,Net-(C2-Pad1)*
X157480000Y-96520000D03*
G04 #@! TD*
G04 #@! TO.P,R2,2*
G04 #@! TO.N,AD*
X123190000Y-88900000D03*
D23*
G04 #@! TO.P,R2,1*
G04 #@! TO.N,GND*
X118110000Y-88900000D03*
G04 #@! TD*
G04 #@! TO.P,R3,1*
G04 #@! TO.N,TH_FLAG*
X97790000Y-85090000D03*
D24*
G04 #@! TO.P,R3,2*
G04 #@! TO.N,+5V*
X97790000Y-80010000D03*
G04 #@! TD*
D23*
G04 #@! TO.P,R4,1*
G04 #@! TO.N,Net-(Q1-Pad2)*
X132080000Y-88900000D03*
D24*
G04 #@! TO.P,R4,2*
G04 #@! TO.N,ENABLE*
X132080000Y-93980000D03*
G04 #@! TD*
G04 #@! TO.P,R5,2*
G04 #@! TO.N,GND*
X120650000Y-96520000D03*
D23*
G04 #@! TO.P,R5,1*
G04 #@! TO.N,Net-(Q1-Pad2)*
X125730000Y-96520000D03*
G04 #@! TD*
D25*
G04 #@! TO.P,U2,14*
G04 #@! TO.N,+5V*
X176530000Y-66040000D03*
G04 #@! TO.P,U2,7*
G04 #@! TO.N,MOSI*
X191770000Y-73660000D03*
G04 #@! TO.P,U2,13*
G04 #@! TO.N,+5V*
X179070000Y-66040000D03*
G04 #@! TO.P,U2,6*
G04 #@! TO.N,MISO*
X189230000Y-73660000D03*
G04 #@! TO.P,U2,12*
G04 #@! TO.N,Net-(J2-Pad5)*
X181610000Y-66040000D03*
G04 #@! TO.P,U2,5*
G04 #@! TO.N,SCLK*
X186690000Y-73660000D03*
G04 #@! TO.P,U2,11*
G04 #@! TO.N,Net-(J2-Pad4)*
X184150000Y-66040000D03*
G04 #@! TO.P,U2,4*
G04 #@! TO.N,#SS*
X184150000Y-73660000D03*
G04 #@! TO.P,U2,10*
G04 #@! TO.N,Net-(U2-Pad10)*
X186690000Y-66040000D03*
G04 #@! TO.P,U2,3*
G04 #@! TO.N,GND*
X181610000Y-73660000D03*
G04 #@! TO.P,U2,9*
G04 #@! TO.N,Net-(U2-Pad9)*
X189230000Y-66040000D03*
G04 #@! TO.P,U2,2*
G04 #@! TO.N,Net-(C2-Pad1)*
X179070000Y-73660000D03*
G04 #@! TO.P,U2,8*
G04 #@! TO.N,Net-(U2-Pad8)*
X191770000Y-66040000D03*
D26*
G04 #@! TO.P,U2,1*
G04 #@! TO.N,Net-(C1-Pad1)*
X176530000Y-73660000D03*
G04 #@! TD*
D24*
G04 #@! TO.P,R6,2*
G04 #@! TO.N,Net-(Q1-Pad1)*
X144780000Y-86360000D03*
D23*
G04 #@! TO.P,R6,1*
G04 #@! TO.N,+5V*
X149860000Y-86360000D03*
G04 #@! TD*
G04 #@! TO.P,R7,1*
G04 #@! TO.N,ENABLE*
X135890000Y-99060000D03*
D24*
G04 #@! TO.P,R7,2*
G04 #@! TO.N,GND*
X140970000Y-99060000D03*
G04 #@! TD*
D17*
G04 #@! TO.P,J8,1*
G04 #@! TO.N,Net-(J8-Pad1)*
X92710000Y-81280000D03*
D18*
G04 #@! TO.P,J8,2*
G04 #@! TO.N,Net-(J8-Pad2)*
X92710000Y-79280000D03*
G04 #@! TO.P,J8,3*
G04 #@! TO.N,Net-(J8-Pad3)*
X92710000Y-77280000D03*
G04 #@! TO.P,J8,4*
G04 #@! TO.N,Net-(J8-Pad4)*
X92710000Y-75280000D03*
G04 #@! TO.P,J8,5*
G04 #@! TO.N,TH_FLAG*
X92710000Y-73280000D03*
G04 #@! TO.P,J8,6*
G04 #@! TO.N,AD*
X92710000Y-71280000D03*
G04 #@! TD*
D27*
G04 #@! TO.N,Net-(C1-Pad1)*
X152400000Y-92710000D02*
X162560000Y-82550000D01*
X152400000Y-96520000D02*
X152400000Y-92710000D01*
X152400000Y-92710000D02*
X146050000Y-92710000D01*
X146050000Y-92710000D02*
X142240000Y-88900000D01*
X176530000Y-73660000D02*
X171450000Y-73660000D01*
X171450000Y-73660000D02*
X162560000Y-82550000D01*
G04 #@! TO.N,GND*
X118110000Y-88900000D02*
X118150000Y-88860000D01*
X181610000Y-74222600D02*
X181610000Y-73660000D01*
X120650000Y-91440000D02*
X118110000Y-88900000D01*
X120650000Y-96520000D02*
X120650000Y-91440000D01*
G04 #@! TO.N,Net-(C2-Pad1)*
X166651200Y-88900000D02*
X170220000Y-88900000D01*
X166651200Y-82550000D02*
X166360000Y-82550000D01*
X169758000Y-82550000D02*
X166651200Y-82550000D01*
X166651200Y-88900000D02*
X166651200Y-82550000D01*
X159031200Y-96520000D02*
X166651200Y-88900000D01*
X157480000Y-96520000D02*
X159031200Y-96520000D01*
X179070000Y-73660000D02*
X179070000Y-76200000D01*
X179070000Y-76200000D02*
X172720000Y-82550000D01*
X172720000Y-82550000D02*
X169758000Y-82550000D01*
G04 #@! TO.N,Net-(C3-Pad1)*
X97790000Y-60960000D02*
X97790000Y-73660000D01*
G04 #@! TO.N,Net-(C3-Pad2)*
X107950000Y-80010000D02*
X106724700Y-80010000D01*
X106724700Y-80010000D02*
X102874700Y-76160000D01*
X102874700Y-76160000D02*
X97790000Y-76160000D01*
G04 #@! TO.N,Net-(C4-Pad2)*
X123250000Y-74930000D02*
X124475300Y-74930000D01*
X124475300Y-74930000D02*
X133325300Y-66080000D01*
X133325300Y-66080000D02*
X142240000Y-66080000D01*
G04 #@! TO.N,Net-(C4-Pad1)*
X126175300Y-80010000D02*
X137605300Y-68580000D01*
X137605300Y-68580000D02*
X142240000Y-68580000D01*
X124950000Y-80010000D02*
X126175300Y-80010000D01*
G04 #@! TO.N,ELB1*
X105790000Y-88900000D02*
X105790000Y-89900300D01*
X105790000Y-89900300D02*
X101790000Y-93900300D01*
X101790000Y-93900300D02*
X101790000Y-95790000D01*
G04 #@! TO.N,ELB2*
X107790000Y-88900000D02*
X107790000Y-89900300D01*
X107790000Y-89900300D02*
X103790000Y-93900300D01*
X103790000Y-93900300D02*
X103790000Y-95790000D01*
G04 #@! TO.N,+5V*
X179070000Y-66040000D02*
X176530000Y-66040000D01*
X190880000Y-53340000D02*
X190880000Y-54990000D01*
X190880000Y-54990000D02*
X191770000Y-55880000D01*
X191770000Y-55880000D02*
X194310000Y-55880000D01*
X195580000Y-57150000D02*
X195580000Y-59690000D01*
X194310000Y-55880000D02*
X195580000Y-57150000D01*
X179070000Y-58420000D02*
X179070000Y-66040000D01*
X191770000Y-55880000D02*
X181610000Y-55880000D01*
X181610000Y-55880000D02*
X179070000Y-58420000D01*
G04 #@! TO.N,Net-(J2-Pad4)*
X184150000Y-63500000D02*
X184150000Y-66040000D01*
X185420000Y-62230000D02*
X184150000Y-63500000D01*
X189230000Y-62230000D02*
X185420000Y-62230000D01*
X190500000Y-59690000D02*
X190500000Y-60960000D01*
X190500000Y-60960000D02*
X189230000Y-62230000D01*
G04 #@! TO.N,Net-(J2-Pad5)*
X181610000Y-66040000D02*
X181610000Y-62230000D01*
X181610000Y-62230000D02*
X184150000Y-59690000D01*
X184150000Y-59690000D02*
X187960000Y-59690000D01*
G04 #@! TO.N,SCLK*
X186690000Y-73660000D02*
X186690000Y-74785300D01*
X186690000Y-74785300D02*
X190880000Y-78975300D01*
X190880000Y-78975300D02*
X190880000Y-80010000D01*
G04 #@! TO.N,MISO*
X192880000Y-80010000D02*
X192880000Y-79009700D01*
X189230000Y-73660000D02*
X189230000Y-75359700D01*
X189230000Y-75359700D02*
X192880000Y-79009700D01*
G04 #@! TO.N,MOSI*
X191770000Y-73660000D02*
X191770000Y-74785300D01*
X191770000Y-74785300D02*
X194880000Y-77895300D01*
X194880000Y-77895300D02*
X194880000Y-80010000D01*
G04 #@! TO.N,#SS*
X194310000Y-69850000D02*
X196880000Y-72420000D01*
X196880000Y-72420000D02*
X196880000Y-80010000D01*
X186690000Y-69850000D02*
X194310000Y-69850000D01*
X184150000Y-73660000D02*
X184150000Y-72390000D01*
X184150000Y-72390000D02*
X186690000Y-69850000D01*
D28*
G04 #@! TO.N,TH_FLAG*
X91755406Y-73280000D02*
X90170000Y-74865406D01*
X92710000Y-73280000D02*
X91755406Y-73280000D01*
X90170000Y-74865406D02*
X90170000Y-82550000D01*
X92710000Y-85090000D02*
X97790000Y-85090000D01*
X90170000Y-82550000D02*
X92710000Y-85090000D01*
G04 #@! TO.N,PWM*
X101790000Y-88900000D02*
X106870000Y-83820000D01*
X107540000Y-83820000D02*
X111350000Y-80010000D01*
X106870000Y-83820000D02*
X107540000Y-83820000D01*
D27*
G04 #@! TO.N,Net-(Q1-Pad2)*
X138430000Y-80010000D02*
X137354700Y-80010000D01*
X132080000Y-88900000D02*
X132080000Y-85284700D01*
X132080000Y-85284700D02*
X137354700Y-80010000D01*
X125730000Y-92710000D02*
X125730000Y-96520000D01*
X132080000Y-88900000D02*
X129540000Y-88900000D01*
X129540000Y-88900000D02*
X125730000Y-92710000D01*
G04 #@! TO.N,ENABLE*
X132080000Y-93980000D02*
X133350000Y-93980000D01*
X135890000Y-96520000D02*
X135890000Y-99060000D01*
X133350000Y-93980000D02*
X135890000Y-96520000D01*
X114750000Y-99880000D02*
X114300000Y-100330000D01*
X114300000Y-100330000D02*
X95250000Y-100330000D01*
X95250000Y-100330000D02*
X92710000Y-97790000D01*
X92710000Y-97790000D02*
X92710000Y-96520000D01*
X92710000Y-96520000D02*
X96520000Y-92710000D01*
X99980000Y-92710000D02*
X103790000Y-88900000D01*
X96520000Y-92710000D02*
X99980000Y-92710000D01*
X114750000Y-80010000D02*
X114750000Y-99880000D01*
G04 #@! TO.N,Net-(J4-Pad8)*
X111790000Y-88900000D02*
X111790000Y-87899700D01*
G04 #@! TO.N,Net-(Q1-Pad1)*
X138430000Y-81280000D02*
X142240000Y-81280000D01*
X142240000Y-81280000D02*
X144780000Y-83820000D01*
X144780000Y-83820000D02*
X144780000Y-86360000D01*
X147320000Y-76200000D02*
X147320000Y-62230000D01*
X147320000Y-62230000D02*
X138430000Y-53340000D01*
X115570000Y-53340000D02*
X113050000Y-55860000D01*
X142240000Y-81280000D02*
X147320000Y-76200000D01*
X138430000Y-53340000D02*
X115570000Y-53340000D01*
X113050000Y-55860000D02*
X113050000Y-74479990D01*
G04 #@! TO.N,AD*
X123190000Y-88900000D02*
X123190000Y-87874700D01*
X123190000Y-87874700D02*
X123190000Y-79495300D01*
X123190000Y-79495300D02*
X119850000Y-76155300D01*
X119850000Y-74930000D02*
X119850000Y-76155300D01*
G04 #@! TD*
M02*
