G04 #@! TF.GenerationSoftware,KiCad,Pcbnew,5.0.2+dfsg1-1*
G04 #@! TF.CreationDate,2020-09-07T16:18:41-03:00*
G04 #@! TF.ProjectId,Quanser_Controller,5175616e-7365-4725-9f43-6f6e74726f6c,rev?*
G04 #@! TF.SameCoordinates,Original*
G04 #@! TF.FileFunction,Copper,L1,Top*
G04 #@! TF.FilePolarity,Positive*
%FSLAX46Y46*%
G04 Gerber Fmt 4.6, Leading zero omitted, Abs format (unit mm)*
G04 Created by KiCad (PCBNEW 5.0.2+dfsg1-1) date seg 07 set 2020 16:18:41 -03*
%MOMM*%
%LPD*%
G01*
G04 APERTURE LIST*
G04 #@! TA.AperFunction,ComponentPad*
%ADD10R,1.800000X1.800000*%
G04 #@! TD*
G04 #@! TA.AperFunction,ComponentPad*
%ADD11O,1.800000X1.800000*%
G04 #@! TD*
G04 #@! TA.AperFunction,ComponentPad*
%ADD12R,1.700000X1.700000*%
G04 #@! TD*
G04 #@! TA.AperFunction,ComponentPad*
%ADD13O,1.700000X1.700000*%
G04 #@! TD*
G04 #@! TA.AperFunction,ComponentPad*
%ADD14C,1.500000*%
G04 #@! TD*
G04 #@! TA.AperFunction,ComponentPad*
%ADD15C,1.600000*%
G04 #@! TD*
G04 #@! TA.AperFunction,ComponentPad*
%ADD16C,3.000000*%
G04 #@! TD*
G04 #@! TA.AperFunction,ComponentPad*
%ADD17R,1.350000X1.350000*%
G04 #@! TD*
G04 #@! TA.AperFunction,ComponentPad*
%ADD18O,1.350000X1.350000*%
G04 #@! TD*
G04 #@! TA.AperFunction,ComponentPad*
%ADD19R,1.980000X3.960000*%
G04 #@! TD*
G04 #@! TA.AperFunction,ComponentPad*
%ADD20O,1.980000X3.960000*%
G04 #@! TD*
G04 #@! TA.AperFunction,ComponentPad*
%ADD21O,1.500000X1.050000*%
G04 #@! TD*
G04 #@! TA.AperFunction,ComponentPad*
%ADD22R,1.500000X1.050000*%
G04 #@! TD*
G04 #@! TA.AperFunction,ComponentPad*
%ADD23C,1.400000*%
G04 #@! TD*
G04 #@! TA.AperFunction,ComponentPad*
%ADD24O,1.400000X1.400000*%
G04 #@! TD*
G04 #@! TA.AperFunction,ComponentPad*
%ADD25O,1.600000X1.600000*%
G04 #@! TD*
G04 #@! TA.AperFunction,ComponentPad*
%ADD26R,1.600000X1.600000*%
G04 #@! TD*
G04 #@! TA.AperFunction,Conductor*
%ADD27C,0.250000*%
G04 #@! TD*
G04 #@! TA.AperFunction,Conductor*
%ADD28C,0.500000*%
G04 #@! TD*
G04 #@! TA.AperFunction,Conductor*
%ADD29C,0.200000*%
G04 #@! TD*
G04 #@! TA.AperFunction,Conductor*
%ADD30C,0.254000*%
G04 #@! TD*
G04 APERTURE END LIST*
D10*
G04 #@! TO.P,U1,1*
G04 #@! TO.N,Net-(C3-Pad2)*
X107950000Y-80010000D03*
D11*
G04 #@! TO.P,U1,2*
G04 #@! TO.N,Net-(C3-Pad1)*
X109650000Y-74930000D03*
G04 #@! TO.P,U1,3*
G04 #@! TO.N,PWM*
X111350000Y-80010000D03*
G04 #@! TO.P,U1,4*
G04 #@! TO.N,Net-(Q1-Pad1)*
X113050000Y-74930000D03*
G04 #@! TO.P,U1,5*
G04 #@! TO.N,ENABLE*
X114750000Y-80010000D03*
G04 #@! TO.P,U1,6*
G04 #@! TO.N,Net-(F1-Pad2)*
X116450000Y-74930000D03*
G04 #@! TO.P,U1,7*
G04 #@! TO.N,GND*
X118150000Y-80010000D03*
G04 #@! TO.P,U1,8*
G04 #@! TO.N,AD*
X119850000Y-74930000D03*
G04 #@! TO.P,U1,9*
G04 #@! TO.N,TH_FLAG*
X121550000Y-80010000D03*
G04 #@! TO.P,U1,10*
G04 #@! TO.N,Net-(C4-Pad2)*
X123250000Y-74930000D03*
G04 #@! TO.P,U1,11*
G04 #@! TO.N,Net-(C4-Pad1)*
X124950000Y-80010000D03*
G04 #@! TD*
D12*
G04 #@! TO.P,J2,1*
G04 #@! TO.N,GND*
X198120000Y-59690000D03*
D13*
G04 #@! TO.P,J2,2*
G04 #@! TO.N,+5V*
X195580000Y-59690000D03*
G04 #@! TO.P,J2,3*
G04 #@! TO.N,Net-(J2-Pad3)*
X193040000Y-59690000D03*
G04 #@! TO.P,J2,4*
G04 #@! TO.N,Net-(J2-Pad4)*
X190500000Y-59690000D03*
G04 #@! TO.P,J2,5*
G04 #@! TO.N,Net-(J2-Pad5)*
X187960000Y-59690000D03*
G04 #@! TD*
D14*
G04 #@! TO.P,Crystal1,1*
G04 #@! TO.N,Net-(C1-Pad1)*
X162560000Y-82550000D03*
G04 #@! TO.P,Crystal1,2*
G04 #@! TO.N,Net-(C2-Pad1)*
X166360000Y-82550000D03*
G04 #@! TD*
D15*
G04 #@! TO.P,C1,1*
G04 #@! TO.N,Net-(C1-Pad1)*
X142240000Y-88900000D03*
G04 #@! TO.P,C1,2*
G04 #@! TO.N,GND*
X142240000Y-91400000D03*
G04 #@! TD*
G04 #@! TO.P,C2,2*
G04 #@! TO.N,GND*
X172720000Y-88900000D03*
G04 #@! TO.P,C2,1*
G04 #@! TO.N,Net-(C2-Pad1)*
X170220000Y-88900000D03*
G04 #@! TD*
G04 #@! TO.P,C3,1*
G04 #@! TO.N,Net-(C3-Pad1)*
X97790000Y-73660000D03*
G04 #@! TO.P,C3,2*
G04 #@! TO.N,Net-(C3-Pad2)*
X97790000Y-76160000D03*
G04 #@! TD*
G04 #@! TO.P,C4,2*
G04 #@! TO.N,Net-(C4-Pad2)*
X142240000Y-66080000D03*
G04 #@! TO.P,C4,1*
G04 #@! TO.N,Net-(C4-Pad1)*
X142240000Y-68580000D03*
G04 #@! TD*
D16*
G04 #@! TO.P,F1,1*
G04 #@! TO.N,+28V*
X154940000Y-53340000D03*
G04 #@! TO.P,F1,2*
G04 #@! TO.N,Net-(F1-Pad2)*
X154940000Y-75840000D03*
G04 #@! TD*
D17*
G04 #@! TO.P,J1,1*
G04 #@! TO.N,GND*
X97790000Y-97790000D03*
D18*
G04 #@! TO.P,J1,2*
G04 #@! TO.N,Net-(J1-Pad2)*
X97790000Y-95790000D03*
G04 #@! TO.P,J1,3*
G04 #@! TO.N,GND*
X99790000Y-97790000D03*
G04 #@! TO.P,J1,4*
G04 #@! TO.N,Net-(J1-Pad4)*
X99790000Y-95790000D03*
G04 #@! TO.P,J1,5*
G04 #@! TO.N,GND*
X101790000Y-97790000D03*
G04 #@! TO.P,J1,6*
G04 #@! TO.N,ELB1*
X101790000Y-95790000D03*
G04 #@! TO.P,J1,7*
G04 #@! TO.N,GND*
X103790000Y-97790000D03*
G04 #@! TO.P,J1,8*
G04 #@! TO.N,ELB2*
X103790000Y-95790000D03*
G04 #@! TO.P,J1,9*
G04 #@! TO.N,GND*
X105790000Y-97790000D03*
G04 #@! TO.P,J1,10*
G04 #@! TO.N,Net-(J1-Pad10)*
X105790000Y-95790000D03*
G04 #@! TO.P,J1,11*
G04 #@! TO.N,GND*
X107790000Y-97790000D03*
G04 #@! TO.P,J1,12*
G04 #@! TO.N,Net-(J1-Pad12)*
X107790000Y-95790000D03*
G04 #@! TO.P,J1,13*
G04 #@! TO.N,GND*
X109790000Y-97790000D03*
G04 #@! TO.P,J1,14*
G04 #@! TO.N,Net-(J1-Pad14)*
X109790000Y-95790000D03*
G04 #@! TO.P,J1,15*
G04 #@! TO.N,GND*
X111790000Y-97790000D03*
G04 #@! TO.P,J1,16*
G04 #@! TO.N,Net-(J1-Pad16)*
X111790000Y-95790000D03*
G04 #@! TD*
D17*
G04 #@! TO.P,J3,1*
G04 #@! TO.N,Net-(J3-Pad1)*
X182880000Y-80010000D03*
D18*
G04 #@! TO.P,J3,2*
G04 #@! TO.N,Net-(J3-Pad2)*
X184880000Y-80010000D03*
G04 #@! TO.P,J3,3*
G04 #@! TO.N,Net-(J3-Pad3)*
X186880000Y-80010000D03*
G04 #@! TO.P,J3,4*
G04 #@! TO.N,Net-(J3-Pad4)*
X188880000Y-80010000D03*
G04 #@! TO.P,J3,5*
G04 #@! TO.N,SCLK*
X190880000Y-80010000D03*
G04 #@! TO.P,J3,6*
G04 #@! TO.N,MISO*
X192880000Y-80010000D03*
G04 #@! TO.P,J3,7*
G04 #@! TO.N,MOSI*
X194880000Y-80010000D03*
G04 #@! TO.P,J3,8*
G04 #@! TO.N,#SS*
X196880000Y-80010000D03*
G04 #@! TO.P,J3,9*
G04 #@! TO.N,Net-(J3-Pad9)*
X198880000Y-80010000D03*
G04 #@! TO.P,J3,10*
G04 #@! TO.N,Net-(J3-Pad10)*
X200880000Y-80010000D03*
G04 #@! TD*
D17*
G04 #@! TO.P,J4,1*
G04 #@! TO.N,Net-(J4-Pad1)*
X97790000Y-88900000D03*
D18*
G04 #@! TO.P,J4,2*
G04 #@! TO.N,Net-(J4-Pad2)*
X99790000Y-88900000D03*
G04 #@! TO.P,J4,3*
G04 #@! TO.N,PWM*
X101790000Y-88900000D03*
G04 #@! TO.P,J4,4*
G04 #@! TO.N,ENABLE*
X103790000Y-88900000D03*
G04 #@! TO.P,J4,5*
G04 #@! TO.N,ELB1*
X105790000Y-88900000D03*
G04 #@! TO.P,J4,6*
G04 #@! TO.N,ELB2*
X107790000Y-88900000D03*
G04 #@! TO.P,J4,7*
G04 #@! TO.N,Net-(J4-Pad7)*
X109790000Y-88900000D03*
G04 #@! TO.P,J4,8*
G04 #@! TO.N,Net-(J4-Pad8)*
X111790000Y-88900000D03*
G04 #@! TD*
G04 #@! TO.P,J5,8*
G04 #@! TO.N,Net-(J5-Pad8)*
X196880000Y-53340000D03*
G04 #@! TO.P,J5,7*
G04 #@! TO.N,GND*
X194880000Y-53340000D03*
G04 #@! TO.P,J5,6*
X192880000Y-53340000D03*
G04 #@! TO.P,J5,5*
G04 #@! TO.N,+5V*
X190880000Y-53340000D03*
G04 #@! TO.P,J5,4*
G04 #@! TO.N,Net-(J5-Pad4)*
X188880000Y-53340000D03*
G04 #@! TO.P,J5,3*
G04 #@! TO.N,Net-(J5-Pad3)*
X186880000Y-53340000D03*
G04 #@! TO.P,J5,2*
G04 #@! TO.N,Net-(J5-Pad2)*
X184880000Y-53340000D03*
D17*
G04 #@! TO.P,J5,1*
G04 #@! TO.N,Net-(J5-Pad1)*
X182880000Y-53340000D03*
G04 #@! TD*
D19*
G04 #@! TO.P,J6,1*
G04 #@! TO.N,Net-(C3-Pad1)*
X97790000Y-60960000D03*
D20*
G04 #@! TO.P,J6,2*
G04 #@! TO.N,Net-(C4-Pad2)*
X102790000Y-60960000D03*
G04 #@! TD*
G04 #@! TO.P,J7,2*
G04 #@! TO.N,GND*
X125650000Y-60960000D03*
D19*
G04 #@! TO.P,J7,1*
G04 #@! TO.N,+28V*
X120650000Y-60960000D03*
G04 #@! TD*
D21*
G04 #@! TO.P,Q1,2*
G04 #@! TO.N,Net-(Q1-Pad2)*
X138430000Y-80010000D03*
G04 #@! TO.P,Q1,3*
G04 #@! TO.N,GND*
X138430000Y-78740000D03*
D22*
G04 #@! TO.P,Q1,1*
G04 #@! TO.N,Net-(Q1-Pad1)*
X138430000Y-81280000D03*
G04 #@! TD*
D23*
G04 #@! TO.P,R1,1*
G04 #@! TO.N,Net-(C1-Pad1)*
X152400000Y-96520000D03*
D24*
G04 #@! TO.P,R1,2*
G04 #@! TO.N,Net-(C2-Pad1)*
X157480000Y-96520000D03*
G04 #@! TD*
G04 #@! TO.P,R2,2*
G04 #@! TO.N,AD*
X123190000Y-88900000D03*
D23*
G04 #@! TO.P,R2,1*
G04 #@! TO.N,GND*
X118110000Y-88900000D03*
G04 #@! TD*
G04 #@! TO.P,R3,1*
G04 #@! TO.N,TH_FLAG*
X97790000Y-85090000D03*
D24*
G04 #@! TO.P,R3,2*
G04 #@! TO.N,+5V*
X97790000Y-80010000D03*
G04 #@! TD*
D23*
G04 #@! TO.P,R4,1*
G04 #@! TO.N,Net-(Q1-Pad2)*
X132080000Y-88900000D03*
D24*
G04 #@! TO.P,R4,2*
G04 #@! TO.N,ENABLE*
X132080000Y-93980000D03*
G04 #@! TD*
G04 #@! TO.P,R5,2*
G04 #@! TO.N,GND*
X120650000Y-96520000D03*
D23*
G04 #@! TO.P,R5,1*
G04 #@! TO.N,Net-(Q1-Pad2)*
X125730000Y-96520000D03*
G04 #@! TD*
D25*
G04 #@! TO.P,U2,14*
G04 #@! TO.N,+5V*
X176530000Y-66040000D03*
G04 #@! TO.P,U2,7*
G04 #@! TO.N,MOSI*
X191770000Y-73660000D03*
G04 #@! TO.P,U2,13*
G04 #@! TO.N,+5V*
X179070000Y-66040000D03*
G04 #@! TO.P,U2,6*
G04 #@! TO.N,MISO*
X189230000Y-73660000D03*
G04 #@! TO.P,U2,12*
G04 #@! TO.N,Net-(J2-Pad5)*
X181610000Y-66040000D03*
G04 #@! TO.P,U2,5*
G04 #@! TO.N,SCLK*
X186690000Y-73660000D03*
G04 #@! TO.P,U2,11*
G04 #@! TO.N,Net-(J2-Pad4)*
X184150000Y-66040000D03*
G04 #@! TO.P,U2,4*
G04 #@! TO.N,#SS*
X184150000Y-73660000D03*
G04 #@! TO.P,U2,10*
G04 #@! TO.N,Net-(U2-Pad10)*
X186690000Y-66040000D03*
G04 #@! TO.P,U2,3*
G04 #@! TO.N,GND*
X181610000Y-73660000D03*
G04 #@! TO.P,U2,9*
G04 #@! TO.N,Net-(U2-Pad9)*
X189230000Y-66040000D03*
G04 #@! TO.P,U2,2*
G04 #@! TO.N,Net-(C2-Pad1)*
X179070000Y-73660000D03*
G04 #@! TO.P,U2,8*
G04 #@! TO.N,Net-(U2-Pad8)*
X191770000Y-66040000D03*
D26*
G04 #@! TO.P,U2,1*
G04 #@! TO.N,Net-(C1-Pad1)*
X176530000Y-73660000D03*
G04 #@! TD*
D24*
G04 #@! TO.P,R6,2*
G04 #@! TO.N,Net-(Q1-Pad1)*
X144780000Y-86360000D03*
D23*
G04 #@! TO.P,R6,1*
G04 #@! TO.N,+5V*
X149860000Y-86360000D03*
G04 #@! TD*
G04 #@! TO.P,R7,1*
G04 #@! TO.N,ENABLE*
X135890000Y-99060000D03*
D24*
G04 #@! TO.P,R7,2*
G04 #@! TO.N,GND*
X140970000Y-99060000D03*
G04 #@! TD*
D17*
G04 #@! TO.P,J8,1*
G04 #@! TO.N,Net-(J8-Pad1)*
X92710000Y-81280000D03*
D18*
G04 #@! TO.P,J8,2*
G04 #@! TO.N,Net-(J8-Pad2)*
X92710000Y-79280000D03*
G04 #@! TO.P,J8,3*
G04 #@! TO.N,Net-(J8-Pad3)*
X92710000Y-77280000D03*
G04 #@! TO.P,J8,4*
G04 #@! TO.N,Net-(J8-Pad4)*
X92710000Y-75280000D03*
G04 #@! TO.P,J8,5*
G04 #@! TO.N,TH_FLAG*
X92710000Y-73280000D03*
G04 #@! TO.P,J8,6*
G04 #@! TO.N,AD*
X92710000Y-71280000D03*
G04 #@! TD*
D27*
G04 #@! TO.N,Net-(C3-Pad1)*
X109650000Y-74930000D02*
X99060000Y-74930000D01*
X99060000Y-74930000D02*
X97790000Y-73660000D01*
G04 #@! TO.N,Net-(C4-Pad2)*
X123250000Y-74930000D02*
X122024700Y-74930000D01*
X122024700Y-74930000D02*
X108054700Y-60960000D01*
X108054700Y-60960000D02*
X102790000Y-60960000D01*
D28*
G04 #@! TO.N,Net-(F1-Pad2)*
X133350000Y-76200000D02*
X132080000Y-77470000D01*
X118990000Y-77470000D02*
X116450000Y-74930000D01*
X132080000Y-77470000D02*
X118990000Y-77470000D01*
X133350000Y-76200000D02*
X137160000Y-72390000D01*
X151130000Y-72390000D02*
X154940000Y-76200000D01*
X137160000Y-72390000D02*
X151130000Y-72390000D01*
D27*
G04 #@! TO.N,+5V*
X137160000Y-74930000D02*
X133350000Y-78740000D01*
X144780000Y-74930000D02*
X137160000Y-74930000D01*
X164531600Y-78038400D02*
X160721600Y-78038400D01*
X149860000Y-80010000D02*
X144780000Y-74930000D01*
X158750000Y-80010000D02*
X149860000Y-80010000D01*
X176530000Y-66040000D02*
X164531600Y-78038400D01*
X160721600Y-78038400D02*
X158750000Y-80010000D01*
X149860000Y-80010000D02*
X149860000Y-86360000D01*
D29*
X133350000Y-78740000D02*
X118110000Y-78740000D01*
X118110000Y-78740000D02*
X116840000Y-77470000D01*
X116840000Y-77470000D02*
X102870000Y-77470000D01*
X100330000Y-80010000D02*
X97790000Y-80010000D01*
X102870000Y-77470000D02*
X100330000Y-80010000D01*
G04 #@! TO.N,TH_FLAG*
X116470000Y-85090000D02*
X121550000Y-80010000D01*
X97790000Y-85090000D02*
X116470000Y-85090000D01*
D27*
G04 #@! TO.N,PWM*
X101600000Y-88900000D02*
X101790000Y-88900000D01*
D28*
G04 #@! TO.N,+28V*
X123190000Y-67310000D02*
X120650000Y-64770000D01*
X128270000Y-67310000D02*
X123190000Y-67310000D01*
X154940000Y-53340000D02*
X142240000Y-53340000D01*
X120650000Y-64770000D02*
X120650000Y-60960000D01*
X142240000Y-53340000D02*
X128270000Y-67310000D01*
D27*
G04 #@! TO.N,ENABLE*
X132080000Y-93980000D02*
X108870000Y-93980000D01*
X108870000Y-93980000D02*
X103790000Y-88900000D01*
D29*
X114750000Y-80010000D02*
X114750000Y-79560000D01*
G04 #@! TO.N,AD*
X116200000Y-71280000D02*
X119850000Y-74930000D01*
X92710000Y-71280000D02*
X116200000Y-71280000D01*
G04 #@! TD*
D30*
G04 #@! TO.N,GND*
G36*
X153009653Y-52050183D02*
X152900791Y-52313000D01*
X142341148Y-52313000D01*
X142239999Y-52292880D01*
X142138850Y-52313000D01*
X141839285Y-52372587D01*
X141839284Y-52372588D01*
X141839283Y-52372588D01*
X141666615Y-52487961D01*
X141499574Y-52599574D01*
X141442277Y-52685325D01*
X127844604Y-66283000D01*
X123615398Y-66283000D01*
X121677000Y-64344604D01*
X121677000Y-63724862D01*
X121943170Y-63671918D01*
X122200186Y-63500186D01*
X122371918Y-63243170D01*
X122432222Y-62940000D01*
X122432222Y-61087000D01*
X124025000Y-61087000D01*
X124025000Y-62077000D01*
X124197297Y-62689193D01*
X124590754Y-63188851D01*
X125145472Y-63499905D01*
X125271135Y-63530218D01*
X125523000Y-63410740D01*
X125523000Y-61087000D01*
X125777000Y-61087000D01*
X125777000Y-63410740D01*
X126028865Y-63530218D01*
X126154528Y-63499905D01*
X126709246Y-63188851D01*
X127102703Y-62689193D01*
X127275000Y-62077000D01*
X127275000Y-61087000D01*
X125777000Y-61087000D01*
X125523000Y-61087000D01*
X124025000Y-61087000D01*
X122432222Y-61087000D01*
X122432222Y-59843000D01*
X124025000Y-59843000D01*
X124025000Y-60833000D01*
X125523000Y-60833000D01*
X125523000Y-58509260D01*
X125777000Y-58509260D01*
X125777000Y-60833000D01*
X127275000Y-60833000D01*
X127275000Y-59843000D01*
X127102703Y-59230807D01*
X126709246Y-58731149D01*
X126154528Y-58420095D01*
X126028865Y-58389782D01*
X125777000Y-58509260D01*
X125523000Y-58509260D01*
X125271135Y-58389782D01*
X125145472Y-58420095D01*
X124590754Y-58731149D01*
X124197297Y-59230807D01*
X124025000Y-59843000D01*
X122432222Y-59843000D01*
X122432222Y-58980000D01*
X122371918Y-58676830D01*
X122200186Y-58419814D01*
X121943170Y-58248082D01*
X121640000Y-58187778D01*
X119660000Y-58187778D01*
X119356830Y-58248082D01*
X119099814Y-58419814D01*
X118928082Y-58676830D01*
X118867778Y-58980000D01*
X118867778Y-62940000D01*
X118928082Y-63243170D01*
X119099814Y-63500186D01*
X119356830Y-63671918D01*
X119623000Y-63724862D01*
X119623000Y-64668851D01*
X119602880Y-64770000D01*
X119623000Y-64871149D01*
X119682587Y-65170714D01*
X119909574Y-65510426D01*
X119995330Y-65567726D01*
X122392277Y-67964675D01*
X122449574Y-68050426D01*
X122535324Y-68107722D01*
X122789283Y-68277412D01*
X122789284Y-68277412D01*
X122789285Y-68277413D01*
X123088850Y-68337000D01*
X123189999Y-68357120D01*
X123291148Y-68337000D01*
X128168851Y-68337000D01*
X128270000Y-68357120D01*
X128371149Y-68337000D01*
X128371150Y-68337000D01*
X128670715Y-68277413D01*
X129010426Y-68050426D01*
X129067726Y-67964670D01*
X131266081Y-65766315D01*
X140663000Y-65766315D01*
X140663000Y-66393685D01*
X140903084Y-66973299D01*
X141259785Y-67330000D01*
X140903084Y-67686701D01*
X140663000Y-68266315D01*
X140663000Y-68893685D01*
X140903084Y-69473299D01*
X141346701Y-69916916D01*
X141926315Y-70157000D01*
X142553685Y-70157000D01*
X143133299Y-69916916D01*
X143576916Y-69473299D01*
X143817000Y-68893685D01*
X143817000Y-68266315D01*
X143576916Y-67686701D01*
X143220215Y-67330000D01*
X143576916Y-66973299D01*
X143817000Y-66393685D01*
X143817000Y-65766315D01*
X143576916Y-65186701D01*
X143133299Y-64743084D01*
X142553685Y-64503000D01*
X141926315Y-64503000D01*
X141346701Y-64743084D01*
X140903084Y-65186701D01*
X140663000Y-65766315D01*
X131266081Y-65766315D01*
X132865483Y-64166913D01*
X152813000Y-64166913D01*
X152813000Y-65013087D01*
X153136817Y-65794848D01*
X153735152Y-66393183D01*
X154516913Y-66717000D01*
X155363087Y-66717000D01*
X156144848Y-66393183D01*
X156743183Y-65794848D01*
X157067000Y-65013087D01*
X157067000Y-64166913D01*
X156743183Y-63385152D01*
X156144848Y-62786817D01*
X155363087Y-62463000D01*
X154516913Y-62463000D01*
X153735152Y-62786817D01*
X153136817Y-63385152D01*
X152813000Y-64166913D01*
X132865483Y-64166913D01*
X137342396Y-59690000D01*
X186301126Y-59690000D01*
X186427400Y-60324824D01*
X186786999Y-60863001D01*
X187325176Y-61222600D01*
X187799758Y-61317000D01*
X188120242Y-61317000D01*
X188594824Y-61222600D01*
X189133001Y-60863001D01*
X189230000Y-60717832D01*
X189326999Y-60863001D01*
X189865176Y-61222600D01*
X190339758Y-61317000D01*
X190660242Y-61317000D01*
X191134824Y-61222600D01*
X191673001Y-60863001D01*
X191770000Y-60717832D01*
X191866999Y-60863001D01*
X192405176Y-61222600D01*
X192879758Y-61317000D01*
X193200242Y-61317000D01*
X193674824Y-61222600D01*
X194213001Y-60863001D01*
X194310000Y-60717832D01*
X194406999Y-60863001D01*
X194945176Y-61222600D01*
X195419758Y-61317000D01*
X195740242Y-61317000D01*
X196214824Y-61222600D01*
X196724391Y-60882118D01*
X196731673Y-60899698D01*
X196910301Y-61078327D01*
X197143690Y-61175000D01*
X197834250Y-61175000D01*
X197993000Y-61016250D01*
X197993000Y-59817000D01*
X198247000Y-59817000D01*
X198247000Y-61016250D01*
X198405750Y-61175000D01*
X199096310Y-61175000D01*
X199329699Y-61078327D01*
X199508327Y-60899698D01*
X199605000Y-60666309D01*
X199605000Y-59975750D01*
X199446250Y-59817000D01*
X198247000Y-59817000D01*
X197993000Y-59817000D01*
X197973000Y-59817000D01*
X197973000Y-59563000D01*
X197993000Y-59563000D01*
X197993000Y-58363750D01*
X198247000Y-58363750D01*
X198247000Y-59563000D01*
X199446250Y-59563000D01*
X199605000Y-59404250D01*
X199605000Y-58713691D01*
X199508327Y-58480302D01*
X199329699Y-58301673D01*
X199096310Y-58205000D01*
X198405750Y-58205000D01*
X198247000Y-58363750D01*
X197993000Y-58363750D01*
X197834250Y-58205000D01*
X197143690Y-58205000D01*
X196910301Y-58301673D01*
X196731673Y-58480302D01*
X196724391Y-58497882D01*
X196214824Y-58157400D01*
X195740242Y-58063000D01*
X195419758Y-58063000D01*
X194945176Y-58157400D01*
X194406999Y-58516999D01*
X194310000Y-58662168D01*
X194213001Y-58516999D01*
X193674824Y-58157400D01*
X193200242Y-58063000D01*
X192879758Y-58063000D01*
X192405176Y-58157400D01*
X191866999Y-58516999D01*
X191770000Y-58662168D01*
X191673001Y-58516999D01*
X191134824Y-58157400D01*
X190660242Y-58063000D01*
X190339758Y-58063000D01*
X189865176Y-58157400D01*
X189326999Y-58516999D01*
X189230000Y-58662168D01*
X189133001Y-58516999D01*
X188594824Y-58157400D01*
X188120242Y-58063000D01*
X187799758Y-58063000D01*
X187325176Y-58157400D01*
X186786999Y-58516999D01*
X186427400Y-59055176D01*
X186301126Y-59690000D01*
X137342396Y-59690000D01*
X142665398Y-54367000D01*
X152900791Y-54367000D01*
X153009653Y-54629817D01*
X153650183Y-55270347D01*
X154487077Y-55617000D01*
X155392923Y-55617000D01*
X156229817Y-55270347D01*
X156870347Y-54629817D01*
X157217000Y-53792923D01*
X157217000Y-52887077D01*
X157125013Y-52665000D01*
X181412778Y-52665000D01*
X181412778Y-54015000D01*
X181473082Y-54318170D01*
X181644814Y-54575186D01*
X181901830Y-54746918D01*
X182205000Y-54807222D01*
X183555000Y-54807222D01*
X183858170Y-54746918D01*
X184115121Y-54575229D01*
X184313458Y-54707754D01*
X184736992Y-54792000D01*
X185023008Y-54792000D01*
X185446542Y-54707754D01*
X185880000Y-54418126D01*
X186313458Y-54707754D01*
X186736992Y-54792000D01*
X187023008Y-54792000D01*
X187446542Y-54707754D01*
X187880000Y-54418126D01*
X188313458Y-54707754D01*
X188736992Y-54792000D01*
X189023008Y-54792000D01*
X189446542Y-54707754D01*
X189880000Y-54418126D01*
X190313458Y-54707754D01*
X190736992Y-54792000D01*
X191023008Y-54792000D01*
X191446542Y-54707754D01*
X191926833Y-54386833D01*
X192000226Y-54276993D01*
X192216367Y-54469478D01*
X192550600Y-54607910D01*
X192753000Y-54484224D01*
X192753000Y-53467000D01*
X193007000Y-53467000D01*
X193007000Y-54484224D01*
X193209400Y-54607910D01*
X193543633Y-54469478D01*
X193880000Y-54169926D01*
X194216367Y-54469478D01*
X194550600Y-54607910D01*
X194753000Y-54484224D01*
X194753000Y-53467000D01*
X193007000Y-53467000D01*
X192753000Y-53467000D01*
X192733000Y-53467000D01*
X192733000Y-53213000D01*
X192753000Y-53213000D01*
X192753000Y-52195776D01*
X193007000Y-52195776D01*
X193007000Y-53213000D01*
X194753000Y-53213000D01*
X194753000Y-52195776D01*
X195007000Y-52195776D01*
X195007000Y-53213000D01*
X195027000Y-53213000D01*
X195027000Y-53467000D01*
X195007000Y-53467000D01*
X195007000Y-54484224D01*
X195209400Y-54607910D01*
X195543633Y-54469478D01*
X195759774Y-54276993D01*
X195833167Y-54386833D01*
X196313458Y-54707754D01*
X196736992Y-54792000D01*
X197023008Y-54792000D01*
X197446542Y-54707754D01*
X197926833Y-54386833D01*
X198247754Y-53906542D01*
X198360446Y-53340000D01*
X198247754Y-52773458D01*
X197926833Y-52293167D01*
X197446542Y-51972246D01*
X197023008Y-51888000D01*
X196736992Y-51888000D01*
X196313458Y-51972246D01*
X195833167Y-52293167D01*
X195759774Y-52403007D01*
X195543633Y-52210522D01*
X195209400Y-52072090D01*
X195007000Y-52195776D01*
X194753000Y-52195776D01*
X194550600Y-52072090D01*
X194216367Y-52210522D01*
X193880000Y-52510074D01*
X193543633Y-52210522D01*
X193209400Y-52072090D01*
X193007000Y-52195776D01*
X192753000Y-52195776D01*
X192550600Y-52072090D01*
X192216367Y-52210522D01*
X192000226Y-52403007D01*
X191926833Y-52293167D01*
X191446542Y-51972246D01*
X191023008Y-51888000D01*
X190736992Y-51888000D01*
X190313458Y-51972246D01*
X189880000Y-52261874D01*
X189446542Y-51972246D01*
X189023008Y-51888000D01*
X188736992Y-51888000D01*
X188313458Y-51972246D01*
X187880000Y-52261874D01*
X187446542Y-51972246D01*
X187023008Y-51888000D01*
X186736992Y-51888000D01*
X186313458Y-51972246D01*
X185880000Y-52261874D01*
X185446542Y-51972246D01*
X185023008Y-51888000D01*
X184736992Y-51888000D01*
X184313458Y-51972246D01*
X184115121Y-52104771D01*
X183858170Y-51933082D01*
X183555000Y-51872778D01*
X182205000Y-51872778D01*
X181901830Y-51933082D01*
X181644814Y-52104814D01*
X181473082Y-52361830D01*
X181412778Y-52665000D01*
X157125013Y-52665000D01*
X156870347Y-52050183D01*
X156472164Y-51652000D01*
X202348000Y-51652000D01*
X202348001Y-79947432D01*
X202247754Y-79443458D01*
X201926833Y-78963167D01*
X201446542Y-78642246D01*
X201023008Y-78558000D01*
X200736992Y-78558000D01*
X200313458Y-78642246D01*
X199880000Y-78931874D01*
X199446542Y-78642246D01*
X199023008Y-78558000D01*
X198736992Y-78558000D01*
X198313458Y-78642246D01*
X197880000Y-78931874D01*
X197446542Y-78642246D01*
X197023008Y-78558000D01*
X196736992Y-78558000D01*
X196313458Y-78642246D01*
X195880000Y-78931874D01*
X195446542Y-78642246D01*
X195023008Y-78558000D01*
X194736992Y-78558000D01*
X194313458Y-78642246D01*
X193880000Y-78931874D01*
X193446542Y-78642246D01*
X193023008Y-78558000D01*
X192736992Y-78558000D01*
X192313458Y-78642246D01*
X191880000Y-78931874D01*
X191446542Y-78642246D01*
X191023008Y-78558000D01*
X190736992Y-78558000D01*
X190313458Y-78642246D01*
X189880000Y-78931874D01*
X189446542Y-78642246D01*
X189023008Y-78558000D01*
X188736992Y-78558000D01*
X188313458Y-78642246D01*
X187880000Y-78931874D01*
X187446542Y-78642246D01*
X187023008Y-78558000D01*
X186736992Y-78558000D01*
X186313458Y-78642246D01*
X185880000Y-78931874D01*
X185446542Y-78642246D01*
X185023008Y-78558000D01*
X184736992Y-78558000D01*
X184313458Y-78642246D01*
X184115121Y-78774771D01*
X183858170Y-78603082D01*
X183555000Y-78542778D01*
X182205000Y-78542778D01*
X181901830Y-78603082D01*
X181644814Y-78774814D01*
X181473082Y-79031830D01*
X181412778Y-79335000D01*
X181412778Y-80685000D01*
X181473082Y-80988170D01*
X181644814Y-81245186D01*
X181901830Y-81416918D01*
X182205000Y-81477222D01*
X183555000Y-81477222D01*
X183858170Y-81416918D01*
X184115121Y-81245229D01*
X184313458Y-81377754D01*
X184736992Y-81462000D01*
X185023008Y-81462000D01*
X185446542Y-81377754D01*
X185880000Y-81088126D01*
X186313458Y-81377754D01*
X186736992Y-81462000D01*
X187023008Y-81462000D01*
X187446542Y-81377754D01*
X187880000Y-81088126D01*
X188313458Y-81377754D01*
X188736992Y-81462000D01*
X189023008Y-81462000D01*
X189446542Y-81377754D01*
X189880000Y-81088126D01*
X190313458Y-81377754D01*
X190736992Y-81462000D01*
X191023008Y-81462000D01*
X191446542Y-81377754D01*
X191880000Y-81088126D01*
X192313458Y-81377754D01*
X192736992Y-81462000D01*
X193023008Y-81462000D01*
X193446542Y-81377754D01*
X193880000Y-81088126D01*
X194313458Y-81377754D01*
X194736992Y-81462000D01*
X195023008Y-81462000D01*
X195446542Y-81377754D01*
X195880000Y-81088126D01*
X196313458Y-81377754D01*
X196736992Y-81462000D01*
X197023008Y-81462000D01*
X197446542Y-81377754D01*
X197880000Y-81088126D01*
X198313458Y-81377754D01*
X198736992Y-81462000D01*
X199023008Y-81462000D01*
X199446542Y-81377754D01*
X199880000Y-81088126D01*
X200313458Y-81377754D01*
X200736992Y-81462000D01*
X201023008Y-81462000D01*
X201446542Y-81377754D01*
X201926833Y-81056833D01*
X202247754Y-80576542D01*
X202348001Y-80072567D01*
X202348001Y-100748000D01*
X89752000Y-100748000D01*
X89752000Y-98075750D01*
X96480000Y-98075750D01*
X96480000Y-98591309D01*
X96576673Y-98824698D01*
X96755301Y-99003327D01*
X96988690Y-99100000D01*
X97504250Y-99100000D01*
X97663000Y-98941250D01*
X97663000Y-97917000D01*
X97917000Y-97917000D01*
X97917000Y-98941250D01*
X98075750Y-99100000D01*
X98591310Y-99100000D01*
X98824699Y-99003327D01*
X99003327Y-98824698D01*
X99007803Y-98813891D01*
X99126367Y-98919478D01*
X99460600Y-99057910D01*
X99663000Y-98934224D01*
X99663000Y-97917000D01*
X99917000Y-97917000D01*
X99917000Y-98934224D01*
X100119400Y-99057910D01*
X100453633Y-98919478D01*
X100790000Y-98619926D01*
X101126367Y-98919478D01*
X101460600Y-99057910D01*
X101663000Y-98934224D01*
X101663000Y-97917000D01*
X101917000Y-97917000D01*
X101917000Y-98934224D01*
X102119400Y-99057910D01*
X102453633Y-98919478D01*
X102790000Y-98619926D01*
X103126367Y-98919478D01*
X103460600Y-99057910D01*
X103663000Y-98934224D01*
X103663000Y-97917000D01*
X103917000Y-97917000D01*
X103917000Y-98934224D01*
X104119400Y-99057910D01*
X104453633Y-98919478D01*
X104790000Y-98619926D01*
X105126367Y-98919478D01*
X105460600Y-99057910D01*
X105663000Y-98934224D01*
X105663000Y-97917000D01*
X105917000Y-97917000D01*
X105917000Y-98934224D01*
X106119400Y-99057910D01*
X106453633Y-98919478D01*
X106790000Y-98619926D01*
X107126367Y-98919478D01*
X107460600Y-99057910D01*
X107663000Y-98934224D01*
X107663000Y-97917000D01*
X107917000Y-97917000D01*
X107917000Y-98934224D01*
X108119400Y-99057910D01*
X108453633Y-98919478D01*
X108790000Y-98619926D01*
X109126367Y-98919478D01*
X109460600Y-99057910D01*
X109663000Y-98934224D01*
X109663000Y-97917000D01*
X109917000Y-97917000D01*
X109917000Y-98934224D01*
X110119400Y-99057910D01*
X110453633Y-98919478D01*
X110790000Y-98619926D01*
X111126367Y-98919478D01*
X111460600Y-99057910D01*
X111663000Y-98934224D01*
X111663000Y-97917000D01*
X111917000Y-97917000D01*
X111917000Y-98934224D01*
X112119400Y-99057910D01*
X112453633Y-98919478D01*
X112625741Y-98766206D01*
X134413000Y-98766206D01*
X134413000Y-99353794D01*
X134637860Y-99896653D01*
X135053347Y-100312140D01*
X135596206Y-100537000D01*
X136183794Y-100537000D01*
X136726653Y-100312140D01*
X137142140Y-99896653D01*
X137350624Y-99393329D01*
X139677284Y-99393329D01*
X139820203Y-99738396D01*
X140167337Y-100126764D01*
X140636669Y-100352727D01*
X140843000Y-100230206D01*
X140843000Y-99187000D01*
X141097000Y-99187000D01*
X141097000Y-100230206D01*
X141303331Y-100352727D01*
X141772663Y-100126764D01*
X142119797Y-99738396D01*
X142262716Y-99393329D01*
X142139374Y-99187000D01*
X141097000Y-99187000D01*
X140843000Y-99187000D01*
X139800626Y-99187000D01*
X139677284Y-99393329D01*
X137350624Y-99393329D01*
X137367000Y-99353794D01*
X137367000Y-98766206D01*
X137350625Y-98726671D01*
X139677284Y-98726671D01*
X139800626Y-98933000D01*
X140843000Y-98933000D01*
X140843000Y-97889794D01*
X141097000Y-97889794D01*
X141097000Y-98933000D01*
X142139374Y-98933000D01*
X142262716Y-98726671D01*
X142119797Y-98381604D01*
X141772663Y-97993236D01*
X141303331Y-97767273D01*
X141097000Y-97889794D01*
X140843000Y-97889794D01*
X140636669Y-97767273D01*
X140167337Y-97993236D01*
X139820203Y-98381604D01*
X139677284Y-98726671D01*
X137350625Y-98726671D01*
X137142140Y-98223347D01*
X136726653Y-97807860D01*
X136183794Y-97583000D01*
X135596206Y-97583000D01*
X135053347Y-97807860D01*
X134637860Y-98223347D01*
X134413000Y-98766206D01*
X112625741Y-98766206D01*
X112835349Y-98579540D01*
X113057920Y-98119402D01*
X112935090Y-97917000D01*
X111917000Y-97917000D01*
X111663000Y-97917000D01*
X109917000Y-97917000D01*
X109663000Y-97917000D01*
X107917000Y-97917000D01*
X107663000Y-97917000D01*
X105917000Y-97917000D01*
X105663000Y-97917000D01*
X103917000Y-97917000D01*
X103663000Y-97917000D01*
X101917000Y-97917000D01*
X101663000Y-97917000D01*
X99917000Y-97917000D01*
X99663000Y-97917000D01*
X97917000Y-97917000D01*
X97663000Y-97917000D01*
X96638750Y-97917000D01*
X96480000Y-98075750D01*
X89752000Y-98075750D01*
X89752000Y-95790000D01*
X96309554Y-95790000D01*
X96422246Y-96356542D01*
X96643822Y-96688153D01*
X96576673Y-96755302D01*
X96480000Y-96988691D01*
X96480000Y-97504250D01*
X96638750Y-97663000D01*
X97663000Y-97663000D01*
X97663000Y-97643000D01*
X97917000Y-97643000D01*
X97917000Y-97663000D01*
X99663000Y-97663000D01*
X99663000Y-97643000D01*
X99917000Y-97643000D01*
X99917000Y-97663000D01*
X101663000Y-97663000D01*
X101663000Y-97643000D01*
X101917000Y-97643000D01*
X101917000Y-97663000D01*
X103663000Y-97663000D01*
X103663000Y-97643000D01*
X103917000Y-97643000D01*
X103917000Y-97663000D01*
X105663000Y-97663000D01*
X105663000Y-97643000D01*
X105917000Y-97643000D01*
X105917000Y-97663000D01*
X107663000Y-97663000D01*
X107663000Y-97643000D01*
X107917000Y-97643000D01*
X107917000Y-97663000D01*
X109663000Y-97663000D01*
X109663000Y-97643000D01*
X109917000Y-97643000D01*
X109917000Y-97663000D01*
X111663000Y-97663000D01*
X111663000Y-97643000D01*
X111917000Y-97643000D01*
X111917000Y-97663000D01*
X112935090Y-97663000D01*
X113057920Y-97460598D01*
X112835349Y-97000460D01*
X112731011Y-96907541D01*
X112812144Y-96853329D01*
X119357284Y-96853329D01*
X119500203Y-97198396D01*
X119847337Y-97586764D01*
X120316669Y-97812727D01*
X120523000Y-97690206D01*
X120523000Y-96647000D01*
X120777000Y-96647000D01*
X120777000Y-97690206D01*
X120983331Y-97812727D01*
X121452663Y-97586764D01*
X121799797Y-97198396D01*
X121942716Y-96853329D01*
X121819374Y-96647000D01*
X120777000Y-96647000D01*
X120523000Y-96647000D01*
X119480626Y-96647000D01*
X119357284Y-96853329D01*
X112812144Y-96853329D01*
X112836833Y-96836833D01*
X113157754Y-96356542D01*
X113191543Y-96186671D01*
X119357284Y-96186671D01*
X119480626Y-96393000D01*
X120523000Y-96393000D01*
X120523000Y-95349794D01*
X120777000Y-95349794D01*
X120777000Y-96393000D01*
X121819374Y-96393000D01*
X121919082Y-96226206D01*
X124253000Y-96226206D01*
X124253000Y-96813794D01*
X124477860Y-97356653D01*
X124893347Y-97772140D01*
X125436206Y-97997000D01*
X126023794Y-97997000D01*
X126566653Y-97772140D01*
X126982140Y-97356653D01*
X127207000Y-96813794D01*
X127207000Y-96226206D01*
X150923000Y-96226206D01*
X150923000Y-96813794D01*
X151147860Y-97356653D01*
X151563347Y-97772140D01*
X152106206Y-97997000D01*
X152693794Y-97997000D01*
X153236653Y-97772140D01*
X153652140Y-97356653D01*
X153877000Y-96813794D01*
X153877000Y-96520000D01*
X155974064Y-96520000D01*
X156088697Y-97096297D01*
X156415142Y-97584858D01*
X156903703Y-97911303D01*
X157334529Y-97997000D01*
X157625471Y-97997000D01*
X158056297Y-97911303D01*
X158544858Y-97584858D01*
X158871303Y-97096297D01*
X158985936Y-96520000D01*
X158871303Y-95943703D01*
X158544858Y-95455142D01*
X158056297Y-95128697D01*
X157625471Y-95043000D01*
X157334529Y-95043000D01*
X156903703Y-95128697D01*
X156415142Y-95455142D01*
X156088697Y-95943703D01*
X155974064Y-96520000D01*
X153877000Y-96520000D01*
X153877000Y-96226206D01*
X153652140Y-95683347D01*
X153236653Y-95267860D01*
X152693794Y-95043000D01*
X152106206Y-95043000D01*
X151563347Y-95267860D01*
X151147860Y-95683347D01*
X150923000Y-96226206D01*
X127207000Y-96226206D01*
X126982140Y-95683347D01*
X126566653Y-95267860D01*
X126023794Y-95043000D01*
X125436206Y-95043000D01*
X124893347Y-95267860D01*
X124477860Y-95683347D01*
X124253000Y-96226206D01*
X121919082Y-96226206D01*
X121942716Y-96186671D01*
X121799797Y-95841604D01*
X121452663Y-95453236D01*
X120983331Y-95227273D01*
X120777000Y-95349794D01*
X120523000Y-95349794D01*
X120316669Y-95227273D01*
X119847337Y-95453236D01*
X119500203Y-95841604D01*
X119357284Y-96186671D01*
X113191543Y-96186671D01*
X113270446Y-95790000D01*
X113157754Y-95223458D01*
X112929598Y-94882000D01*
X130906324Y-94882000D01*
X131015142Y-95044858D01*
X131503703Y-95371303D01*
X131934529Y-95457000D01*
X132225471Y-95457000D01*
X132656297Y-95371303D01*
X133144858Y-95044858D01*
X133471303Y-94556297D01*
X133585936Y-93980000D01*
X133471303Y-93403703D01*
X133144858Y-92915142D01*
X132656297Y-92588697D01*
X132225471Y-92503000D01*
X131934529Y-92503000D01*
X131503703Y-92588697D01*
X131015142Y-92915142D01*
X130906324Y-93078000D01*
X109243621Y-93078000D01*
X108573366Y-92407745D01*
X141411861Y-92407745D01*
X141485995Y-92653864D01*
X142023223Y-92846965D01*
X142593454Y-92819778D01*
X142994005Y-92653864D01*
X143068139Y-92407745D01*
X142240000Y-91579605D01*
X141411861Y-92407745D01*
X108573366Y-92407745D01*
X107348844Y-91183223D01*
X140793035Y-91183223D01*
X140820222Y-91753454D01*
X140986136Y-92154005D01*
X141232255Y-92228139D01*
X142060395Y-91400000D01*
X142419605Y-91400000D01*
X143247745Y-92228139D01*
X143493864Y-92154005D01*
X143686965Y-91616777D01*
X143659778Y-91046546D01*
X143493864Y-90645995D01*
X143247745Y-90571861D01*
X142419605Y-91400000D01*
X142060395Y-91400000D01*
X141232255Y-90571861D01*
X140986136Y-90645995D01*
X140793035Y-91183223D01*
X107348844Y-91183223D01*
X106402600Y-90236979D01*
X106790000Y-89978126D01*
X107223458Y-90267754D01*
X107646992Y-90352000D01*
X107933008Y-90352000D01*
X108356542Y-90267754D01*
X108790000Y-89978126D01*
X109223458Y-90267754D01*
X109646992Y-90352000D01*
X109933008Y-90352000D01*
X110356542Y-90267754D01*
X110790000Y-89978126D01*
X111223458Y-90267754D01*
X111646992Y-90352000D01*
X111933008Y-90352000D01*
X112356542Y-90267754D01*
X112836833Y-89946833D01*
X112911373Y-89835275D01*
X117354331Y-89835275D01*
X117416169Y-90071042D01*
X117917122Y-90247419D01*
X118447440Y-90218664D01*
X118803831Y-90071042D01*
X118865669Y-89835275D01*
X118110000Y-89079605D01*
X117354331Y-89835275D01*
X112911373Y-89835275D01*
X113157754Y-89466542D01*
X113270446Y-88900000D01*
X113232081Y-88707122D01*
X116762581Y-88707122D01*
X116791336Y-89237440D01*
X116938958Y-89593831D01*
X117174725Y-89655669D01*
X117930395Y-88900000D01*
X118289605Y-88900000D01*
X119045275Y-89655669D01*
X119281042Y-89593831D01*
X119457419Y-89092878D01*
X119446961Y-88900000D01*
X121684064Y-88900000D01*
X121798697Y-89476297D01*
X122125142Y-89964858D01*
X122613703Y-90291303D01*
X123044529Y-90377000D01*
X123335471Y-90377000D01*
X123766297Y-90291303D01*
X124254858Y-89964858D01*
X124581303Y-89476297D01*
X124695936Y-88900000D01*
X124637497Y-88606206D01*
X130603000Y-88606206D01*
X130603000Y-89193794D01*
X130827860Y-89736653D01*
X131243347Y-90152140D01*
X131786206Y-90377000D01*
X132373794Y-90377000D01*
X132916653Y-90152140D01*
X133332140Y-89736653D01*
X133557000Y-89193794D01*
X133557000Y-88606206D01*
X133548761Y-88586315D01*
X140663000Y-88586315D01*
X140663000Y-89213685D01*
X140903084Y-89793299D01*
X141346701Y-90236916D01*
X141446233Y-90278143D01*
X141411861Y-90392255D01*
X142240000Y-91220395D01*
X143068139Y-90392255D01*
X143033767Y-90278143D01*
X143133299Y-90236916D01*
X143576916Y-89793299D01*
X143817000Y-89213685D01*
X143817000Y-88586315D01*
X168643000Y-88586315D01*
X168643000Y-89213685D01*
X168883084Y-89793299D01*
X169326701Y-90236916D01*
X169906315Y-90477000D01*
X170533685Y-90477000D01*
X171113299Y-90236916D01*
X171442470Y-89907745D01*
X171891861Y-89907745D01*
X171965995Y-90153864D01*
X172503223Y-90346965D01*
X173073454Y-90319778D01*
X173474005Y-90153864D01*
X173548139Y-89907745D01*
X172720000Y-89079605D01*
X171891861Y-89907745D01*
X171442470Y-89907745D01*
X171556916Y-89793299D01*
X171598143Y-89693767D01*
X171712255Y-89728139D01*
X172540395Y-88900000D01*
X172899605Y-88900000D01*
X173727745Y-89728139D01*
X173973864Y-89654005D01*
X174166965Y-89116777D01*
X174139778Y-88546546D01*
X173973864Y-88145995D01*
X173727745Y-88071861D01*
X172899605Y-88900000D01*
X172540395Y-88900000D01*
X171712255Y-88071861D01*
X171598143Y-88106233D01*
X171556916Y-88006701D01*
X171442470Y-87892255D01*
X171891861Y-87892255D01*
X172720000Y-88720395D01*
X173548139Y-87892255D01*
X173474005Y-87646136D01*
X172936777Y-87453035D01*
X172366546Y-87480222D01*
X171965995Y-87646136D01*
X171891861Y-87892255D01*
X171442470Y-87892255D01*
X171113299Y-87563084D01*
X170533685Y-87323000D01*
X169906315Y-87323000D01*
X169326701Y-87563084D01*
X168883084Y-88006701D01*
X168643000Y-88586315D01*
X143817000Y-88586315D01*
X143576916Y-88006701D01*
X143133299Y-87563084D01*
X142553685Y-87323000D01*
X141926315Y-87323000D01*
X141346701Y-87563084D01*
X140903084Y-88006701D01*
X140663000Y-88586315D01*
X133548761Y-88586315D01*
X133332140Y-88063347D01*
X132916653Y-87647860D01*
X132373794Y-87423000D01*
X131786206Y-87423000D01*
X131243347Y-87647860D01*
X130827860Y-88063347D01*
X130603000Y-88606206D01*
X124637497Y-88606206D01*
X124581303Y-88323703D01*
X124254858Y-87835142D01*
X123766297Y-87508697D01*
X123335471Y-87423000D01*
X123044529Y-87423000D01*
X122613703Y-87508697D01*
X122125142Y-87835142D01*
X121798697Y-88323703D01*
X121684064Y-88900000D01*
X119446961Y-88900000D01*
X119428664Y-88562560D01*
X119281042Y-88206169D01*
X119045275Y-88144331D01*
X118289605Y-88900000D01*
X117930395Y-88900000D01*
X117174725Y-88144331D01*
X116938958Y-88206169D01*
X116762581Y-88707122D01*
X113232081Y-88707122D01*
X113157754Y-88333458D01*
X112911374Y-87964725D01*
X117354331Y-87964725D01*
X118110000Y-88720395D01*
X118865669Y-87964725D01*
X118803831Y-87728958D01*
X118302878Y-87552581D01*
X117772560Y-87581336D01*
X117416169Y-87728958D01*
X117354331Y-87964725D01*
X112911374Y-87964725D01*
X112836833Y-87853167D01*
X112356542Y-87532246D01*
X111933008Y-87448000D01*
X111646992Y-87448000D01*
X111223458Y-87532246D01*
X110790000Y-87821874D01*
X110356542Y-87532246D01*
X109933008Y-87448000D01*
X109646992Y-87448000D01*
X109223458Y-87532246D01*
X108790000Y-87821874D01*
X108356542Y-87532246D01*
X107933008Y-87448000D01*
X107646992Y-87448000D01*
X107223458Y-87532246D01*
X106790000Y-87821874D01*
X106356542Y-87532246D01*
X105933008Y-87448000D01*
X105646992Y-87448000D01*
X105223458Y-87532246D01*
X104790000Y-87821874D01*
X104356542Y-87532246D01*
X103933008Y-87448000D01*
X103646992Y-87448000D01*
X103223458Y-87532246D01*
X102790000Y-87821874D01*
X102356542Y-87532246D01*
X101933008Y-87448000D01*
X101646992Y-87448000D01*
X101223458Y-87532246D01*
X100790000Y-87821874D01*
X100356542Y-87532246D01*
X99933008Y-87448000D01*
X99646992Y-87448000D01*
X99223458Y-87532246D01*
X99025121Y-87664771D01*
X98768170Y-87493082D01*
X98465000Y-87432778D01*
X97115000Y-87432778D01*
X96811830Y-87493082D01*
X96554814Y-87664814D01*
X96383082Y-87921830D01*
X96322778Y-88225000D01*
X96322778Y-89575000D01*
X96383082Y-89878170D01*
X96554814Y-90135186D01*
X96811830Y-90306918D01*
X97115000Y-90367222D01*
X98465000Y-90367222D01*
X98768170Y-90306918D01*
X99025121Y-90135229D01*
X99223458Y-90267754D01*
X99646992Y-90352000D01*
X99933008Y-90352000D01*
X100356542Y-90267754D01*
X100790000Y-89978126D01*
X101223458Y-90267754D01*
X101646992Y-90352000D01*
X101933008Y-90352000D01*
X102356542Y-90267754D01*
X102790000Y-89978126D01*
X103223458Y-90267754D01*
X103646992Y-90352000D01*
X103933008Y-90352000D01*
X103960843Y-90346463D01*
X107957189Y-94342810D01*
X107933008Y-94338000D01*
X107646992Y-94338000D01*
X107223458Y-94422246D01*
X106790000Y-94711874D01*
X106356542Y-94422246D01*
X105933008Y-94338000D01*
X105646992Y-94338000D01*
X105223458Y-94422246D01*
X104790000Y-94711874D01*
X104356542Y-94422246D01*
X103933008Y-94338000D01*
X103646992Y-94338000D01*
X103223458Y-94422246D01*
X102790000Y-94711874D01*
X102356542Y-94422246D01*
X101933008Y-94338000D01*
X101646992Y-94338000D01*
X101223458Y-94422246D01*
X100790000Y-94711874D01*
X100356542Y-94422246D01*
X99933008Y-94338000D01*
X99646992Y-94338000D01*
X99223458Y-94422246D01*
X98790000Y-94711874D01*
X98356542Y-94422246D01*
X97933008Y-94338000D01*
X97646992Y-94338000D01*
X97223458Y-94422246D01*
X96743167Y-94743167D01*
X96422246Y-95223458D01*
X96309554Y-95790000D01*
X89752000Y-95790000D01*
X89752000Y-71280000D01*
X91229554Y-71280000D01*
X91342246Y-71846542D01*
X91631874Y-72280000D01*
X91342246Y-72713458D01*
X91229554Y-73280000D01*
X91342246Y-73846542D01*
X91631874Y-74280000D01*
X91342246Y-74713458D01*
X91229554Y-75280000D01*
X91342246Y-75846542D01*
X91631874Y-76280000D01*
X91342246Y-76713458D01*
X91229554Y-77280000D01*
X91342246Y-77846542D01*
X91631874Y-78280000D01*
X91342246Y-78713458D01*
X91229554Y-79280000D01*
X91342246Y-79846542D01*
X91474771Y-80044879D01*
X91303082Y-80301830D01*
X91242778Y-80605000D01*
X91242778Y-81955000D01*
X91303082Y-82258170D01*
X91474814Y-82515186D01*
X91731830Y-82686918D01*
X92035000Y-82747222D01*
X93385000Y-82747222D01*
X93688170Y-82686918D01*
X93945186Y-82515186D01*
X94116918Y-82258170D01*
X94177222Y-81955000D01*
X94177222Y-80605000D01*
X94116918Y-80301830D01*
X93945229Y-80044879D01*
X94077754Y-79846542D01*
X94190446Y-79280000D01*
X94077754Y-78713458D01*
X93788126Y-78280000D01*
X94077754Y-77846542D01*
X94190446Y-77280000D01*
X94077754Y-76713458D01*
X93788126Y-76280000D01*
X94077754Y-75846542D01*
X94190446Y-75280000D01*
X94077754Y-74713458D01*
X93788126Y-74280000D01*
X94077754Y-73846542D01*
X94190446Y-73280000D01*
X94077754Y-72713458D01*
X93788126Y-72280000D01*
X93870312Y-72157000D01*
X97297663Y-72157000D01*
X96896701Y-72323084D01*
X96453084Y-72766701D01*
X96213000Y-73346315D01*
X96213000Y-73973685D01*
X96453084Y-74553299D01*
X96809785Y-74910000D01*
X96453084Y-75266701D01*
X96213000Y-75846315D01*
X96213000Y-76473685D01*
X96453084Y-77053299D01*
X96896701Y-77496916D01*
X97476315Y-77737000D01*
X98103685Y-77737000D01*
X98683299Y-77496916D01*
X99126916Y-77053299D01*
X99367000Y-76473685D01*
X99367000Y-75846315D01*
X99361071Y-75832000D01*
X108235787Y-75832000D01*
X108440951Y-76139049D01*
X108995667Y-76509699D01*
X109414449Y-76593000D01*
X102956369Y-76593000D01*
X102869999Y-76575820D01*
X102783629Y-76593000D01*
X102783625Y-76593000D01*
X102527812Y-76643884D01*
X102527811Y-76643885D01*
X102527810Y-76643885D01*
X102395938Y-76732000D01*
X102237719Y-76837719D01*
X102188792Y-76910943D01*
X99966736Y-79133000D01*
X98980380Y-79133000D01*
X98854858Y-78945142D01*
X98366297Y-78618697D01*
X97935471Y-78533000D01*
X97644529Y-78533000D01*
X97213703Y-78618697D01*
X96725142Y-78945142D01*
X96398697Y-79433703D01*
X96284064Y-80010000D01*
X96398697Y-80586297D01*
X96725142Y-81074858D01*
X97213703Y-81401303D01*
X97644529Y-81487000D01*
X97935471Y-81487000D01*
X98366297Y-81401303D01*
X98854858Y-81074858D01*
X98980380Y-80887000D01*
X100243630Y-80887000D01*
X100330000Y-80904180D01*
X100416370Y-80887000D01*
X100416375Y-80887000D01*
X100672188Y-80836116D01*
X100962281Y-80642281D01*
X101011210Y-80569054D01*
X103233265Y-78347000D01*
X106903090Y-78347000D01*
X106746830Y-78378082D01*
X106489814Y-78549814D01*
X106318082Y-78806830D01*
X106257778Y-79110000D01*
X106257778Y-80910000D01*
X106318082Y-81213170D01*
X106489814Y-81470186D01*
X106746830Y-81641918D01*
X107050000Y-81702222D01*
X108850000Y-81702222D01*
X109153170Y-81641918D01*
X109410186Y-81470186D01*
X109581918Y-81213170D01*
X109642222Y-80910000D01*
X109642222Y-80020437D01*
X109770301Y-80664333D01*
X110140951Y-81219049D01*
X110695667Y-81589699D01*
X111184832Y-81687000D01*
X111515168Y-81687000D01*
X112004333Y-81589699D01*
X112559049Y-81219049D01*
X112929699Y-80664333D01*
X113050000Y-80059539D01*
X113170301Y-80664333D01*
X113540951Y-81219049D01*
X114095667Y-81589699D01*
X114584832Y-81687000D01*
X114915168Y-81687000D01*
X115404333Y-81589699D01*
X115959049Y-81219049D01*
X116329699Y-80664333D01*
X116387302Y-80374740D01*
X116658964Y-80374740D01*
X116837760Y-80806417D01*
X117242424Y-81247966D01*
X117785258Y-81501046D01*
X118023000Y-81380997D01*
X118023000Y-80137000D01*
X118277000Y-80137000D01*
X118277000Y-81380997D01*
X118514742Y-81501046D01*
X119057576Y-81247966D01*
X119462240Y-80806417D01*
X119641036Y-80374740D01*
X119520378Y-80137000D01*
X118277000Y-80137000D01*
X118023000Y-80137000D01*
X116779622Y-80137000D01*
X116658964Y-80374740D01*
X116387302Y-80374740D01*
X116459854Y-80010000D01*
X116329699Y-79355667D01*
X115959049Y-78800951D01*
X115404333Y-78430301D01*
X114985551Y-78347000D01*
X116476736Y-78347000D01*
X117079521Y-78949786D01*
X116837760Y-79213583D01*
X116658964Y-79645260D01*
X116779622Y-79883000D01*
X118023000Y-79883000D01*
X118023000Y-79863000D01*
X118277000Y-79863000D01*
X118277000Y-79883000D01*
X119520378Y-79883000D01*
X119641036Y-79645260D01*
X119629331Y-79617000D01*
X119918319Y-79617000D01*
X119840146Y-80010000D01*
X119918056Y-80401679D01*
X116106736Y-84213000D01*
X99001793Y-84213000D01*
X98626653Y-83837860D01*
X98083794Y-83613000D01*
X97496206Y-83613000D01*
X96953347Y-83837860D01*
X96537860Y-84253347D01*
X96313000Y-84796206D01*
X96313000Y-85383794D01*
X96537860Y-85926653D01*
X96953347Y-86342140D01*
X97496206Y-86567000D01*
X98083794Y-86567000D01*
X98583535Y-86360000D01*
X143274064Y-86360000D01*
X143388697Y-86936297D01*
X143715142Y-87424858D01*
X144203703Y-87751303D01*
X144634529Y-87837000D01*
X144925471Y-87837000D01*
X145356297Y-87751303D01*
X145844858Y-87424858D01*
X146171303Y-86936297D01*
X146285936Y-86360000D01*
X146171303Y-85783703D01*
X145844858Y-85295142D01*
X145356297Y-84968697D01*
X144925471Y-84883000D01*
X144634529Y-84883000D01*
X144203703Y-84968697D01*
X143715142Y-85295142D01*
X143388697Y-85783703D01*
X143274064Y-86360000D01*
X98583535Y-86360000D01*
X98626653Y-86342140D01*
X99001793Y-85967000D01*
X116383630Y-85967000D01*
X116470000Y-85984180D01*
X116556370Y-85967000D01*
X116556375Y-85967000D01*
X116812188Y-85916116D01*
X117102281Y-85722281D01*
X117151210Y-85649054D01*
X121158321Y-81641944D01*
X121384832Y-81687000D01*
X121715168Y-81687000D01*
X122204333Y-81589699D01*
X122759049Y-81219049D01*
X123129699Y-80664333D01*
X123250000Y-80059539D01*
X123370301Y-80664333D01*
X123740951Y-81219049D01*
X124295667Y-81589699D01*
X124784832Y-81687000D01*
X125115168Y-81687000D01*
X125604333Y-81589699D01*
X126159049Y-81219049D01*
X126529699Y-80664333D01*
X126659854Y-80010000D01*
X136877493Y-80010000D01*
X136961410Y-80431883D01*
X136948082Y-80451830D01*
X136887778Y-80755000D01*
X136887778Y-81805000D01*
X136948082Y-82108170D01*
X137119814Y-82365186D01*
X137376830Y-82536918D01*
X137680000Y-82597222D01*
X139180000Y-82597222D01*
X139483170Y-82536918D01*
X139740186Y-82365186D01*
X139911918Y-82108170D01*
X139972222Y-81805000D01*
X139972222Y-80755000D01*
X139911918Y-80451830D01*
X139898590Y-80431883D01*
X139982507Y-80010000D01*
X139881457Y-79501985D01*
X139697549Y-79226748D01*
X139765266Y-79107336D01*
X139773964Y-79045810D01*
X139648163Y-78867000D01*
X139287917Y-78867000D01*
X139163015Y-78783543D01*
X138783233Y-78708000D01*
X138076767Y-78708000D01*
X137696985Y-78783543D01*
X137572083Y-78867000D01*
X137211837Y-78867000D01*
X137086036Y-79045810D01*
X137094734Y-79107336D01*
X137162451Y-79226748D01*
X136978543Y-79501985D01*
X136877493Y-80010000D01*
X126659854Y-80010000D01*
X126581681Y-79617000D01*
X133135480Y-79617000D01*
X133350000Y-79659671D01*
X133701942Y-79589665D01*
X133924992Y-79440628D01*
X134931430Y-78434190D01*
X137086036Y-78434190D01*
X137211837Y-78613000D01*
X138303000Y-78613000D01*
X138303000Y-77733407D01*
X138557000Y-77733407D01*
X138557000Y-78613000D01*
X139648163Y-78613000D01*
X139773964Y-78434190D01*
X139765266Y-78372664D01*
X139540179Y-77975745D01*
X139180331Y-77695177D01*
X138740506Y-77573674D01*
X138557000Y-77733407D01*
X138303000Y-77733407D01*
X138119494Y-77573674D01*
X137679669Y-77695177D01*
X137319821Y-77975745D01*
X137094734Y-78372664D01*
X137086036Y-78434190D01*
X134931430Y-78434190D01*
X137533621Y-75832000D01*
X144406380Y-75832000D01*
X148958000Y-80383621D01*
X148958001Y-85173206D01*
X148607860Y-85523347D01*
X148383000Y-86066206D01*
X148383000Y-86653794D01*
X148607860Y-87196653D01*
X149023347Y-87612140D01*
X149566206Y-87837000D01*
X150153794Y-87837000D01*
X150696653Y-87612140D01*
X151112140Y-87196653D01*
X151337000Y-86653794D01*
X151337000Y-86066206D01*
X151112140Y-85523347D01*
X150762000Y-85173207D01*
X150762000Y-82246261D01*
X161033000Y-82246261D01*
X161033000Y-82853739D01*
X161265472Y-83414976D01*
X161695024Y-83844528D01*
X162256261Y-84077000D01*
X162863739Y-84077000D01*
X163424976Y-83844528D01*
X163854528Y-83414976D01*
X164087000Y-82853739D01*
X164087000Y-82246261D01*
X164833000Y-82246261D01*
X164833000Y-82853739D01*
X165065472Y-83414976D01*
X165495024Y-83844528D01*
X166056261Y-84077000D01*
X166663739Y-84077000D01*
X167224976Y-83844528D01*
X167654528Y-83414976D01*
X167887000Y-82853739D01*
X167887000Y-82246261D01*
X167654528Y-81685024D01*
X167224976Y-81255472D01*
X166663739Y-81023000D01*
X166056261Y-81023000D01*
X165495024Y-81255472D01*
X165065472Y-81685024D01*
X164833000Y-82246261D01*
X164087000Y-82246261D01*
X163854528Y-81685024D01*
X163424976Y-81255472D01*
X162863739Y-81023000D01*
X162256261Y-81023000D01*
X161695024Y-81255472D01*
X161265472Y-81685024D01*
X161033000Y-82246261D01*
X150762000Y-82246261D01*
X150762000Y-80912000D01*
X158661162Y-80912000D01*
X158750000Y-80929671D01*
X158838838Y-80912000D01*
X159101943Y-80859665D01*
X159400306Y-80660306D01*
X159450631Y-80584989D01*
X161095220Y-78940400D01*
X164442762Y-78940400D01*
X164531600Y-78958071D01*
X164620438Y-78940400D01*
X164883543Y-78888065D01*
X165181906Y-78688706D01*
X165232231Y-78613389D01*
X170985620Y-72860000D01*
X174937778Y-72860000D01*
X174937778Y-74460000D01*
X174998082Y-74763170D01*
X175169814Y-75020186D01*
X175426830Y-75191918D01*
X175730000Y-75252222D01*
X177330000Y-75252222D01*
X177633170Y-75191918D01*
X177890186Y-75020186D01*
X178006535Y-74846056D01*
X178454685Y-75145501D01*
X178914681Y-75237000D01*
X179225319Y-75237000D01*
X179685315Y-75145501D01*
X180206953Y-74796953D01*
X180431758Y-74460509D01*
X180457611Y-74515134D01*
X180872577Y-74891041D01*
X181260961Y-75051904D01*
X181483000Y-74929915D01*
X181483000Y-73787000D01*
X181463000Y-73787000D01*
X181463000Y-73533000D01*
X181483000Y-73533000D01*
X181483000Y-72390085D01*
X181737000Y-72390085D01*
X181737000Y-73533000D01*
X181757000Y-73533000D01*
X181757000Y-73787000D01*
X181737000Y-73787000D01*
X181737000Y-74929915D01*
X181959039Y-75051904D01*
X182347423Y-74891041D01*
X182762389Y-74515134D01*
X182788242Y-74460509D01*
X183013047Y-74796953D01*
X183534685Y-75145501D01*
X183994681Y-75237000D01*
X184305319Y-75237000D01*
X184765315Y-75145501D01*
X185286953Y-74796953D01*
X185420000Y-74597834D01*
X185553047Y-74796953D01*
X186074685Y-75145501D01*
X186534681Y-75237000D01*
X186845319Y-75237000D01*
X187305315Y-75145501D01*
X187826953Y-74796953D01*
X187960000Y-74597834D01*
X188093047Y-74796953D01*
X188614685Y-75145501D01*
X189074681Y-75237000D01*
X189385319Y-75237000D01*
X189845315Y-75145501D01*
X190366953Y-74796953D01*
X190500000Y-74597834D01*
X190633047Y-74796953D01*
X191154685Y-75145501D01*
X191614681Y-75237000D01*
X191925319Y-75237000D01*
X192385315Y-75145501D01*
X192906953Y-74796953D01*
X193255501Y-74275315D01*
X193377895Y-73660000D01*
X193255501Y-73044685D01*
X192906953Y-72523047D01*
X192385315Y-72174499D01*
X191925319Y-72083000D01*
X191614681Y-72083000D01*
X191154685Y-72174499D01*
X190633047Y-72523047D01*
X190500000Y-72722166D01*
X190366953Y-72523047D01*
X189845315Y-72174499D01*
X189385319Y-72083000D01*
X189074681Y-72083000D01*
X188614685Y-72174499D01*
X188093047Y-72523047D01*
X187960000Y-72722166D01*
X187826953Y-72523047D01*
X187305315Y-72174499D01*
X186845319Y-72083000D01*
X186534681Y-72083000D01*
X186074685Y-72174499D01*
X185553047Y-72523047D01*
X185420000Y-72722166D01*
X185286953Y-72523047D01*
X184765315Y-72174499D01*
X184305319Y-72083000D01*
X183994681Y-72083000D01*
X183534685Y-72174499D01*
X183013047Y-72523047D01*
X182788242Y-72859491D01*
X182762389Y-72804866D01*
X182347423Y-72428959D01*
X181959039Y-72268096D01*
X181737000Y-72390085D01*
X181483000Y-72390085D01*
X181260961Y-72268096D01*
X180872577Y-72428959D01*
X180457611Y-72804866D01*
X180431758Y-72859491D01*
X180206953Y-72523047D01*
X179685315Y-72174499D01*
X179225319Y-72083000D01*
X178914681Y-72083000D01*
X178454685Y-72174499D01*
X178006535Y-72473944D01*
X177890186Y-72299814D01*
X177633170Y-72128082D01*
X177330000Y-72067778D01*
X175730000Y-72067778D01*
X175426830Y-72128082D01*
X175169814Y-72299814D01*
X174998082Y-72556830D01*
X174937778Y-72860000D01*
X170985620Y-72860000D01*
X176252854Y-67592767D01*
X176374681Y-67617000D01*
X176685319Y-67617000D01*
X177145315Y-67525501D01*
X177666953Y-67176953D01*
X177800000Y-66977834D01*
X177933047Y-67176953D01*
X178454685Y-67525501D01*
X178914681Y-67617000D01*
X179225319Y-67617000D01*
X179685315Y-67525501D01*
X180206953Y-67176953D01*
X180340000Y-66977834D01*
X180473047Y-67176953D01*
X180994685Y-67525501D01*
X181454681Y-67617000D01*
X181765319Y-67617000D01*
X182225315Y-67525501D01*
X182746953Y-67176953D01*
X182880000Y-66977834D01*
X183013047Y-67176953D01*
X183534685Y-67525501D01*
X183994681Y-67617000D01*
X184305319Y-67617000D01*
X184765315Y-67525501D01*
X185286953Y-67176953D01*
X185420000Y-66977834D01*
X185553047Y-67176953D01*
X186074685Y-67525501D01*
X186534681Y-67617000D01*
X186845319Y-67617000D01*
X187305315Y-67525501D01*
X187826953Y-67176953D01*
X187960000Y-66977834D01*
X188093047Y-67176953D01*
X188614685Y-67525501D01*
X189074681Y-67617000D01*
X189385319Y-67617000D01*
X189845315Y-67525501D01*
X190366953Y-67176953D01*
X190500000Y-66977834D01*
X190633047Y-67176953D01*
X191154685Y-67525501D01*
X191614681Y-67617000D01*
X191925319Y-67617000D01*
X192385315Y-67525501D01*
X192906953Y-67176953D01*
X193255501Y-66655315D01*
X193377895Y-66040000D01*
X193255501Y-65424685D01*
X192906953Y-64903047D01*
X192385315Y-64554499D01*
X191925319Y-64463000D01*
X191614681Y-64463000D01*
X191154685Y-64554499D01*
X190633047Y-64903047D01*
X190500000Y-65102166D01*
X190366953Y-64903047D01*
X189845315Y-64554499D01*
X189385319Y-64463000D01*
X189074681Y-64463000D01*
X188614685Y-64554499D01*
X188093047Y-64903047D01*
X187960000Y-65102166D01*
X187826953Y-64903047D01*
X187305315Y-64554499D01*
X186845319Y-64463000D01*
X186534681Y-64463000D01*
X186074685Y-64554499D01*
X185553047Y-64903047D01*
X185420000Y-65102166D01*
X185286953Y-64903047D01*
X184765315Y-64554499D01*
X184305319Y-64463000D01*
X183994681Y-64463000D01*
X183534685Y-64554499D01*
X183013047Y-64903047D01*
X182880000Y-65102166D01*
X182746953Y-64903047D01*
X182225315Y-64554499D01*
X181765319Y-64463000D01*
X181454681Y-64463000D01*
X180994685Y-64554499D01*
X180473047Y-64903047D01*
X180340000Y-65102166D01*
X180206953Y-64903047D01*
X179685315Y-64554499D01*
X179225319Y-64463000D01*
X178914681Y-64463000D01*
X178454685Y-64554499D01*
X177933047Y-64903047D01*
X177800000Y-65102166D01*
X177666953Y-64903047D01*
X177145315Y-64554499D01*
X176685319Y-64463000D01*
X176374681Y-64463000D01*
X175914685Y-64554499D01*
X175393047Y-64903047D01*
X175044499Y-65424685D01*
X174922105Y-66040000D01*
X174977233Y-66317146D01*
X164157980Y-77136400D01*
X160810436Y-77136400D01*
X160721599Y-77118729D01*
X160632763Y-77136400D01*
X160632762Y-77136400D01*
X160369657Y-77188735D01*
X160071294Y-77388094D01*
X160020969Y-77463411D01*
X158376380Y-79108000D01*
X150233621Y-79108000D01*
X145480631Y-74355011D01*
X145430306Y-74279694D01*
X145131943Y-74080335D01*
X144868838Y-74028000D01*
X144780000Y-74010329D01*
X144691162Y-74028000D01*
X137248838Y-74028000D01*
X137160000Y-74010329D01*
X137071162Y-74028000D01*
X136950370Y-74052027D01*
X137585397Y-73417000D01*
X150704604Y-73417000D01*
X152666421Y-75378818D01*
X152663000Y-75387077D01*
X152663000Y-76292923D01*
X153009653Y-77129817D01*
X153650183Y-77770347D01*
X154487077Y-78117000D01*
X155392923Y-78117000D01*
X156229817Y-77770347D01*
X156870347Y-77129817D01*
X157217000Y-76292923D01*
X157217000Y-75387077D01*
X156870347Y-74550183D01*
X156229817Y-73909653D01*
X155392923Y-73563000D01*
X154487077Y-73563000D01*
X153969701Y-73777304D01*
X151927726Y-71735330D01*
X151870426Y-71649574D01*
X151530715Y-71422587D01*
X151231150Y-71363000D01*
X151231149Y-71363000D01*
X151130000Y-71342880D01*
X151028851Y-71363000D01*
X137261149Y-71363000D01*
X137160000Y-71342880D01*
X137058851Y-71363000D01*
X137058850Y-71363000D01*
X136759285Y-71422587D01*
X136419574Y-71649574D01*
X136362275Y-71735328D01*
X132695328Y-75402276D01*
X132695325Y-75402278D01*
X131654604Y-76443000D01*
X124004155Y-76443000D01*
X124459049Y-76139049D01*
X124829699Y-75584333D01*
X124959854Y-74930000D01*
X124829699Y-74275667D01*
X124459049Y-73720951D01*
X123904333Y-73350301D01*
X123415168Y-73253000D01*
X123084832Y-73253000D01*
X122595667Y-73350301D01*
X122071116Y-73700796D01*
X108755331Y-60385011D01*
X108705006Y-60309694D01*
X108406643Y-60110335D01*
X108143538Y-60058000D01*
X108054700Y-60040329D01*
X107965862Y-60058000D01*
X104557000Y-60058000D01*
X104557000Y-59795969D01*
X104454477Y-59280551D01*
X104063936Y-58696064D01*
X103479448Y-58305523D01*
X102790000Y-58168383D01*
X102100551Y-58305523D01*
X101516064Y-58696064D01*
X101125523Y-59280552D01*
X101023000Y-59795970D01*
X101023001Y-62124031D01*
X101125524Y-62639449D01*
X101516065Y-63223936D01*
X102100552Y-63614477D01*
X102790000Y-63751617D01*
X103479449Y-63614477D01*
X104063936Y-63223936D01*
X104454477Y-62639449D01*
X104557000Y-62124031D01*
X104557000Y-61862000D01*
X107681080Y-61862000D01*
X116206117Y-70387037D01*
X116200000Y-70385820D01*
X116113630Y-70403000D01*
X93870312Y-70403000D01*
X93756833Y-70233167D01*
X93276542Y-69912246D01*
X92853008Y-69828000D01*
X92566992Y-69828000D01*
X92143458Y-69912246D01*
X91663167Y-70233167D01*
X91342246Y-70713458D01*
X91229554Y-71280000D01*
X89752000Y-71280000D01*
X89752000Y-58980000D01*
X96007778Y-58980000D01*
X96007778Y-62940000D01*
X96068082Y-63243170D01*
X96239814Y-63500186D01*
X96496830Y-63671918D01*
X96800000Y-63732222D01*
X98780000Y-63732222D01*
X99083170Y-63671918D01*
X99340186Y-63500186D01*
X99511918Y-63243170D01*
X99572222Y-62940000D01*
X99572222Y-58980000D01*
X99511918Y-58676830D01*
X99340186Y-58419814D01*
X99083170Y-58248082D01*
X98780000Y-58187778D01*
X96800000Y-58187778D01*
X96496830Y-58248082D01*
X96239814Y-58419814D01*
X96068082Y-58676830D01*
X96007778Y-58980000D01*
X89752000Y-58980000D01*
X89752000Y-51652000D01*
X153407836Y-51652000D01*
X153009653Y-52050183D01*
X153009653Y-52050183D01*
G37*
X153009653Y-52050183D02*
X152900791Y-52313000D01*
X142341148Y-52313000D01*
X142239999Y-52292880D01*
X142138850Y-52313000D01*
X141839285Y-52372587D01*
X141839284Y-52372588D01*
X141839283Y-52372588D01*
X141666615Y-52487961D01*
X141499574Y-52599574D01*
X141442277Y-52685325D01*
X127844604Y-66283000D01*
X123615398Y-66283000D01*
X121677000Y-64344604D01*
X121677000Y-63724862D01*
X121943170Y-63671918D01*
X122200186Y-63500186D01*
X122371918Y-63243170D01*
X122432222Y-62940000D01*
X122432222Y-61087000D01*
X124025000Y-61087000D01*
X124025000Y-62077000D01*
X124197297Y-62689193D01*
X124590754Y-63188851D01*
X125145472Y-63499905D01*
X125271135Y-63530218D01*
X125523000Y-63410740D01*
X125523000Y-61087000D01*
X125777000Y-61087000D01*
X125777000Y-63410740D01*
X126028865Y-63530218D01*
X126154528Y-63499905D01*
X126709246Y-63188851D01*
X127102703Y-62689193D01*
X127275000Y-62077000D01*
X127275000Y-61087000D01*
X125777000Y-61087000D01*
X125523000Y-61087000D01*
X124025000Y-61087000D01*
X122432222Y-61087000D01*
X122432222Y-59843000D01*
X124025000Y-59843000D01*
X124025000Y-60833000D01*
X125523000Y-60833000D01*
X125523000Y-58509260D01*
X125777000Y-58509260D01*
X125777000Y-60833000D01*
X127275000Y-60833000D01*
X127275000Y-59843000D01*
X127102703Y-59230807D01*
X126709246Y-58731149D01*
X126154528Y-58420095D01*
X126028865Y-58389782D01*
X125777000Y-58509260D01*
X125523000Y-58509260D01*
X125271135Y-58389782D01*
X125145472Y-58420095D01*
X124590754Y-58731149D01*
X124197297Y-59230807D01*
X124025000Y-59843000D01*
X122432222Y-59843000D01*
X122432222Y-58980000D01*
X122371918Y-58676830D01*
X122200186Y-58419814D01*
X121943170Y-58248082D01*
X121640000Y-58187778D01*
X119660000Y-58187778D01*
X119356830Y-58248082D01*
X119099814Y-58419814D01*
X118928082Y-58676830D01*
X118867778Y-58980000D01*
X118867778Y-62940000D01*
X118928082Y-63243170D01*
X119099814Y-63500186D01*
X119356830Y-63671918D01*
X119623000Y-63724862D01*
X119623000Y-64668851D01*
X119602880Y-64770000D01*
X119623000Y-64871149D01*
X119682587Y-65170714D01*
X119909574Y-65510426D01*
X119995330Y-65567726D01*
X122392277Y-67964675D01*
X122449574Y-68050426D01*
X122535324Y-68107722D01*
X122789283Y-68277412D01*
X122789284Y-68277412D01*
X122789285Y-68277413D01*
X123088850Y-68337000D01*
X123189999Y-68357120D01*
X123291148Y-68337000D01*
X128168851Y-68337000D01*
X128270000Y-68357120D01*
X128371149Y-68337000D01*
X128371150Y-68337000D01*
X128670715Y-68277413D01*
X129010426Y-68050426D01*
X129067726Y-67964670D01*
X131266081Y-65766315D01*
X140663000Y-65766315D01*
X140663000Y-66393685D01*
X140903084Y-66973299D01*
X141259785Y-67330000D01*
X140903084Y-67686701D01*
X140663000Y-68266315D01*
X140663000Y-68893685D01*
X140903084Y-69473299D01*
X141346701Y-69916916D01*
X141926315Y-70157000D01*
X142553685Y-70157000D01*
X143133299Y-69916916D01*
X143576916Y-69473299D01*
X143817000Y-68893685D01*
X143817000Y-68266315D01*
X143576916Y-67686701D01*
X143220215Y-67330000D01*
X143576916Y-66973299D01*
X143817000Y-66393685D01*
X143817000Y-65766315D01*
X143576916Y-65186701D01*
X143133299Y-64743084D01*
X142553685Y-64503000D01*
X141926315Y-64503000D01*
X141346701Y-64743084D01*
X140903084Y-65186701D01*
X140663000Y-65766315D01*
X131266081Y-65766315D01*
X132865483Y-64166913D01*
X152813000Y-64166913D01*
X152813000Y-65013087D01*
X153136817Y-65794848D01*
X153735152Y-66393183D01*
X154516913Y-66717000D01*
X155363087Y-66717000D01*
X156144848Y-66393183D01*
X156743183Y-65794848D01*
X157067000Y-65013087D01*
X157067000Y-64166913D01*
X156743183Y-63385152D01*
X156144848Y-62786817D01*
X155363087Y-62463000D01*
X154516913Y-62463000D01*
X153735152Y-62786817D01*
X153136817Y-63385152D01*
X152813000Y-64166913D01*
X132865483Y-64166913D01*
X137342396Y-59690000D01*
X186301126Y-59690000D01*
X186427400Y-60324824D01*
X186786999Y-60863001D01*
X187325176Y-61222600D01*
X187799758Y-61317000D01*
X188120242Y-61317000D01*
X188594824Y-61222600D01*
X189133001Y-60863001D01*
X189230000Y-60717832D01*
X189326999Y-60863001D01*
X189865176Y-61222600D01*
X190339758Y-61317000D01*
X190660242Y-61317000D01*
X191134824Y-61222600D01*
X191673001Y-60863001D01*
X191770000Y-60717832D01*
X191866999Y-60863001D01*
X192405176Y-61222600D01*
X192879758Y-61317000D01*
X193200242Y-61317000D01*
X193674824Y-61222600D01*
X194213001Y-60863001D01*
X194310000Y-60717832D01*
X194406999Y-60863001D01*
X194945176Y-61222600D01*
X195419758Y-61317000D01*
X195740242Y-61317000D01*
X196214824Y-61222600D01*
X196724391Y-60882118D01*
X196731673Y-60899698D01*
X196910301Y-61078327D01*
X197143690Y-61175000D01*
X197834250Y-61175000D01*
X197993000Y-61016250D01*
X197993000Y-59817000D01*
X198247000Y-59817000D01*
X198247000Y-61016250D01*
X198405750Y-61175000D01*
X199096310Y-61175000D01*
X199329699Y-61078327D01*
X199508327Y-60899698D01*
X199605000Y-60666309D01*
X199605000Y-59975750D01*
X199446250Y-59817000D01*
X198247000Y-59817000D01*
X197993000Y-59817000D01*
X197973000Y-59817000D01*
X197973000Y-59563000D01*
X197993000Y-59563000D01*
X197993000Y-58363750D01*
X198247000Y-58363750D01*
X198247000Y-59563000D01*
X199446250Y-59563000D01*
X199605000Y-59404250D01*
X199605000Y-58713691D01*
X199508327Y-58480302D01*
X199329699Y-58301673D01*
X199096310Y-58205000D01*
X198405750Y-58205000D01*
X198247000Y-58363750D01*
X197993000Y-58363750D01*
X197834250Y-58205000D01*
X197143690Y-58205000D01*
X196910301Y-58301673D01*
X196731673Y-58480302D01*
X196724391Y-58497882D01*
X196214824Y-58157400D01*
X195740242Y-58063000D01*
X195419758Y-58063000D01*
X194945176Y-58157400D01*
X194406999Y-58516999D01*
X194310000Y-58662168D01*
X194213001Y-58516999D01*
X193674824Y-58157400D01*
X193200242Y-58063000D01*
X192879758Y-58063000D01*
X192405176Y-58157400D01*
X191866999Y-58516999D01*
X191770000Y-58662168D01*
X191673001Y-58516999D01*
X191134824Y-58157400D01*
X190660242Y-58063000D01*
X190339758Y-58063000D01*
X189865176Y-58157400D01*
X189326999Y-58516999D01*
X189230000Y-58662168D01*
X189133001Y-58516999D01*
X188594824Y-58157400D01*
X188120242Y-58063000D01*
X187799758Y-58063000D01*
X187325176Y-58157400D01*
X186786999Y-58516999D01*
X186427400Y-59055176D01*
X186301126Y-59690000D01*
X137342396Y-59690000D01*
X142665398Y-54367000D01*
X152900791Y-54367000D01*
X153009653Y-54629817D01*
X153650183Y-55270347D01*
X154487077Y-55617000D01*
X155392923Y-55617000D01*
X156229817Y-55270347D01*
X156870347Y-54629817D01*
X157217000Y-53792923D01*
X157217000Y-52887077D01*
X157125013Y-52665000D01*
X181412778Y-52665000D01*
X181412778Y-54015000D01*
X181473082Y-54318170D01*
X181644814Y-54575186D01*
X181901830Y-54746918D01*
X182205000Y-54807222D01*
X183555000Y-54807222D01*
X183858170Y-54746918D01*
X184115121Y-54575229D01*
X184313458Y-54707754D01*
X184736992Y-54792000D01*
X185023008Y-54792000D01*
X185446542Y-54707754D01*
X185880000Y-54418126D01*
X186313458Y-54707754D01*
X186736992Y-54792000D01*
X187023008Y-54792000D01*
X187446542Y-54707754D01*
X187880000Y-54418126D01*
X188313458Y-54707754D01*
X188736992Y-54792000D01*
X189023008Y-54792000D01*
X189446542Y-54707754D01*
X189880000Y-54418126D01*
X190313458Y-54707754D01*
X190736992Y-54792000D01*
X191023008Y-54792000D01*
X191446542Y-54707754D01*
X191926833Y-54386833D01*
X192000226Y-54276993D01*
X192216367Y-54469478D01*
X192550600Y-54607910D01*
X192753000Y-54484224D01*
X192753000Y-53467000D01*
X193007000Y-53467000D01*
X193007000Y-54484224D01*
X193209400Y-54607910D01*
X193543633Y-54469478D01*
X193880000Y-54169926D01*
X194216367Y-54469478D01*
X194550600Y-54607910D01*
X194753000Y-54484224D01*
X194753000Y-53467000D01*
X193007000Y-53467000D01*
X192753000Y-53467000D01*
X192733000Y-53467000D01*
X192733000Y-53213000D01*
X192753000Y-53213000D01*
X192753000Y-52195776D01*
X193007000Y-52195776D01*
X193007000Y-53213000D01*
X194753000Y-53213000D01*
X194753000Y-52195776D01*
X195007000Y-52195776D01*
X195007000Y-53213000D01*
X195027000Y-53213000D01*
X195027000Y-53467000D01*
X195007000Y-53467000D01*
X195007000Y-54484224D01*
X195209400Y-54607910D01*
X195543633Y-54469478D01*
X195759774Y-54276993D01*
X195833167Y-54386833D01*
X196313458Y-54707754D01*
X196736992Y-54792000D01*
X197023008Y-54792000D01*
X197446542Y-54707754D01*
X197926833Y-54386833D01*
X198247754Y-53906542D01*
X198360446Y-53340000D01*
X198247754Y-52773458D01*
X197926833Y-52293167D01*
X197446542Y-51972246D01*
X197023008Y-51888000D01*
X196736992Y-51888000D01*
X196313458Y-51972246D01*
X195833167Y-52293167D01*
X195759774Y-52403007D01*
X195543633Y-52210522D01*
X195209400Y-52072090D01*
X195007000Y-52195776D01*
X194753000Y-52195776D01*
X194550600Y-52072090D01*
X194216367Y-52210522D01*
X193880000Y-52510074D01*
X193543633Y-52210522D01*
X193209400Y-52072090D01*
X193007000Y-52195776D01*
X192753000Y-52195776D01*
X192550600Y-52072090D01*
X192216367Y-52210522D01*
X192000226Y-52403007D01*
X191926833Y-52293167D01*
X191446542Y-51972246D01*
X191023008Y-51888000D01*
X190736992Y-51888000D01*
X190313458Y-51972246D01*
X189880000Y-52261874D01*
X189446542Y-51972246D01*
X189023008Y-51888000D01*
X188736992Y-51888000D01*
X188313458Y-51972246D01*
X187880000Y-52261874D01*
X187446542Y-51972246D01*
X187023008Y-51888000D01*
X186736992Y-51888000D01*
X186313458Y-51972246D01*
X185880000Y-52261874D01*
X185446542Y-51972246D01*
X185023008Y-51888000D01*
X184736992Y-51888000D01*
X184313458Y-51972246D01*
X184115121Y-52104771D01*
X183858170Y-51933082D01*
X183555000Y-51872778D01*
X182205000Y-51872778D01*
X181901830Y-51933082D01*
X181644814Y-52104814D01*
X181473082Y-52361830D01*
X181412778Y-52665000D01*
X157125013Y-52665000D01*
X156870347Y-52050183D01*
X156472164Y-51652000D01*
X202348000Y-51652000D01*
X202348001Y-79947432D01*
X202247754Y-79443458D01*
X201926833Y-78963167D01*
X201446542Y-78642246D01*
X201023008Y-78558000D01*
X200736992Y-78558000D01*
X200313458Y-78642246D01*
X199880000Y-78931874D01*
X199446542Y-78642246D01*
X199023008Y-78558000D01*
X198736992Y-78558000D01*
X198313458Y-78642246D01*
X197880000Y-78931874D01*
X197446542Y-78642246D01*
X197023008Y-78558000D01*
X196736992Y-78558000D01*
X196313458Y-78642246D01*
X195880000Y-78931874D01*
X195446542Y-78642246D01*
X195023008Y-78558000D01*
X194736992Y-78558000D01*
X194313458Y-78642246D01*
X193880000Y-78931874D01*
X193446542Y-78642246D01*
X193023008Y-78558000D01*
X192736992Y-78558000D01*
X192313458Y-78642246D01*
X191880000Y-78931874D01*
X191446542Y-78642246D01*
X191023008Y-78558000D01*
X190736992Y-78558000D01*
X190313458Y-78642246D01*
X189880000Y-78931874D01*
X189446542Y-78642246D01*
X189023008Y-78558000D01*
X188736992Y-78558000D01*
X188313458Y-78642246D01*
X187880000Y-78931874D01*
X187446542Y-78642246D01*
X187023008Y-78558000D01*
X186736992Y-78558000D01*
X186313458Y-78642246D01*
X185880000Y-78931874D01*
X185446542Y-78642246D01*
X185023008Y-78558000D01*
X184736992Y-78558000D01*
X184313458Y-78642246D01*
X184115121Y-78774771D01*
X183858170Y-78603082D01*
X183555000Y-78542778D01*
X182205000Y-78542778D01*
X181901830Y-78603082D01*
X181644814Y-78774814D01*
X181473082Y-79031830D01*
X181412778Y-79335000D01*
X181412778Y-80685000D01*
X181473082Y-80988170D01*
X181644814Y-81245186D01*
X181901830Y-81416918D01*
X182205000Y-81477222D01*
X183555000Y-81477222D01*
X183858170Y-81416918D01*
X184115121Y-81245229D01*
X184313458Y-81377754D01*
X184736992Y-81462000D01*
X185023008Y-81462000D01*
X185446542Y-81377754D01*
X185880000Y-81088126D01*
X186313458Y-81377754D01*
X186736992Y-81462000D01*
X187023008Y-81462000D01*
X187446542Y-81377754D01*
X187880000Y-81088126D01*
X188313458Y-81377754D01*
X188736992Y-81462000D01*
X189023008Y-81462000D01*
X189446542Y-81377754D01*
X189880000Y-81088126D01*
X190313458Y-81377754D01*
X190736992Y-81462000D01*
X191023008Y-81462000D01*
X191446542Y-81377754D01*
X191880000Y-81088126D01*
X192313458Y-81377754D01*
X192736992Y-81462000D01*
X193023008Y-81462000D01*
X193446542Y-81377754D01*
X193880000Y-81088126D01*
X194313458Y-81377754D01*
X194736992Y-81462000D01*
X195023008Y-81462000D01*
X195446542Y-81377754D01*
X195880000Y-81088126D01*
X196313458Y-81377754D01*
X196736992Y-81462000D01*
X197023008Y-81462000D01*
X197446542Y-81377754D01*
X197880000Y-81088126D01*
X198313458Y-81377754D01*
X198736992Y-81462000D01*
X199023008Y-81462000D01*
X199446542Y-81377754D01*
X199880000Y-81088126D01*
X200313458Y-81377754D01*
X200736992Y-81462000D01*
X201023008Y-81462000D01*
X201446542Y-81377754D01*
X201926833Y-81056833D01*
X202247754Y-80576542D01*
X202348001Y-80072567D01*
X202348001Y-100748000D01*
X89752000Y-100748000D01*
X89752000Y-98075750D01*
X96480000Y-98075750D01*
X96480000Y-98591309D01*
X96576673Y-98824698D01*
X96755301Y-99003327D01*
X96988690Y-99100000D01*
X97504250Y-99100000D01*
X97663000Y-98941250D01*
X97663000Y-97917000D01*
X97917000Y-97917000D01*
X97917000Y-98941250D01*
X98075750Y-99100000D01*
X98591310Y-99100000D01*
X98824699Y-99003327D01*
X99003327Y-98824698D01*
X99007803Y-98813891D01*
X99126367Y-98919478D01*
X99460600Y-99057910D01*
X99663000Y-98934224D01*
X99663000Y-97917000D01*
X99917000Y-97917000D01*
X99917000Y-98934224D01*
X100119400Y-99057910D01*
X100453633Y-98919478D01*
X100790000Y-98619926D01*
X101126367Y-98919478D01*
X101460600Y-99057910D01*
X101663000Y-98934224D01*
X101663000Y-97917000D01*
X101917000Y-97917000D01*
X101917000Y-98934224D01*
X102119400Y-99057910D01*
X102453633Y-98919478D01*
X102790000Y-98619926D01*
X103126367Y-98919478D01*
X103460600Y-99057910D01*
X103663000Y-98934224D01*
X103663000Y-97917000D01*
X103917000Y-97917000D01*
X103917000Y-98934224D01*
X104119400Y-99057910D01*
X104453633Y-98919478D01*
X104790000Y-98619926D01*
X105126367Y-98919478D01*
X105460600Y-99057910D01*
X105663000Y-98934224D01*
X105663000Y-97917000D01*
X105917000Y-97917000D01*
X105917000Y-98934224D01*
X106119400Y-99057910D01*
X106453633Y-98919478D01*
X106790000Y-98619926D01*
X107126367Y-98919478D01*
X107460600Y-99057910D01*
X107663000Y-98934224D01*
X107663000Y-97917000D01*
X107917000Y-97917000D01*
X107917000Y-98934224D01*
X108119400Y-99057910D01*
X108453633Y-98919478D01*
X108790000Y-98619926D01*
X109126367Y-98919478D01*
X109460600Y-99057910D01*
X109663000Y-98934224D01*
X109663000Y-97917000D01*
X109917000Y-97917000D01*
X109917000Y-98934224D01*
X110119400Y-99057910D01*
X110453633Y-98919478D01*
X110790000Y-98619926D01*
X111126367Y-98919478D01*
X111460600Y-99057910D01*
X111663000Y-98934224D01*
X111663000Y-97917000D01*
X111917000Y-97917000D01*
X111917000Y-98934224D01*
X112119400Y-99057910D01*
X112453633Y-98919478D01*
X112625741Y-98766206D01*
X134413000Y-98766206D01*
X134413000Y-99353794D01*
X134637860Y-99896653D01*
X135053347Y-100312140D01*
X135596206Y-100537000D01*
X136183794Y-100537000D01*
X136726653Y-100312140D01*
X137142140Y-99896653D01*
X137350624Y-99393329D01*
X139677284Y-99393329D01*
X139820203Y-99738396D01*
X140167337Y-100126764D01*
X140636669Y-100352727D01*
X140843000Y-100230206D01*
X140843000Y-99187000D01*
X141097000Y-99187000D01*
X141097000Y-100230206D01*
X141303331Y-100352727D01*
X141772663Y-100126764D01*
X142119797Y-99738396D01*
X142262716Y-99393329D01*
X142139374Y-99187000D01*
X141097000Y-99187000D01*
X140843000Y-99187000D01*
X139800626Y-99187000D01*
X139677284Y-99393329D01*
X137350624Y-99393329D01*
X137367000Y-99353794D01*
X137367000Y-98766206D01*
X137350625Y-98726671D01*
X139677284Y-98726671D01*
X139800626Y-98933000D01*
X140843000Y-98933000D01*
X140843000Y-97889794D01*
X141097000Y-97889794D01*
X141097000Y-98933000D01*
X142139374Y-98933000D01*
X142262716Y-98726671D01*
X142119797Y-98381604D01*
X141772663Y-97993236D01*
X141303331Y-97767273D01*
X141097000Y-97889794D01*
X140843000Y-97889794D01*
X140636669Y-97767273D01*
X140167337Y-97993236D01*
X139820203Y-98381604D01*
X139677284Y-98726671D01*
X137350625Y-98726671D01*
X137142140Y-98223347D01*
X136726653Y-97807860D01*
X136183794Y-97583000D01*
X135596206Y-97583000D01*
X135053347Y-97807860D01*
X134637860Y-98223347D01*
X134413000Y-98766206D01*
X112625741Y-98766206D01*
X112835349Y-98579540D01*
X113057920Y-98119402D01*
X112935090Y-97917000D01*
X111917000Y-97917000D01*
X111663000Y-97917000D01*
X109917000Y-97917000D01*
X109663000Y-97917000D01*
X107917000Y-97917000D01*
X107663000Y-97917000D01*
X105917000Y-97917000D01*
X105663000Y-97917000D01*
X103917000Y-97917000D01*
X103663000Y-97917000D01*
X101917000Y-97917000D01*
X101663000Y-97917000D01*
X99917000Y-97917000D01*
X99663000Y-97917000D01*
X97917000Y-97917000D01*
X97663000Y-97917000D01*
X96638750Y-97917000D01*
X96480000Y-98075750D01*
X89752000Y-98075750D01*
X89752000Y-95790000D01*
X96309554Y-95790000D01*
X96422246Y-96356542D01*
X96643822Y-96688153D01*
X96576673Y-96755302D01*
X96480000Y-96988691D01*
X96480000Y-97504250D01*
X96638750Y-97663000D01*
X97663000Y-97663000D01*
X97663000Y-97643000D01*
X97917000Y-97643000D01*
X97917000Y-97663000D01*
X99663000Y-97663000D01*
X99663000Y-97643000D01*
X99917000Y-97643000D01*
X99917000Y-97663000D01*
X101663000Y-97663000D01*
X101663000Y-97643000D01*
X101917000Y-97643000D01*
X101917000Y-97663000D01*
X103663000Y-97663000D01*
X103663000Y-97643000D01*
X103917000Y-97643000D01*
X103917000Y-97663000D01*
X105663000Y-97663000D01*
X105663000Y-97643000D01*
X105917000Y-97643000D01*
X105917000Y-97663000D01*
X107663000Y-97663000D01*
X107663000Y-97643000D01*
X107917000Y-97643000D01*
X107917000Y-97663000D01*
X109663000Y-97663000D01*
X109663000Y-97643000D01*
X109917000Y-97643000D01*
X109917000Y-97663000D01*
X111663000Y-97663000D01*
X111663000Y-97643000D01*
X111917000Y-97643000D01*
X111917000Y-97663000D01*
X112935090Y-97663000D01*
X113057920Y-97460598D01*
X112835349Y-97000460D01*
X112731011Y-96907541D01*
X112812144Y-96853329D01*
X119357284Y-96853329D01*
X119500203Y-97198396D01*
X119847337Y-97586764D01*
X120316669Y-97812727D01*
X120523000Y-97690206D01*
X120523000Y-96647000D01*
X120777000Y-96647000D01*
X120777000Y-97690206D01*
X120983331Y-97812727D01*
X121452663Y-97586764D01*
X121799797Y-97198396D01*
X121942716Y-96853329D01*
X121819374Y-96647000D01*
X120777000Y-96647000D01*
X120523000Y-96647000D01*
X119480626Y-96647000D01*
X119357284Y-96853329D01*
X112812144Y-96853329D01*
X112836833Y-96836833D01*
X113157754Y-96356542D01*
X113191543Y-96186671D01*
X119357284Y-96186671D01*
X119480626Y-96393000D01*
X120523000Y-96393000D01*
X120523000Y-95349794D01*
X120777000Y-95349794D01*
X120777000Y-96393000D01*
X121819374Y-96393000D01*
X121919082Y-96226206D01*
X124253000Y-96226206D01*
X124253000Y-96813794D01*
X124477860Y-97356653D01*
X124893347Y-97772140D01*
X125436206Y-97997000D01*
X126023794Y-97997000D01*
X126566653Y-97772140D01*
X126982140Y-97356653D01*
X127207000Y-96813794D01*
X127207000Y-96226206D01*
X150923000Y-96226206D01*
X150923000Y-96813794D01*
X151147860Y-97356653D01*
X151563347Y-97772140D01*
X152106206Y-97997000D01*
X152693794Y-97997000D01*
X153236653Y-97772140D01*
X153652140Y-97356653D01*
X153877000Y-96813794D01*
X153877000Y-96520000D01*
X155974064Y-96520000D01*
X156088697Y-97096297D01*
X156415142Y-97584858D01*
X156903703Y-97911303D01*
X157334529Y-97997000D01*
X157625471Y-97997000D01*
X158056297Y-97911303D01*
X158544858Y-97584858D01*
X158871303Y-97096297D01*
X158985936Y-96520000D01*
X158871303Y-95943703D01*
X158544858Y-95455142D01*
X158056297Y-95128697D01*
X157625471Y-95043000D01*
X157334529Y-95043000D01*
X156903703Y-95128697D01*
X156415142Y-95455142D01*
X156088697Y-95943703D01*
X155974064Y-96520000D01*
X153877000Y-96520000D01*
X153877000Y-96226206D01*
X153652140Y-95683347D01*
X153236653Y-95267860D01*
X152693794Y-95043000D01*
X152106206Y-95043000D01*
X151563347Y-95267860D01*
X151147860Y-95683347D01*
X150923000Y-96226206D01*
X127207000Y-96226206D01*
X126982140Y-95683347D01*
X126566653Y-95267860D01*
X126023794Y-95043000D01*
X125436206Y-95043000D01*
X124893347Y-95267860D01*
X124477860Y-95683347D01*
X124253000Y-96226206D01*
X121919082Y-96226206D01*
X121942716Y-96186671D01*
X121799797Y-95841604D01*
X121452663Y-95453236D01*
X120983331Y-95227273D01*
X120777000Y-95349794D01*
X120523000Y-95349794D01*
X120316669Y-95227273D01*
X119847337Y-95453236D01*
X119500203Y-95841604D01*
X119357284Y-96186671D01*
X113191543Y-96186671D01*
X113270446Y-95790000D01*
X113157754Y-95223458D01*
X112929598Y-94882000D01*
X130906324Y-94882000D01*
X131015142Y-95044858D01*
X131503703Y-95371303D01*
X131934529Y-95457000D01*
X132225471Y-95457000D01*
X132656297Y-95371303D01*
X133144858Y-95044858D01*
X133471303Y-94556297D01*
X133585936Y-93980000D01*
X133471303Y-93403703D01*
X133144858Y-92915142D01*
X132656297Y-92588697D01*
X132225471Y-92503000D01*
X131934529Y-92503000D01*
X131503703Y-92588697D01*
X131015142Y-92915142D01*
X130906324Y-93078000D01*
X109243621Y-93078000D01*
X108573366Y-92407745D01*
X141411861Y-92407745D01*
X141485995Y-92653864D01*
X142023223Y-92846965D01*
X142593454Y-92819778D01*
X142994005Y-92653864D01*
X143068139Y-92407745D01*
X142240000Y-91579605D01*
X141411861Y-92407745D01*
X108573366Y-92407745D01*
X107348844Y-91183223D01*
X140793035Y-91183223D01*
X140820222Y-91753454D01*
X140986136Y-92154005D01*
X141232255Y-92228139D01*
X142060395Y-91400000D01*
X142419605Y-91400000D01*
X143247745Y-92228139D01*
X143493864Y-92154005D01*
X143686965Y-91616777D01*
X143659778Y-91046546D01*
X143493864Y-90645995D01*
X143247745Y-90571861D01*
X142419605Y-91400000D01*
X142060395Y-91400000D01*
X141232255Y-90571861D01*
X140986136Y-90645995D01*
X140793035Y-91183223D01*
X107348844Y-91183223D01*
X106402600Y-90236979D01*
X106790000Y-89978126D01*
X107223458Y-90267754D01*
X107646992Y-90352000D01*
X107933008Y-90352000D01*
X108356542Y-90267754D01*
X108790000Y-89978126D01*
X109223458Y-90267754D01*
X109646992Y-90352000D01*
X109933008Y-90352000D01*
X110356542Y-90267754D01*
X110790000Y-89978126D01*
X111223458Y-90267754D01*
X111646992Y-90352000D01*
X111933008Y-90352000D01*
X112356542Y-90267754D01*
X112836833Y-89946833D01*
X112911373Y-89835275D01*
X117354331Y-89835275D01*
X117416169Y-90071042D01*
X117917122Y-90247419D01*
X118447440Y-90218664D01*
X118803831Y-90071042D01*
X118865669Y-89835275D01*
X118110000Y-89079605D01*
X117354331Y-89835275D01*
X112911373Y-89835275D01*
X113157754Y-89466542D01*
X113270446Y-88900000D01*
X113232081Y-88707122D01*
X116762581Y-88707122D01*
X116791336Y-89237440D01*
X116938958Y-89593831D01*
X117174725Y-89655669D01*
X117930395Y-88900000D01*
X118289605Y-88900000D01*
X119045275Y-89655669D01*
X119281042Y-89593831D01*
X119457419Y-89092878D01*
X119446961Y-88900000D01*
X121684064Y-88900000D01*
X121798697Y-89476297D01*
X122125142Y-89964858D01*
X122613703Y-90291303D01*
X123044529Y-90377000D01*
X123335471Y-90377000D01*
X123766297Y-90291303D01*
X124254858Y-89964858D01*
X124581303Y-89476297D01*
X124695936Y-88900000D01*
X124637497Y-88606206D01*
X130603000Y-88606206D01*
X130603000Y-89193794D01*
X130827860Y-89736653D01*
X131243347Y-90152140D01*
X131786206Y-90377000D01*
X132373794Y-90377000D01*
X132916653Y-90152140D01*
X133332140Y-89736653D01*
X133557000Y-89193794D01*
X133557000Y-88606206D01*
X133548761Y-88586315D01*
X140663000Y-88586315D01*
X140663000Y-89213685D01*
X140903084Y-89793299D01*
X141346701Y-90236916D01*
X141446233Y-90278143D01*
X141411861Y-90392255D01*
X142240000Y-91220395D01*
X143068139Y-90392255D01*
X143033767Y-90278143D01*
X143133299Y-90236916D01*
X143576916Y-89793299D01*
X143817000Y-89213685D01*
X143817000Y-88586315D01*
X168643000Y-88586315D01*
X168643000Y-89213685D01*
X168883084Y-89793299D01*
X169326701Y-90236916D01*
X169906315Y-90477000D01*
X170533685Y-90477000D01*
X171113299Y-90236916D01*
X171442470Y-89907745D01*
X171891861Y-89907745D01*
X171965995Y-90153864D01*
X172503223Y-90346965D01*
X173073454Y-90319778D01*
X173474005Y-90153864D01*
X173548139Y-89907745D01*
X172720000Y-89079605D01*
X171891861Y-89907745D01*
X171442470Y-89907745D01*
X171556916Y-89793299D01*
X171598143Y-89693767D01*
X171712255Y-89728139D01*
X172540395Y-88900000D01*
X172899605Y-88900000D01*
X173727745Y-89728139D01*
X173973864Y-89654005D01*
X174166965Y-89116777D01*
X174139778Y-88546546D01*
X173973864Y-88145995D01*
X173727745Y-88071861D01*
X172899605Y-88900000D01*
X172540395Y-88900000D01*
X171712255Y-88071861D01*
X171598143Y-88106233D01*
X171556916Y-88006701D01*
X171442470Y-87892255D01*
X171891861Y-87892255D01*
X172720000Y-88720395D01*
X173548139Y-87892255D01*
X173474005Y-87646136D01*
X172936777Y-87453035D01*
X172366546Y-87480222D01*
X171965995Y-87646136D01*
X171891861Y-87892255D01*
X171442470Y-87892255D01*
X171113299Y-87563084D01*
X170533685Y-87323000D01*
X169906315Y-87323000D01*
X169326701Y-87563084D01*
X168883084Y-88006701D01*
X168643000Y-88586315D01*
X143817000Y-88586315D01*
X143576916Y-88006701D01*
X143133299Y-87563084D01*
X142553685Y-87323000D01*
X141926315Y-87323000D01*
X141346701Y-87563084D01*
X140903084Y-88006701D01*
X140663000Y-88586315D01*
X133548761Y-88586315D01*
X133332140Y-88063347D01*
X132916653Y-87647860D01*
X132373794Y-87423000D01*
X131786206Y-87423000D01*
X131243347Y-87647860D01*
X130827860Y-88063347D01*
X130603000Y-88606206D01*
X124637497Y-88606206D01*
X124581303Y-88323703D01*
X124254858Y-87835142D01*
X123766297Y-87508697D01*
X123335471Y-87423000D01*
X123044529Y-87423000D01*
X122613703Y-87508697D01*
X122125142Y-87835142D01*
X121798697Y-88323703D01*
X121684064Y-88900000D01*
X119446961Y-88900000D01*
X119428664Y-88562560D01*
X119281042Y-88206169D01*
X119045275Y-88144331D01*
X118289605Y-88900000D01*
X117930395Y-88900000D01*
X117174725Y-88144331D01*
X116938958Y-88206169D01*
X116762581Y-88707122D01*
X113232081Y-88707122D01*
X113157754Y-88333458D01*
X112911374Y-87964725D01*
X117354331Y-87964725D01*
X118110000Y-88720395D01*
X118865669Y-87964725D01*
X118803831Y-87728958D01*
X118302878Y-87552581D01*
X117772560Y-87581336D01*
X117416169Y-87728958D01*
X117354331Y-87964725D01*
X112911374Y-87964725D01*
X112836833Y-87853167D01*
X112356542Y-87532246D01*
X111933008Y-87448000D01*
X111646992Y-87448000D01*
X111223458Y-87532246D01*
X110790000Y-87821874D01*
X110356542Y-87532246D01*
X109933008Y-87448000D01*
X109646992Y-87448000D01*
X109223458Y-87532246D01*
X108790000Y-87821874D01*
X108356542Y-87532246D01*
X107933008Y-87448000D01*
X107646992Y-87448000D01*
X107223458Y-87532246D01*
X106790000Y-87821874D01*
X106356542Y-87532246D01*
X105933008Y-87448000D01*
X105646992Y-87448000D01*
X105223458Y-87532246D01*
X104790000Y-87821874D01*
X104356542Y-87532246D01*
X103933008Y-87448000D01*
X103646992Y-87448000D01*
X103223458Y-87532246D01*
X102790000Y-87821874D01*
X102356542Y-87532246D01*
X101933008Y-87448000D01*
X101646992Y-87448000D01*
X101223458Y-87532246D01*
X100790000Y-87821874D01*
X100356542Y-87532246D01*
X99933008Y-87448000D01*
X99646992Y-87448000D01*
X99223458Y-87532246D01*
X99025121Y-87664771D01*
X98768170Y-87493082D01*
X98465000Y-87432778D01*
X97115000Y-87432778D01*
X96811830Y-87493082D01*
X96554814Y-87664814D01*
X96383082Y-87921830D01*
X96322778Y-88225000D01*
X96322778Y-89575000D01*
X96383082Y-89878170D01*
X96554814Y-90135186D01*
X96811830Y-90306918D01*
X97115000Y-90367222D01*
X98465000Y-90367222D01*
X98768170Y-90306918D01*
X99025121Y-90135229D01*
X99223458Y-90267754D01*
X99646992Y-90352000D01*
X99933008Y-90352000D01*
X100356542Y-90267754D01*
X100790000Y-89978126D01*
X101223458Y-90267754D01*
X101646992Y-90352000D01*
X101933008Y-90352000D01*
X102356542Y-90267754D01*
X102790000Y-89978126D01*
X103223458Y-90267754D01*
X103646992Y-90352000D01*
X103933008Y-90352000D01*
X103960843Y-90346463D01*
X107957189Y-94342810D01*
X107933008Y-94338000D01*
X107646992Y-94338000D01*
X107223458Y-94422246D01*
X106790000Y-94711874D01*
X106356542Y-94422246D01*
X105933008Y-94338000D01*
X105646992Y-94338000D01*
X105223458Y-94422246D01*
X104790000Y-94711874D01*
X104356542Y-94422246D01*
X103933008Y-94338000D01*
X103646992Y-94338000D01*
X103223458Y-94422246D01*
X102790000Y-94711874D01*
X102356542Y-94422246D01*
X101933008Y-94338000D01*
X101646992Y-94338000D01*
X101223458Y-94422246D01*
X100790000Y-94711874D01*
X100356542Y-94422246D01*
X99933008Y-94338000D01*
X99646992Y-94338000D01*
X99223458Y-94422246D01*
X98790000Y-94711874D01*
X98356542Y-94422246D01*
X97933008Y-94338000D01*
X97646992Y-94338000D01*
X97223458Y-94422246D01*
X96743167Y-94743167D01*
X96422246Y-95223458D01*
X96309554Y-95790000D01*
X89752000Y-95790000D01*
X89752000Y-71280000D01*
X91229554Y-71280000D01*
X91342246Y-71846542D01*
X91631874Y-72280000D01*
X91342246Y-72713458D01*
X91229554Y-73280000D01*
X91342246Y-73846542D01*
X91631874Y-74280000D01*
X91342246Y-74713458D01*
X91229554Y-75280000D01*
X91342246Y-75846542D01*
X91631874Y-76280000D01*
X91342246Y-76713458D01*
X91229554Y-77280000D01*
X91342246Y-77846542D01*
X91631874Y-78280000D01*
X91342246Y-78713458D01*
X91229554Y-79280000D01*
X91342246Y-79846542D01*
X91474771Y-80044879D01*
X91303082Y-80301830D01*
X91242778Y-80605000D01*
X91242778Y-81955000D01*
X91303082Y-82258170D01*
X91474814Y-82515186D01*
X91731830Y-82686918D01*
X92035000Y-82747222D01*
X93385000Y-82747222D01*
X93688170Y-82686918D01*
X93945186Y-82515186D01*
X94116918Y-82258170D01*
X94177222Y-81955000D01*
X94177222Y-80605000D01*
X94116918Y-80301830D01*
X93945229Y-80044879D01*
X94077754Y-79846542D01*
X94190446Y-79280000D01*
X94077754Y-78713458D01*
X93788126Y-78280000D01*
X94077754Y-77846542D01*
X94190446Y-77280000D01*
X94077754Y-76713458D01*
X93788126Y-76280000D01*
X94077754Y-75846542D01*
X94190446Y-75280000D01*
X94077754Y-74713458D01*
X93788126Y-74280000D01*
X94077754Y-73846542D01*
X94190446Y-73280000D01*
X94077754Y-72713458D01*
X93788126Y-72280000D01*
X93870312Y-72157000D01*
X97297663Y-72157000D01*
X96896701Y-72323084D01*
X96453084Y-72766701D01*
X96213000Y-73346315D01*
X96213000Y-73973685D01*
X96453084Y-74553299D01*
X96809785Y-74910000D01*
X96453084Y-75266701D01*
X96213000Y-75846315D01*
X96213000Y-76473685D01*
X96453084Y-77053299D01*
X96896701Y-77496916D01*
X97476315Y-77737000D01*
X98103685Y-77737000D01*
X98683299Y-77496916D01*
X99126916Y-77053299D01*
X99367000Y-76473685D01*
X99367000Y-75846315D01*
X99361071Y-75832000D01*
X108235787Y-75832000D01*
X108440951Y-76139049D01*
X108995667Y-76509699D01*
X109414449Y-76593000D01*
X102956369Y-76593000D01*
X102869999Y-76575820D01*
X102783629Y-76593000D01*
X102783625Y-76593000D01*
X102527812Y-76643884D01*
X102527811Y-76643885D01*
X102527810Y-76643885D01*
X102395938Y-76732000D01*
X102237719Y-76837719D01*
X102188792Y-76910943D01*
X99966736Y-79133000D01*
X98980380Y-79133000D01*
X98854858Y-78945142D01*
X98366297Y-78618697D01*
X97935471Y-78533000D01*
X97644529Y-78533000D01*
X97213703Y-78618697D01*
X96725142Y-78945142D01*
X96398697Y-79433703D01*
X96284064Y-80010000D01*
X96398697Y-80586297D01*
X96725142Y-81074858D01*
X97213703Y-81401303D01*
X97644529Y-81487000D01*
X97935471Y-81487000D01*
X98366297Y-81401303D01*
X98854858Y-81074858D01*
X98980380Y-80887000D01*
X100243630Y-80887000D01*
X100330000Y-80904180D01*
X100416370Y-80887000D01*
X100416375Y-80887000D01*
X100672188Y-80836116D01*
X100962281Y-80642281D01*
X101011210Y-80569054D01*
X103233265Y-78347000D01*
X106903090Y-78347000D01*
X106746830Y-78378082D01*
X106489814Y-78549814D01*
X106318082Y-78806830D01*
X106257778Y-79110000D01*
X106257778Y-80910000D01*
X106318082Y-81213170D01*
X106489814Y-81470186D01*
X106746830Y-81641918D01*
X107050000Y-81702222D01*
X108850000Y-81702222D01*
X109153170Y-81641918D01*
X109410186Y-81470186D01*
X109581918Y-81213170D01*
X109642222Y-80910000D01*
X109642222Y-80020437D01*
X109770301Y-80664333D01*
X110140951Y-81219049D01*
X110695667Y-81589699D01*
X111184832Y-81687000D01*
X111515168Y-81687000D01*
X112004333Y-81589699D01*
X112559049Y-81219049D01*
X112929699Y-80664333D01*
X113050000Y-80059539D01*
X113170301Y-80664333D01*
X113540951Y-81219049D01*
X114095667Y-81589699D01*
X114584832Y-81687000D01*
X114915168Y-81687000D01*
X115404333Y-81589699D01*
X115959049Y-81219049D01*
X116329699Y-80664333D01*
X116387302Y-80374740D01*
X116658964Y-80374740D01*
X116837760Y-80806417D01*
X117242424Y-81247966D01*
X117785258Y-81501046D01*
X118023000Y-81380997D01*
X118023000Y-80137000D01*
X118277000Y-80137000D01*
X118277000Y-81380997D01*
X118514742Y-81501046D01*
X119057576Y-81247966D01*
X119462240Y-80806417D01*
X119641036Y-80374740D01*
X119520378Y-80137000D01*
X118277000Y-80137000D01*
X118023000Y-80137000D01*
X116779622Y-80137000D01*
X116658964Y-80374740D01*
X116387302Y-80374740D01*
X116459854Y-80010000D01*
X116329699Y-79355667D01*
X115959049Y-78800951D01*
X115404333Y-78430301D01*
X114985551Y-78347000D01*
X116476736Y-78347000D01*
X117079521Y-78949786D01*
X116837760Y-79213583D01*
X116658964Y-79645260D01*
X116779622Y-79883000D01*
X118023000Y-79883000D01*
X118023000Y-79863000D01*
X118277000Y-79863000D01*
X118277000Y-79883000D01*
X119520378Y-79883000D01*
X119641036Y-79645260D01*
X119629331Y-79617000D01*
X119918319Y-79617000D01*
X119840146Y-80010000D01*
X119918056Y-80401679D01*
X116106736Y-84213000D01*
X99001793Y-84213000D01*
X98626653Y-83837860D01*
X98083794Y-83613000D01*
X97496206Y-83613000D01*
X96953347Y-83837860D01*
X96537860Y-84253347D01*
X96313000Y-84796206D01*
X96313000Y-85383794D01*
X96537860Y-85926653D01*
X96953347Y-86342140D01*
X97496206Y-86567000D01*
X98083794Y-86567000D01*
X98583535Y-86360000D01*
X143274064Y-86360000D01*
X143388697Y-86936297D01*
X143715142Y-87424858D01*
X144203703Y-87751303D01*
X144634529Y-87837000D01*
X144925471Y-87837000D01*
X145356297Y-87751303D01*
X145844858Y-87424858D01*
X146171303Y-86936297D01*
X146285936Y-86360000D01*
X146171303Y-85783703D01*
X145844858Y-85295142D01*
X145356297Y-84968697D01*
X144925471Y-84883000D01*
X144634529Y-84883000D01*
X144203703Y-84968697D01*
X143715142Y-85295142D01*
X143388697Y-85783703D01*
X143274064Y-86360000D01*
X98583535Y-86360000D01*
X98626653Y-86342140D01*
X99001793Y-85967000D01*
X116383630Y-85967000D01*
X116470000Y-85984180D01*
X116556370Y-85967000D01*
X116556375Y-85967000D01*
X116812188Y-85916116D01*
X117102281Y-85722281D01*
X117151210Y-85649054D01*
X121158321Y-81641944D01*
X121384832Y-81687000D01*
X121715168Y-81687000D01*
X122204333Y-81589699D01*
X122759049Y-81219049D01*
X123129699Y-80664333D01*
X123250000Y-80059539D01*
X123370301Y-80664333D01*
X123740951Y-81219049D01*
X124295667Y-81589699D01*
X124784832Y-81687000D01*
X125115168Y-81687000D01*
X125604333Y-81589699D01*
X126159049Y-81219049D01*
X126529699Y-80664333D01*
X126659854Y-80010000D01*
X136877493Y-80010000D01*
X136961410Y-80431883D01*
X136948082Y-80451830D01*
X136887778Y-80755000D01*
X136887778Y-81805000D01*
X136948082Y-82108170D01*
X137119814Y-82365186D01*
X137376830Y-82536918D01*
X137680000Y-82597222D01*
X139180000Y-82597222D01*
X139483170Y-82536918D01*
X139740186Y-82365186D01*
X139911918Y-82108170D01*
X139972222Y-81805000D01*
X139972222Y-80755000D01*
X139911918Y-80451830D01*
X139898590Y-80431883D01*
X139982507Y-80010000D01*
X139881457Y-79501985D01*
X139697549Y-79226748D01*
X139765266Y-79107336D01*
X139773964Y-79045810D01*
X139648163Y-78867000D01*
X139287917Y-78867000D01*
X139163015Y-78783543D01*
X138783233Y-78708000D01*
X138076767Y-78708000D01*
X137696985Y-78783543D01*
X137572083Y-78867000D01*
X137211837Y-78867000D01*
X137086036Y-79045810D01*
X137094734Y-79107336D01*
X137162451Y-79226748D01*
X136978543Y-79501985D01*
X136877493Y-80010000D01*
X126659854Y-80010000D01*
X126581681Y-79617000D01*
X133135480Y-79617000D01*
X133350000Y-79659671D01*
X133701942Y-79589665D01*
X133924992Y-79440628D01*
X134931430Y-78434190D01*
X137086036Y-78434190D01*
X137211837Y-78613000D01*
X138303000Y-78613000D01*
X138303000Y-77733407D01*
X138557000Y-77733407D01*
X138557000Y-78613000D01*
X139648163Y-78613000D01*
X139773964Y-78434190D01*
X139765266Y-78372664D01*
X139540179Y-77975745D01*
X139180331Y-77695177D01*
X138740506Y-77573674D01*
X138557000Y-77733407D01*
X138303000Y-77733407D01*
X138119494Y-77573674D01*
X137679669Y-77695177D01*
X137319821Y-77975745D01*
X137094734Y-78372664D01*
X137086036Y-78434190D01*
X134931430Y-78434190D01*
X137533621Y-75832000D01*
X144406380Y-75832000D01*
X148958000Y-80383621D01*
X148958001Y-85173206D01*
X148607860Y-85523347D01*
X148383000Y-86066206D01*
X148383000Y-86653794D01*
X148607860Y-87196653D01*
X149023347Y-87612140D01*
X149566206Y-87837000D01*
X150153794Y-87837000D01*
X150696653Y-87612140D01*
X151112140Y-87196653D01*
X151337000Y-86653794D01*
X151337000Y-86066206D01*
X151112140Y-85523347D01*
X150762000Y-85173207D01*
X150762000Y-82246261D01*
X161033000Y-82246261D01*
X161033000Y-82853739D01*
X161265472Y-83414976D01*
X161695024Y-83844528D01*
X162256261Y-84077000D01*
X162863739Y-84077000D01*
X163424976Y-83844528D01*
X163854528Y-83414976D01*
X164087000Y-82853739D01*
X164087000Y-82246261D01*
X164833000Y-82246261D01*
X164833000Y-82853739D01*
X165065472Y-83414976D01*
X165495024Y-83844528D01*
X166056261Y-84077000D01*
X166663739Y-84077000D01*
X167224976Y-83844528D01*
X167654528Y-83414976D01*
X167887000Y-82853739D01*
X167887000Y-82246261D01*
X167654528Y-81685024D01*
X167224976Y-81255472D01*
X166663739Y-81023000D01*
X166056261Y-81023000D01*
X165495024Y-81255472D01*
X165065472Y-81685024D01*
X164833000Y-82246261D01*
X164087000Y-82246261D01*
X163854528Y-81685024D01*
X163424976Y-81255472D01*
X162863739Y-81023000D01*
X162256261Y-81023000D01*
X161695024Y-81255472D01*
X161265472Y-81685024D01*
X161033000Y-82246261D01*
X150762000Y-82246261D01*
X150762000Y-80912000D01*
X158661162Y-80912000D01*
X158750000Y-80929671D01*
X158838838Y-80912000D01*
X159101943Y-80859665D01*
X159400306Y-80660306D01*
X159450631Y-80584989D01*
X161095220Y-78940400D01*
X164442762Y-78940400D01*
X164531600Y-78958071D01*
X164620438Y-78940400D01*
X164883543Y-78888065D01*
X165181906Y-78688706D01*
X165232231Y-78613389D01*
X170985620Y-72860000D01*
X174937778Y-72860000D01*
X174937778Y-74460000D01*
X174998082Y-74763170D01*
X175169814Y-75020186D01*
X175426830Y-75191918D01*
X175730000Y-75252222D01*
X177330000Y-75252222D01*
X177633170Y-75191918D01*
X177890186Y-75020186D01*
X178006535Y-74846056D01*
X178454685Y-75145501D01*
X178914681Y-75237000D01*
X179225319Y-75237000D01*
X179685315Y-75145501D01*
X180206953Y-74796953D01*
X180431758Y-74460509D01*
X180457611Y-74515134D01*
X180872577Y-74891041D01*
X181260961Y-75051904D01*
X181483000Y-74929915D01*
X181483000Y-73787000D01*
X181463000Y-73787000D01*
X181463000Y-73533000D01*
X181483000Y-73533000D01*
X181483000Y-72390085D01*
X181737000Y-72390085D01*
X181737000Y-73533000D01*
X181757000Y-73533000D01*
X181757000Y-73787000D01*
X181737000Y-73787000D01*
X181737000Y-74929915D01*
X181959039Y-75051904D01*
X182347423Y-74891041D01*
X182762389Y-74515134D01*
X182788242Y-74460509D01*
X183013047Y-74796953D01*
X183534685Y-75145501D01*
X183994681Y-75237000D01*
X184305319Y-75237000D01*
X184765315Y-75145501D01*
X185286953Y-74796953D01*
X185420000Y-74597834D01*
X185553047Y-74796953D01*
X186074685Y-75145501D01*
X186534681Y-75237000D01*
X186845319Y-75237000D01*
X187305315Y-75145501D01*
X187826953Y-74796953D01*
X187960000Y-74597834D01*
X188093047Y-74796953D01*
X188614685Y-75145501D01*
X189074681Y-75237000D01*
X189385319Y-75237000D01*
X189845315Y-75145501D01*
X190366953Y-74796953D01*
X190500000Y-74597834D01*
X190633047Y-74796953D01*
X191154685Y-75145501D01*
X191614681Y-75237000D01*
X191925319Y-75237000D01*
X192385315Y-75145501D01*
X192906953Y-74796953D01*
X193255501Y-74275315D01*
X193377895Y-73660000D01*
X193255501Y-73044685D01*
X192906953Y-72523047D01*
X192385315Y-72174499D01*
X191925319Y-72083000D01*
X191614681Y-72083000D01*
X191154685Y-72174499D01*
X190633047Y-72523047D01*
X190500000Y-72722166D01*
X190366953Y-72523047D01*
X189845315Y-72174499D01*
X189385319Y-72083000D01*
X189074681Y-72083000D01*
X188614685Y-72174499D01*
X188093047Y-72523047D01*
X187960000Y-72722166D01*
X187826953Y-72523047D01*
X187305315Y-72174499D01*
X186845319Y-72083000D01*
X186534681Y-72083000D01*
X186074685Y-72174499D01*
X185553047Y-72523047D01*
X185420000Y-72722166D01*
X185286953Y-72523047D01*
X184765315Y-72174499D01*
X184305319Y-72083000D01*
X183994681Y-72083000D01*
X183534685Y-72174499D01*
X183013047Y-72523047D01*
X182788242Y-72859491D01*
X182762389Y-72804866D01*
X182347423Y-72428959D01*
X181959039Y-72268096D01*
X181737000Y-72390085D01*
X181483000Y-72390085D01*
X181260961Y-72268096D01*
X180872577Y-72428959D01*
X180457611Y-72804866D01*
X180431758Y-72859491D01*
X180206953Y-72523047D01*
X179685315Y-72174499D01*
X179225319Y-72083000D01*
X178914681Y-72083000D01*
X178454685Y-72174499D01*
X178006535Y-72473944D01*
X177890186Y-72299814D01*
X177633170Y-72128082D01*
X177330000Y-72067778D01*
X175730000Y-72067778D01*
X175426830Y-72128082D01*
X175169814Y-72299814D01*
X174998082Y-72556830D01*
X174937778Y-72860000D01*
X170985620Y-72860000D01*
X176252854Y-67592767D01*
X176374681Y-67617000D01*
X176685319Y-67617000D01*
X177145315Y-67525501D01*
X177666953Y-67176953D01*
X177800000Y-66977834D01*
X177933047Y-67176953D01*
X178454685Y-67525501D01*
X178914681Y-67617000D01*
X179225319Y-67617000D01*
X179685315Y-67525501D01*
X180206953Y-67176953D01*
X180340000Y-66977834D01*
X180473047Y-67176953D01*
X180994685Y-67525501D01*
X181454681Y-67617000D01*
X181765319Y-67617000D01*
X182225315Y-67525501D01*
X182746953Y-67176953D01*
X182880000Y-66977834D01*
X183013047Y-67176953D01*
X183534685Y-67525501D01*
X183994681Y-67617000D01*
X184305319Y-67617000D01*
X184765315Y-67525501D01*
X185286953Y-67176953D01*
X185420000Y-66977834D01*
X185553047Y-67176953D01*
X186074685Y-67525501D01*
X186534681Y-67617000D01*
X186845319Y-67617000D01*
X187305315Y-67525501D01*
X187826953Y-67176953D01*
X187960000Y-66977834D01*
X188093047Y-67176953D01*
X188614685Y-67525501D01*
X189074681Y-67617000D01*
X189385319Y-67617000D01*
X189845315Y-67525501D01*
X190366953Y-67176953D01*
X190500000Y-66977834D01*
X190633047Y-67176953D01*
X191154685Y-67525501D01*
X191614681Y-67617000D01*
X191925319Y-67617000D01*
X192385315Y-67525501D01*
X192906953Y-67176953D01*
X193255501Y-66655315D01*
X193377895Y-66040000D01*
X193255501Y-65424685D01*
X192906953Y-64903047D01*
X192385315Y-64554499D01*
X191925319Y-64463000D01*
X191614681Y-64463000D01*
X191154685Y-64554499D01*
X190633047Y-64903047D01*
X190500000Y-65102166D01*
X190366953Y-64903047D01*
X189845315Y-64554499D01*
X189385319Y-64463000D01*
X189074681Y-64463000D01*
X188614685Y-64554499D01*
X188093047Y-64903047D01*
X187960000Y-65102166D01*
X187826953Y-64903047D01*
X187305315Y-64554499D01*
X186845319Y-64463000D01*
X186534681Y-64463000D01*
X186074685Y-64554499D01*
X185553047Y-64903047D01*
X185420000Y-65102166D01*
X185286953Y-64903047D01*
X184765315Y-64554499D01*
X184305319Y-64463000D01*
X183994681Y-64463000D01*
X183534685Y-64554499D01*
X183013047Y-64903047D01*
X182880000Y-65102166D01*
X182746953Y-64903047D01*
X182225315Y-64554499D01*
X181765319Y-64463000D01*
X181454681Y-64463000D01*
X180994685Y-64554499D01*
X180473047Y-64903047D01*
X180340000Y-65102166D01*
X180206953Y-64903047D01*
X179685315Y-64554499D01*
X179225319Y-64463000D01*
X178914681Y-64463000D01*
X178454685Y-64554499D01*
X177933047Y-64903047D01*
X177800000Y-65102166D01*
X177666953Y-64903047D01*
X177145315Y-64554499D01*
X176685319Y-64463000D01*
X176374681Y-64463000D01*
X175914685Y-64554499D01*
X175393047Y-64903047D01*
X175044499Y-65424685D01*
X174922105Y-66040000D01*
X174977233Y-66317146D01*
X164157980Y-77136400D01*
X160810436Y-77136400D01*
X160721599Y-77118729D01*
X160632763Y-77136400D01*
X160632762Y-77136400D01*
X160369657Y-77188735D01*
X160071294Y-77388094D01*
X160020969Y-77463411D01*
X158376380Y-79108000D01*
X150233621Y-79108000D01*
X145480631Y-74355011D01*
X145430306Y-74279694D01*
X145131943Y-74080335D01*
X144868838Y-74028000D01*
X144780000Y-74010329D01*
X144691162Y-74028000D01*
X137248838Y-74028000D01*
X137160000Y-74010329D01*
X137071162Y-74028000D01*
X136950370Y-74052027D01*
X137585397Y-73417000D01*
X150704604Y-73417000D01*
X152666421Y-75378818D01*
X152663000Y-75387077D01*
X152663000Y-76292923D01*
X153009653Y-77129817D01*
X153650183Y-77770347D01*
X154487077Y-78117000D01*
X155392923Y-78117000D01*
X156229817Y-77770347D01*
X156870347Y-77129817D01*
X157217000Y-76292923D01*
X157217000Y-75387077D01*
X156870347Y-74550183D01*
X156229817Y-73909653D01*
X155392923Y-73563000D01*
X154487077Y-73563000D01*
X153969701Y-73777304D01*
X151927726Y-71735330D01*
X151870426Y-71649574D01*
X151530715Y-71422587D01*
X151231150Y-71363000D01*
X151231149Y-71363000D01*
X151130000Y-71342880D01*
X151028851Y-71363000D01*
X137261149Y-71363000D01*
X137160000Y-71342880D01*
X137058851Y-71363000D01*
X137058850Y-71363000D01*
X136759285Y-71422587D01*
X136419574Y-71649574D01*
X136362275Y-71735328D01*
X132695328Y-75402276D01*
X132695325Y-75402278D01*
X131654604Y-76443000D01*
X124004155Y-76443000D01*
X124459049Y-76139049D01*
X124829699Y-75584333D01*
X124959854Y-74930000D01*
X124829699Y-74275667D01*
X124459049Y-73720951D01*
X123904333Y-73350301D01*
X123415168Y-73253000D01*
X123084832Y-73253000D01*
X122595667Y-73350301D01*
X122071116Y-73700796D01*
X108755331Y-60385011D01*
X108705006Y-60309694D01*
X108406643Y-60110335D01*
X108143538Y-60058000D01*
X108054700Y-60040329D01*
X107965862Y-60058000D01*
X104557000Y-60058000D01*
X104557000Y-59795969D01*
X104454477Y-59280551D01*
X104063936Y-58696064D01*
X103479448Y-58305523D01*
X102790000Y-58168383D01*
X102100551Y-58305523D01*
X101516064Y-58696064D01*
X101125523Y-59280552D01*
X101023000Y-59795970D01*
X101023001Y-62124031D01*
X101125524Y-62639449D01*
X101516065Y-63223936D01*
X102100552Y-63614477D01*
X102790000Y-63751617D01*
X103479449Y-63614477D01*
X104063936Y-63223936D01*
X104454477Y-62639449D01*
X104557000Y-62124031D01*
X104557000Y-61862000D01*
X107681080Y-61862000D01*
X116206117Y-70387037D01*
X116200000Y-70385820D01*
X116113630Y-70403000D01*
X93870312Y-70403000D01*
X93756833Y-70233167D01*
X93276542Y-69912246D01*
X92853008Y-69828000D01*
X92566992Y-69828000D01*
X92143458Y-69912246D01*
X91663167Y-70233167D01*
X91342246Y-70713458D01*
X91229554Y-71280000D01*
X89752000Y-71280000D01*
X89752000Y-58980000D01*
X96007778Y-58980000D01*
X96007778Y-62940000D01*
X96068082Y-63243170D01*
X96239814Y-63500186D01*
X96496830Y-63671918D01*
X96800000Y-63732222D01*
X98780000Y-63732222D01*
X99083170Y-63671918D01*
X99340186Y-63500186D01*
X99511918Y-63243170D01*
X99572222Y-62940000D01*
X99572222Y-58980000D01*
X99511918Y-58676830D01*
X99340186Y-58419814D01*
X99083170Y-58248082D01*
X98780000Y-58187778D01*
X96800000Y-58187778D01*
X96496830Y-58248082D01*
X96239814Y-58419814D01*
X96068082Y-58676830D01*
X96007778Y-58980000D01*
X89752000Y-58980000D01*
X89752000Y-51652000D01*
X153407836Y-51652000D01*
X153009653Y-52050183D01*
G04 #@! TD*
M02*
